$MeshFormat
4.1 0 8
$EndMeshFormat
$PhysicalNames
20
0 1001 "e1"
0 1002 "e2"
0 1003 "e3"
0 1004 "e4"
0 1005 "e5"
0 1006 "e6"
0 1007 "e7"
0 1008 "e8"
0 1009 "e9"
0 1010 "e10"
0 1011 "e11"
0 1012 "e12"
0 1013 "e13"
0 1014 "e14"
0 1015 "e15"
0 1016 "e16"
2 201 "Skin"
2 202 "Fat"
2 203 "Muscle"
2 204 "Bone"
$EndPhysicalNames
$Entities
65 64 4 0
1 0.05194458298838361 0.02151615076560325 0 1 1001 
2 0.03975666262153579 0.03975666262153579 0 1 1002 
3 0.02151615076560325 0.05194458298838361 0 1 1003 
4 3.442752277283018e-18 0.0562244114740674 0 1 1004 
5 -0.02151615076560325 0.05194458298838361 0 1 1005 
6 -0.03975666262153579 0.03975666262153579 0 1 1006 
7 -0.05194458298838361 0.02151615076560326 0 1 1007 
8 -0.0562244114740674 6.885504554566036e-18 0 1 1008 
9 -0.05194458298838362 -0.02151615076560324 0 1 1009 
10 -0.0397566626215358 -0.03975666262153579 0 1 1010 
11 -0.02151615076560328 -0.0519445829883836 0 1 1011 
12 -1.032825683184905e-17 -0.0562244114740674 0 1 1012 
13 0.02151615076560326 -0.05194458298838361 0 1 1013 
14 0.03975666262153578 -0.0397566626215358 0 1 1014 
15 0.0519445829883836 -0.02151615076560328 0 1 1015 
16 0.0562244114740674 -1.377100910913207e-17 0 1 1016 
17 0.05035511068470676 0.02085776978040389 0 0 
18 0.03854013318789518 0.03854013318789518 0 0 
19 0.02085776978040389 0.05035511068470676 0 0 
20 3.337406174218036e-18 0.05450397904998679 0 0 
21 -0.02085776978040389 0.05035511068470676 0 0 
22 -0.03854013318789518 0.03854013318789518 0 0 
23 -0.05035511068470676 0.0208577697804039 0 0 
24 -0.05450397904998679 6.674812348436071e-18 0 0 
25 -0.05035511068470677 -0.02085776978040388 0 0 
26 -0.03854013318789518 -0.03854013318789518 0 0 
27 -0.02085776978040392 -0.05035511068470674 0 0 
28 -1.001221852265411e-17 -0.05450397904998679 0 0 
29 0.0208577697804039 -0.05035511068470675 0 0 
30 0.03854013318789517 -0.03854013318789518 0 0 
31 0.05035511068470674 -0.02085776978040392 0 0 
32 0.05450397904998679 -1.334962469687214e-17 0 0 
33 0.04039378585826918 0.01673165393808963 0 0 
34 0.03091606523692575 0.03091606523692574 0 0 
35 0.01673165393808963 0.04039378585826918 0 0 
36 2.677195392688745e-18 0.04372191875327176 0 0 
37 -0.01673165393808962 0.04039378585826918 0 0 
38 -0.03091606523692574 0.03091606523692575 0 0 
39 -0.04039378585826918 0.01673165393808963 0 0 
40 -0.04372191875327176 5.35439078537749e-18 0 0 
41 -0.04039378585826918 -0.01673165393808962 0 0 
42 -0.03091606523692575 -0.03091606523692574 0 0 
43 -0.01673165393808965 -0.04039378585826917 0 0 
44 -8.031586178066235e-18 -0.04372191875327176 0 0 
45 0.01673165393808964 -0.04039378585826917 0 0 
46 0.03091606523692574 -0.03091606523692575 0 0 
47 0.04039378585826917 -0.01673165393808965 0 0 
48 0.04372191875327176 -1.070878157075498e-17 0 0 
49 0.006984459904493888 0.002893058018292461 0 0 
50 0.005345674178936137 0.005345674178936136 0 0 
51 0.002893058018292461 0.006984459904493888 0 0 
52 4.629118929911445e-19 0.007559924923879143 0 0 
53 -0.00289305801829246 0.006984459904493888 0 0 
54 -0.005345674178936136 0.005345674178936137 0 0 
55 -0.006984459904493888 0.002893058018292461 0 0 
56 -0.007559924923879143 9.25823785982289e-19 0 0 
57 -0.006984459904493889 -0.00289305801829246 0 0 
58 -0.005345674178936138 -0.005345674178936136 0 0 
59 -0.002893058018292465 -0.006984459904493886 0 0 
60 -1.388735678973434e-18 -0.007559924923879143 0 0 
61 0.002893058018292462 -0.006984459904493887 0 0 
62 0.005345674178936135 -0.005345674178936138 0 0 
63 0.006984459904493886 -0.002893058018292465 0 0 
64 0.007559924923879143 -1.851647571964578e-18 0 0 
1000 0 0 0 0 
1 0.03975666262153578 0.02151615076560324 0 0.0519445829883836 0.03975666262153578 0 0 2 1 -2 
2 0.02151615076560325 0.03975666262153579 0 0.03975666262153579 0.05194458298838361 0 0 2 2 -3 
3 0 0.05194458298838361 0 0.02151615076560325 0.0562244114740674 0 0 2 3 -4 
4 -0.02151615076560324 0.0519445829883836 0 3.469446951953614e-18 0.05622441147406738 0 0 2 4 -5 
5 -0.03975666262153578 0.03975666262153578 0 -0.02151615076560324 0.0519445829883836 0 0 2 5 -6 
6 -0.05194458298838361 0.02151615076560325 0 -0.03975666262153579 0.03975666262153579 0 0 2 6 -7 
7 -0.0562244114740674 3.469446951953614e-18 0 -0.05194458298838361 0.02151615076560325 0 0 2 7 -8 
8 -0.05622441147406738 -0.02151615076560324 0 -0.0519445829883836 6.938893903907228e-18 0 0 2 8 -9 
9 -0.05194458298838361 -0.03975666262153578 0 -0.03975666262153579 -0.02151615076560324 0 0 2 9 -10 
10 -0.03975666262153581 -0.05194458298838362 0 -0.02151615076560329 -0.03975666262153579 0 0 2 10 -11 
11 -0.02151615076560327 -0.05622441147406738 0 -6.938893903907228e-18 -0.05194458298838359 0 0 2 11 -12 
12 -1.040834085586084e-17 -0.05622441147406738 0 0.02151615076560326 -0.05194458298838359 0 0 2 12 -13 
13 0.02151615076560326 -0.05194458298838359 0 0.03975666262153577 -0.03975666262153579 0 0 2 13 -14 
14 0.03975666262153577 -0.03975666262153581 0 0.0519445829883836 -0.0215161507656033 0 0 2 14 -15 
15 0.05194458298838359 -0.02151615076560328 0 0.05622441147406738 -1.040834085586084e-17 0 0 2 15 -16 
16 0.0519445829883836 -1.387778780781446e-17 0 0.05622441147406738 0.02151615076560325 0 0 2 16 -1 
17 0.0385401331878952 0.02085776978040387 0 0.05035511068470675 0.03854013318789515 0 0 2 17 -18 
18 0.02085776978040389 0.03854013318789518 0 0.03854013318789518 0.05035511068470676 0 0 2 18 -19 
19 -1.387778780781446e-17 0.05035511068470674 0 0.02085776978040389 0.05450397904998677 0 0 2 19 -20 
20 -0.02085776978040389 0.05035511068470676 0 3.469446951953614e-18 0.05450397904998679 0 0 2 20 -21 
21 -0.03854013318789518 0.03854013318789519 0 -0.02085776978040389 0.05035511068470677 0 0 2 21 -22 
22 -0.05035511068470676 0.02085776978040389 0 -0.03854013318789518 0.03854013318789518 0 0 2 22 -23 
23 -0.05450397904998679 -3.469446951953614e-18 0 -0.05035511068470675 0.0208577697804039 0 0 2 23 -24 
24 -0.05450397904998679 -0.02085776978040388 0 -0.05035511068470676 6.938893903907228e-18 0 0 2 24 -25 
25 -0.05035511068470677 -0.03854013318789518 0 -0.03854013318789518 -0.02085776978040388 0 0 2 25 -26 
26 -0.03854013318789518 -0.05035511068470674 0 -0.02085776978040392 -0.03854013318789518 0 0 2 26 -27 
27 -0.02085776978040391 -0.05450397904998677 0 0 -0.05035511068470673 0 0 2 27 -28 
28 -2.255140518769849e-17 -0.05450397904998679 0 0.02085776978040389 -0.05035511068470677 0 0 2 28 -29 
29 0.0208577697804039 -0.05035511068470673 0 0.03854013318789516 -0.03854013318789516 0 0 2 29 -30 
30 0.03854013318789516 -0.03854013318789518 0 0.05035511068470673 -0.02085776978040392 0 0 2 30 -31 
31 0.05035511068470674 -0.02085776978040392 0 0.05450397904998677 -3.469446951953614e-18 0 0 2 31 -32 
32 0.05035511068470676 -1.387778780781446e-17 0 0.05450397904998679 0.02085776978040389 0 0 2 32 -17 
33 0.03091606523692574 0.01673165393808962 0 0.04039378585826919 0.03091606523692576 0 0 2 33 -34 
34 0.01673165393808965 0.03091606523692574 0 0.03091606523692575 0.04039378585826917 0 0 2 34 -35 
35 1.734723475976807e-18 0.04039378585826919 0 0.01673165393808963 0.04372191875327178 0 0 2 35 -36 
36 -0.01673165393808963 0.04039378585826918 0 1.387778780781446e-17 0.04372191875327176 0 0 2 36 -37 
37 -0.03091606523692575 0.03091606523692574 0 -0.01673165393808961 0.04039378585826919 0 0 2 37 -38 
38 -0.04039378585826917 0.01673165393808965 0 -0.03091606523692574 0.03091606523692575 0 0 2 38 -39 
39 -0.04372191875327178 0 0 -0.04039378585826919 0.01673165393808963 0 0 2 39 -40 
40 -0.04372191875327176 -0.01673165393808959 0 -0.04039378585826919 1.561251128379126e-17 0 0 2 40 -41 
41 -0.04039378585826918 -0.03091606523692574 0 -0.03091606523692575 -0.01673165393808962 0 0 2 41 -42 
42 -0.03091606523692576 -0.04039378585826917 0 -0.01673165393808966 -0.03091606523692575 0 0 2 42 -43 
43 -0.01673165393808965 -0.04372191875327175 0 1.734723475976807e-18 -0.04039378585826916 0 0 2 43 -44 
44 -8.673617379884035e-18 -0.04372191875327176 0 0.01673165393808964 -0.04039378585826917 0 0 2 44 -45 
45 0.01673165393808964 -0.04039378585826917 0 0.03091606523692574 -0.03091606523692575 0 0 2 45 -46 
46 0.03091606523692574 -0.03091606523692575 0 0.04039378585826917 -0.01673165393808965 0 0 2 46 -47 
47 0.04039378585826916 -0.01673165393808965 0 0.04372191875327176 -5.204170427930421e-18 0 0 2 47 -48 
48 0.04039378585826919 -2.081668171172169e-17 0 0.04372191875327176 0.01673165393808962 0 0 2 48 -33 
49 0.00534567417893614 0.002893058018292459 0 0.006984459904493889 0.005345674178936133 0 0 2 49 -50 
50 0.00289305801829246 0.005345674178936135 0 0.005345674178936136 0.006984459904493887 0 0 2 50 -51 
51 4.336808689942018e-19 0.006984459904493888 0 0.00289305801829246 0.007559924923879143 0 0 2 51 -52 
52 -0.00289305801829246 0.006984459904493888 0 4.336808689942018e-19 0.007559924923879143 0 0 2 52 -53 
53 -0.005345674178936133 0.00534567417893614 0 -0.002893058018292459 0.006984459904493889 0 0 2 53 -54 
54 -0.006984459904493887 0.00289305801829246 0 -0.005345674178936135 0.005345674178936136 0 0 2 54 -55 
55 -0.007559924923879144 8.673617379884035e-19 0 -0.006984459904493889 0.002893058018292462 0 0 2 55 -56 
56 -0.007559924923879143 -0.00289305801829246 0 -0.006984459904493888 8.673617379884035e-19 0 0 2 56 -57 
57 -0.00698445990449389 -0.005345674178936137 0 -0.005345674178936138 -0.00289305801829246 0 0 2 57 -58 
58 -0.005345674178936137 -0.006984459904493886 0 -0.002893058018292465 -0.005345674178936135 0 0 2 58 -59 
59 -0.002893058018292464 -0.007559924923879142 0 -1.301042606982605e-18 -0.006984459904493885 0 0 2 59 -60 
60 -1.301042606982605e-18 -0.007559924923879143 0 0.002893058018292462 -0.006984459904493888 0 0 2 60 -61 
61 0.002893058018292462 -0.006984459904493886 0 0.005345674178936135 -0.005345674178936137 0 0 2 61 -62 
62 0.005345674178936135 -0.005345674178936138 0 0.006984459904493886 -0.002893058018292465 0 0 2 62 -63 
63 0.006984459904493886 -0.002893058018292465 0 0.007559924923879143 -2.168404344971009e-18 0 0 2 63 -64 
64 0.006984459904493888 -1.951563910473908e-18 0 0.007559924923879143 0.002893058018292461 0 0 2 64 -49 
6 -0.0562244114740674 -0.05622441147406738 0 0.05622441147406738 0.0562244114740674 0 1 201 32 1 2 3 4 5 6 7 8 9 10 11 12 13 14 15 16 -32 -31 -30 -29 -28 -27 -26 -25 -24 -23 -22 -21 -20 -19 -18 -17 
7 -0.05450397904998679 -0.05450397904998679 0 0.05450397904998679 0.05450397904998679 0 1 202 32 17 18 19 20 21 22 23 24 25 26 27 28 29 30 31 32 -48 -47 -46 -45 -44 -43 -42 -41 -40 -39 -38 -37 -36 -35 -34 -33 
8 -0.04372191875327178 -0.04372191875327176 0 0.04372191875327176 0.04372191875327178 0 1 203 32 33 34 35 36 37 38 39 40 41 42 43 44 45 46 47 48 -64 -63 -62 -61 -60 -59 -58 -57 -56 -55 -54 -53 -52 -51 -50 -49 
9 -0.007559924923879144 -0.007559924923879143 0 0.007559924923879144 0.007559924923879143 0 1 204 16 49 50 51 52 53 54 55 56 57 58 59 60 61 62 63 64 
$EndEntities
$Nodes
116 872 1 873
0 1 0 1
1
0.05194458298838361 0.02151615076560325 0
0 2 0 1
2
0.03975666262153579 0.03975666262153579 0
0 3 0 1
3
0.02151615076560325 0.05194458298838361 0
0 4 0 1
4
3.442752277283018e-18 0.0562244114740674 0
0 5 0 1
5
-0.02151615076560325 0.05194458298838361 0
0 6 0 1
6
-0.03975666262153579 0.03975666262153579 0
0 7 0 1
7
-0.05194458298838361 0.02151615076560326 0
0 8 0 1
8
-0.0562244114740674 6.885504554566036e-18 0
0 9 0 1
9
-0.05194458298838362 -0.02151615076560324 0
0 10 0 1
10
-0.0397566626215358 -0.03975666262153579 0
0 11 0 1
11
-0.02151615076560328 -0.0519445829883836 0
0 12 0 1
12
-1.032825683184905e-17 -0.0562244114740674 0
0 13 0 1
13
0.02151615076560326 -0.05194458298838361 0
0 14 0 1
14
0.03975666262153578 -0.0397566626215358 0
0 15 0 1
15
0.0519445829883836 -0.02151615076560328 0
0 16 0 1
16
0.0562244114740674 -1.377100910913207e-17 0
0 17 0 1
17
0.05035511068470676 0.02085776978040389 0
0 18 0 1
18
0.03854013318789518 0.03854013318789518 0
0 19 0 1
19
0.02085776978040389 0.05035511068470676 0
0 20 0 1
20
3.337406174218036e-18 0.05450397904998679 0
0 21 0 1
21
-0.02085776978040389 0.05035511068470676 0
0 22 0 1
22
-0.03854013318789518 0.03854013318789518 0
0 23 0 1
23
-0.05035511068470676 0.0208577697804039 0
0 24 0 1
24
-0.05450397904998679 6.674812348436071e-18 0
0 25 0 1
25
-0.05035511068470677 -0.02085776978040388 0
0 26 0 1
26
-0.03854013318789518 -0.03854013318789518 0
0 27 0 1
27
-0.02085776978040392 -0.05035511068470674 0
0 28 0 1
28
-1.001221852265411e-17 -0.05450397904998679 0
0 29 0 1
29
0.0208577697804039 -0.05035511068470675 0
0 30 0 1
30
0.03854013318789517 -0.03854013318789518 0
0 31 0 1
31
0.05035511068470674 -0.02085776978040392 0
0 32 0 1
32
0.05450397904998679 -1.334962469687214e-17 0
0 33 0 1
33
0.04039378585826918 0.01673165393808963 0
0 34 0 1
34
0.03091606523692575 0.03091606523692574 0
0 35 0 1
35
0.01673165393808963 0.04039378585826918 0
0 36 0 1
36
2.677195392688745e-18 0.04372191875327176 0
0 37 0 1
37
-0.01673165393808962 0.04039378585826918 0
0 38 0 1
38
-0.03091606523692574 0.03091606523692575 0
0 39 0 1
39
-0.04039378585826918 0.01673165393808963 0
0 40 0 1
40
-0.04372191875327176 5.35439078537749e-18 0
0 41 0 1
41
-0.04039378585826918 -0.01673165393808962 0
0 42 0 1
42
-0.03091606523692575 -0.03091606523692574 0
0 43 0 1
43
-0.01673165393808965 -0.04039378585826917 0
0 44 0 1
44
-8.031586178066235e-18 -0.04372191875327176 0
0 45 0 1
45
0.01673165393808964 -0.04039378585826917 0
0 46 0 1
46
0.03091606523692574 -0.03091606523692575 0
0 47 0 1
47
0.04039378585826917 -0.01673165393808965 0
0 48 0 1
48
0.04372191875327176 -1.070878157075498e-17 0
0 49 0 1
49
0.006984459904493888 0.002893058018292461 0
0 50 0 1
50
0.005345674178936137 0.005345674178936136 0
0 51 0 1
51
0.002893058018292461 0.006984459904493888 0
0 52 0 1
52
4.629118929911445e-19 0.007559924923879143 0
0 53 0 1
53
-0.00289305801829246 0.006984459904493888 0
0 54 0 1
54
-0.005345674178936136 0.005345674178936137 0
0 55 0 1
55
-0.006984459904493888 0.002893058018292461 0
0 56 0 1
56
-0.007559924923879143 9.25823785982289e-19 0
0 57 0 1
57
-0.006984459904493889 -0.00289305801829246 0
0 58 0 1
58
-0.005345674178936138 -0.005345674178936136 0
0 59 0 1
59
-0.002893058018292465 -0.006984459904493886 0
0 60 0 1
60
-1.388735678973434e-18 -0.007559924923879143 0
0 61 0 1
61
0.002893058018292462 -0.006984459904493887 0
0 62 0 1
62
0.005345674178936135 -0.005345674178936138 0
0 63 0 1
63
0.006984459904493886 -0.002893058018292465 0
0 64 0 1
64
0.007559924923879143 -1.851647571964578e-18 0
1 1 0 4
66
67
68
69
0.05009631743149793 0.02552534868337428 0
0.04793919141989306 0.02937717432994689 0
0.04548650436673471 0.03304787990325952 0
0.04275337788501019 0.03651483431465577 0
1 2 0 4
70
71
72
73
0.0365148342916911 0.04275337790462388 0
0.03304787985941276 0.04548650439859125 0
0.02937717427267942 0.04793919145498664 0
0.02552534864418774 0.05009631745146448 0
1 3 0 4
74
75
76
77
0.01737429863670482 0.05347259290971253 0
0.01312532817441376 0.05467092651418285 0
0.008795435713869405 0.05553219567249643 0
0.004411316473286075 0.05605109037813409 0
1 4 0 4
78
79
80
81
-0.004411316494561565 0.05605109037645967 0
-0.00879543575459852 0.05553219566604557 0
-0.01312532821693062 0.05467092650397545 0
-0.01737429865706786 0.05347259290309617 0
1 5 0 4
82
83
84
85
-0.02552534867994102 0.05009631743324726 0
-0.02937717432703793 0.04793919142167568 0
-0.03304787990316298 0.04548650436680485 0
-0.03651483431712937 0.04275337788289753 0
1 6 0 4
86
87
88
89
-0.04275337790462388 0.0365148342916911 0
-0.04548650439859125 0.03304787985941276 0
-0.04793919145498664 0.02937717427267942 0
-0.05009631745146448 0.02552534864418774 0
1 7 0 4
90
91
92
93
-0.05347259291181388 0.01737429863023751 0
-0.05467092651549729 0.01312532816893879 0
-0.05553219567402945 0.008795435704190373 0
-0.05605109037840027 0.004411316469904031 0
1 8 0 4
94
95
96
97
-0.05605109037639897 -0.004411316495332853 0
-0.05553219566575026 -0.008795435756463015 0
-0.0546709265042851 -0.01312532821564082 0
-0.05347259290395333 -0.01737429865442978 0
1 9 0 4
98
99
100
101
-0.05009631743523328 -0.02552534867604327 0
-0.04793919142313573 -0.02937717432465537 0
-0.0454865043646782 -0.03304787990609008 0
-0.04275337788003248 -0.03651483432048393 0
1 10 0 4
102
103
104
105
-0.03651483430091557 -0.04275337789674546 0
-0.03304787987577482 -0.04548650438670356 0
-0.02937717427392627 -0.0479391914542226 0
-0.02552534864342679 -0.05009631745185222 0
1 11 0 4
106
107
108
109
-0.01737429863596078 -0.05347259290995426 0
-0.01312532817336794 -0.05467092651443392 0
-0.00879543571089637 -0.05553219567296731 0
-0.004411316473609893 -0.0560510903781086 0
1 12 0 4
110
111
112
113
0.004411316495464774 -0.05605109037638858 0
0.008795435756974571 -0.05553219566566923 0
0.01312532822015999 -0.05467092650320014 0
0.01737429865542327 -0.05347259290363052 0
1 13 0 4
114
115
116
117
0.02552534866415156 -0.05009631744129239 0
0.029377174302733 -0.04793919143656977 0
0.03304787988786551 -0.04548650437791911 0
0.03651483430224577 -0.04275337789560932 0
1 14 0 4
118
119
120
121
0.04275337790835344 -0.03651483428732434 0
0.0454865043978409 -0.03304787986044555 0
0.04793919145084041 -0.02937717427944547 0
0.05009631744610551 -0.02552534865470532 0
1 15 0 4
122
123
124
125
0.05347259290966699 -0.01737429863684497 0
0.05467092651529783 -0.01312532816976951 0
0.05553219567384378 -0.008795435705362514 0
0.05605109037852859 -0.004411316468273432 0
1 16 0 4
126
127
128
129
0.05605109037660821 0.004411316492674074 0
0.05553219566670799 0.008795435750416098 0
0.05467092650496824 0.01312532821279531 0
0.0534725929044504 0.01737429865289997 0
1 17 0 4
130
131
132
133
0.04856340091761642 0.02474428870661368 0
0.04647228163482198 0.02847825085807035 0
0.04409464528799306 0.03203663511056472 0
0.04144515081848992 0.03539750282031236 0
1 18 0 4
134
135
136
137
0.03539750280641361 0.04144515083036059 0
0.03203663505500965 0.04409464532835621 0
0.02847825079673544 0.04647228167240808 0
0.02474428867950955 0.04856340093142669 0
1 19 0 4
138
139
140
141
0.01684265577133445 0.05183636444475762 0
0.01272370118996482 0.05299802977762368 0
0.008526300776580967 0.0538329446282541 0
0.004276332892541475 0.05433596147371983 0
1 20 0 4
142
143
144
145
-0.004276332922379848 0.05433596147137151 0
-0.0085263008299149 0.05383294461980685 0
-0.01272370124775135 0.05299802976375036 0
-0.01684265580181475 0.05183636443485398 0
1 21 0 4
146
147
148
149
-0.02474428869753618 0.04856340092224166 0
-0.0284782508547657 0.04647228163684711 0
-0.03203663510678439 0.04409464529073967 0
-0.03539750283256892 0.04144515080802186 0
1 22 0 4
150
151
152
153
-0.04144515083036059 0.03539750280641361 0
-0.04409464532835621 0.03203663505500965 0
-0.04647228167240808 0.02847825079673544 0
-0.04856340093142669 0.02474428867950955 0
1 23 0 4
154
155
156
157
-0.05183636444360995 0.01684265577486663 0
-0.05299802977633833 0.01272370119531866 0
-0.05383294462776396 0.008526300779675658 0
-0.05433596147393468 0.004276332889811626 0
1 24 0 4
158
159
160
161
-0.05433596147138917 -0.004276332922155509 0
-0.05383294461985046 -0.008526300829639533 0
-0.05299802976427815 -0.01272370124555296 0
-0.05183636443674127 -0.01684265579600625 0
1 25 0 4
162
163
164
165
-0.04856340092450032 -0.0247442886931033 0
-0.04647228164351849 -0.02847825084387896 0
-0.04409464529606098 -0.03203663509946022 0
-0.04144515080917678 -0.03539750283121666 0
1 26 0 4
166
167
168
169
-0.03539750281055538 -0.04144515082682318 0
-0.03203663506024854 -0.04409464532454993 0
-0.02847825081184713 -0.04647228166314762 0
-0.02474428868171371 -0.04856340093030361 0
1 27 0 4
170
171
172
173
-0.0168426557753313 -0.05183636444345896 0
-0.01272370119487917 -0.05299802977644383 0
-0.00852630077473125 -0.05383294462854706 0
-0.004276332888202582 -0.05433596147406129 0
1 28 0 4
174
175
176
177
0.004276332927711999 -0.05433596147095186 0
0.0085263008312333 -0.05383294461959803 0
0.01272370125946771 -0.05299802976093751 0
0.01684265579452161 -0.05183636443722366 0
1 29 0 4
178
179
180
181
0.02474428869161283 -0.04856340092525973 0
0.0284782508358509 -0.04647228164843807 0
0.03203663508907572 -0.04409464530360573 0
0.03539750282133055 -0.04144515081762029 0
1 30 0 4
182
183
184
185
0.0414451508270966 -0.03539750281023524 0
0.04409464532285787 -0.03203663506257743 0
0.04647228166592253 -0.02847825080731888 0
0.04856340092991697 -0.02474428868247251 0
1 31 0 4
186
187
188
189
0.0518363644436893 -0.01684265577462241 0
0.05299802977550178 -0.01272370119880314 0
0.05383294462792006 -0.008526300778690023 0
0.05433596147342525 -0.004276332896284464 0
1 32 0 4
190
191
192
193
0.05433596147168766 0.004276332918362672 0
0.0538329446211743 0.008526300821281117 0
0.05299802976664302 0.01272370123570259 0
0.05183636443720418 0.01684265579458159 0
1 33 0 3
194
195
196
0.03855928985749817 0.02061036984513224 0
0.03635344681325002 0.02429059662223016 0
0.0337975002244338 0.02773689164356911 0
1 34 0 3
197
198
199
0.02773689160975177 0.03379750025218698 0
0.02429059655296788 0.0363534468595296 0
0.02061036981127975 0.03855928987559269 0
1 35 0 3
200
201
202
0.012691803064617 0.04183926761353115 0
0.008529723183359705 0.04288181434924313 0
0.004285497431882977 0.043511385765441 0
1 36 0 3
203
204
205
-0.004285497466339508 0.04351138576204733 0
-0.008529723250559999 0.04288181433587615 0
-0.01269180309984394 0.04183926760284516 0
1 37 0 3
206
207
208
-0.0206103698475671 0.03855928985619671 0
-0.02429059662651792 0.03635344681038503 0
-0.02773689164615125 0.0337975002223147 0
1 38 0 3
209
210
211
-0.03379750025218698 0.02773689160975177 0
-0.0363534468595296 0.02429059655296788 0
-0.03855928987559269 0.02061036981127975 0
1 39 0 3
212
213
214
-0.04183926761391386 0.01269180306335536 0
-0.04288181434922592 0.008529723183446188 0
-0.04351138576550455 0.004285497431237816 0
1 40 0 3
215
216
217
-0.04351138576221914 -0.004285497464595031 0
-0.04288181433759497 -0.008529723241918885 0
-0.04183926760723258 -0.01269180308538057 0
1 41 0 3
218
219
220
-0.0385592898621856 -0.02061036983636265 0
-0.03635344681982836 -0.02429059661238497 0
-0.0337975002334579 -0.02773689163257321 0
1 42 0 3
221
222
223
-0.02773689161986691 -0.0337975002438857 0
-0.02429059657016661 -0.03635344684803779 0
-0.02061036982496595 -0.03855928986827728 0
1 43 0 3
224
225
226
-0.01269180306790684 -0.04183926761253316 0
-0.008529723193730937 -0.04288181434718014 0
-0.00428549743238363 -0.04351138576539168 0
1 44 0 3
227
228
229
0.004285497454949654 -0.04351138576316913 0
0.008529723232465321 -0.0428818143394754 0
0.01269180309000165 -0.04183926760583079 0
1 45 0 3
230
231
232
0.02061036983284888 -0.03855928986406375 0
0.02429059660331116 -0.03635344682589128 0
0.02773689163099383 -0.03379750023475407 0
1 46 0 3
233
234
235
0.03379750024890336 -0.02773689161375286 0
0.03635344684935244 -0.02429059656819907 0
0.03855928987413218 -0.02061036981401218 0
1 47 0 3
236
237
238
0.04183926761192382 -0.01269180306991559 0
0.042881814347328 -0.008529723192987606 0
0.04351138576519387 -0.004285497434391954 0
1 48 0 3
239
240
241
0.04351138576204733 0.0042854974663395 0
0.04288181433587615 0.008529723250559992 0
0.04183926760284516 0.01269180309984393 0
2 6 0 0
2 7 0 144
242
243
244
245
246
247
248
249
250
251
252
253
254
255
256
257
258
259
260
261
262
263
264
265
266
267
268
269
270
271
272
273
274
275
276
277
278
279
280
281
282
283
284
285
286
287
288
289
290
291
292
293
294
295
296
297
298
299
300
301
302
303
304
305
306
307
308
309
310
311
312
313
314
315
316
317
318
319
320
321
322
323
324
325
326
327
328
329
330
331
332
333
334
335
336
337
338
339
340
341
342
343
344
345
346
347
348
349
350
351
352
353
354
355
356
357
358
359
360
361
362
363
364
365
366
367
368
369
370
371
372
373
374
375
376
377
378
379
380
381
382
383
384
385
0.03713974756595161 0.03464025493778916 0
-0.0346402549416009 0.03713974756099708 0
0.0177906564635257 -0.04756890427509456 0
-0.01779065646621879 0.04756890427172947 0
-0.001767408179668647 -0.05075612652532052 0
-0.04621618861224935 0.02105640095810558 0
0.02105640095804441 0.04621618861226352 0
-0.05075612652441941 0.001767408180192649 0
0.001767408181031412 0.05075612652292757 0
0.04756890426873081 0.01779065646181908 0
0.04621618860826981 -0.02105640095845766 0
0.0507561265207218 -0.001767408182647144 0
-0.04756890427138381 -0.01779065646242323 0
-0.03713974756070433 -0.03464025493851926 0
0.03464025493195209 -0.03713974756124512 0
-0.02105640095802586 -0.046216188607063 0
0.0379652342175802 0.02807577126987553 0
-0.04046729657620564 0.02433117032622781 0
0.02433117032622781 0.04046729657620564 0
-0.02807577127160202 0.03796523421643744 0
-0.04581943535827072 -0.01140996428720301 0
0.01140996428941608 -0.04581943535836922 0
-0.01140996429528528 0.04581943535768904 0
-0.03796523422325723 -0.02807577126093612 0
0.04581943535917832 0.01140996429174653 0
-0.0243311703379443 -0.04046729656876777 0
0.04046729657273399 -0.02433117033401492 0
0.02807577125574518 -0.03796523422840391 0
0.006992906319255168 0.04669804281638899 0
-0.04669804281683061 0.006992906319973249 0
0.0466980428157308 -0.006992906323759611 0
-0.006992906321470328 -0.04669804281633558 0
-0.03168257883092376 -0.03986276130797749 0
0.02470399126388595 -0.04452570444047388 0
0.04895278729357209 -0.01401606779576943 0
0.03986276130934278 -0.03168257882966181 0
0.01401606779132802 0.04895278729467625 0
-0.04452570443778079 -0.02470399126806601 0
-0.01401606779465322 -0.04895278729499401 0
-0.04895278729426406 0.01401606779378478 0
0.005784262506863985 -0.05059019517214701 0
-0.05059019517272976 -0.005784262504706717 0
0.05059019517519457 0.005784262502664797 0
-0.02470399127548538 0.04452570443285329 0
-0.005784262507015202 0.05059019517347738 0
0.04452570443132781 0.02470399127857732 0
0.03168257882368886 0.03986276131229487 0
-0.03986276131202049 0.03168257882343843 0
0.01601591886474041 0.04467741460551505 0
0.04467741460367414 -0.01601591886722614 0
0.04291666766747905 0.02026673800168454 0
-0.04467741460605423 0.01601591886450958 0
0.02026673799421379 -0.042916667670602 0
0.002300526736700753 -0.04740557572496792 0
-0.03189408600734924 -0.03514752211858304 0
-0.02026673800309989 0.04291666766806954 0
-0.04291666767186765 -0.02026673799715727 0
-0.01601591886802061 -0.04467741460824454 0
-0.03514752212163623 0.03189408600042767 0
-0.04740557572602986 -0.00230052674078241 0
0.0351475221206087 -0.03189408600428257 0
0.03189408600140406 0.03514752212226911 0
-0.002300526742104546 0.04740557572792678 0
0.04740557572871859 0.002300526741711474 0
0.04230879397022484 0.02832686074753094 0
0.009979732363599034 -0.04992844909540821 0
-0.02832686074597127 0.04230879397074581 0
-0.04230879397696526 -0.02832686073735369 0
-0.04236148135824584 0.02824800850110711 0
0.02824800850113692 0.0423614813582785 0
-0.04992844909661831 -0.009979732358336097 0
0.009886719803367474 0.04994695044441379 0
-0.009886719804839022 -0.04994695044404896 0
0.04994695044398925 -0.009886719808257531 0
0.02832686073100599 -0.04230879398405239 0
-0.009979732362028862 0.04992844909672039 0
0.04236148135490678 -0.0282480085100385 0
-0.04994695044425935 0.009886719806035556 0
-0.02824800851179806 -0.04236148135273907 0
0.04992844909995293 0.009979732354739927 0
-0.03799833474663745 0.02803055530232011 0
0.02803055530252955 0.03799833474679411 0
0.04668947591016132 0.007048284434627036 0
-0.02437905462837393 0.04043818949244796 0
-0.04668947590891046 -0.007048284432923692 0
-0.02803055531300815 -0.03799833473999847 0
-0.00704828443722223 0.04668947590895618 0
-0.04043818949864748 -0.02437905461871012 0
0.04043818949289334 0.02437905462750512 0
0.03799833474264134 -0.02803055530999162 0
0.02437905461350182 -0.04043818950224786 0
0.01135552317111129 0.04583271285396139 0
-0.04583271285409133 0.01135552317185078 0
0.007048284430665804 -0.04668947590892281 0
0.04583271285270302 -0.01135552317631932 0
-0.01135552317510349 -0.04583271285388939 0
0.03961784779868271 0.03166262912879511 0
0.02448535511133662 0.044413548974912 0
-0.0444135489749042 0.02448535511134185 0
0.01409136101791254 -0.04871888229622118 0
-0.03166262913108956 0.03961784779626298 0
-0.04871888229579672 -0.01409136101378527 0
-0.03961784780000486 -0.03166262912428437 0
-0.0140913610191699 0.04871888229542771 0
-0.02448535511876082 -0.04441354896862319 0
0.00562518906844162 0.05040290860099761 0
-0.005625189067860137 -0.05040290860179059 0
-0.0504029086014978 0.00562518906888123 0
0.0444135489711359 -0.02448535511644961 0
0.03166262911730289 -0.03961784780442476 0
0.05040290859996151 -0.005625189071458831 0
0.04871888229598964 0.01409136101320399 0
0.03475351493185666 0.03149874988669799 0
-0.03149874988800989 0.03475351493063606 0
-0.01580145594192037 0.04416211084782306 0
-0.04240064469888964 0.02005401140636559 0
0.02005401140636558 0.04240064469888962 0
0.01580145593694512 -0.04416211085029395 0
-0.002301466438248989 -0.04684742572243007 0
-0.04684742572177881 0.002301466437598651 0
0.04416211084422862 0.01580145594063426 0
0.002301466437873228 0.04684742572028141 0
-0.04416211084748809 -0.01580145593319009 0
-0.03475351493386462 -0.03149874987822029 0
0.04240064469506536 -0.02005401140639521 0
0.04684742571798196 -0.002301466439114215 0
-0.02005401141123585 -0.04240064468971808 0
0.03149874987470785 -0.03475351493162115 0
0.002118742798321616 -0.05151836758867482 0
-0.03792716447870268 0.0349308096758344 0
-0.02167268884454883 0.04678595759592014 0
0.02167268883872843 -0.04678595759922739 0
-0.051518367588911 -0.002118742797490396 0
0.04678595759397217 0.0216726888458197 0
0.01775776263317023 0.04840757312838384 0
0.04840757312678241 -0.01775776263529591 0
-0.04840757312817687 0.0177577626343341 0
-0.03493080967948558 -0.03792716447595963 0
-0.002118742798093636 0.051518367589138 0
-0.04678595759804787 -0.02167268884023074 0
0.05151836758926187 0.002118742796018357 0
0.03493080967707066 0.03792716447812178 0
0.03792716447537906 -0.03493080967866399 0
-0.01775776263528698 -0.04840757312769345 0
2 8 0 463
386
387
388
389
390
391
392
393
394
395
396
397
398
399
400
401
402
403
404
405
406
407
408
409
410
411
412
413
414
415
416
417
418
419
420
421
422
423
424
425
426
427
428
429
430
431
432
433
434
435
436
437
438
439
440
441
442
443
444
445
446
447
448
449
450
451
452
453
454
455
456
457
458
459
460
461
462
463
464
465
466
467
468
469
470
471
472
473
474
475
476
477
478
479
480
481
482
483
484
485
486
487
488
489
490
491
492
493
494
495
496
497
498
499
500
501
502
503
504
505
506
507
508
509
510
511
512
513
514
515
516
517
518
519
520
521
522
523
524
525
526
527
528
529
530
531
532
533
534
535
536
537
538
539
540
541
542
543
544
545
546
547
548
549
550
551
552
553
554
555
556
557
558
559
560
561
562
563
564
565
566
567
568
569
570
571
572
573
574
575
576
577
578
579
580
581
582
583
584
585
586
587
588
589
590
591
592
593
594
595
596
597
598
599
600
601
602
603
604
605
606
607
608
609
610
611
612
613
614
615
616
617
618
619
620
621
622
623
624
625
626
627
628
629
630
631
632
633
634
635
636
637
638
639
640
641
642
643
644
645
646
647
648
649
650
651
652
653
654
655
656
657
658
659
660
661
662
663
664
665
666
667
668
669
670
671
672
673
674
675
676
677
678
679
680
681
682
683
684
685
686
687
688
689
690
691
692
693
694
695
696
697
698
699
700
701
702
703
704
705
706
707
708
709
710
711
712
713
714
715
716
717
718
719
720
721
722
723
724
725
726
727
728
729
730
731
732
733
734
735
736
737
738
739
740
741
742
743
744
745
746
747
748
749
750
751
752
753
754
755
756
757
758
759
760
761
762
763
764
765
766
767
768
769
770
771
772
773
774
775
776
777
778
779
780
781
782
783
784
785
786
787
788
789
790
791
792
793
794
795
796
797
798
799
800
801
802
803
804
805
806
807
808
809
810
811
812
813
814
815
816
817
818
819
820
821
822
823
824
825
826
827
828
829
830
831
832
833
834
835
836
837
838
839
840
841
842
843
844
845
846
847
848
0.005538596168306625 0.00828909494256469 0
-0.008249364687484382 0.005655747589174981 0
-0.009906029287848676 -0.001615467997724709 0
-0.005538596168306626 -0.008289094942564688 0
0.009916071215173917 0.002280267165414793 0
-0.001386757109940722 0.009941544454590527 0
0.005538596168306623 -0.008289094942564688 0
0.03596008599559272 -0.01755551641780513 0
-0.002218802671849771 -0.03975337893243985 0
-0.02384493162174556 0.03238041419079365 0
-0.03209089449022431 -0.02380022944796615 0
0.03251226393904492 0.02374954964571763 0
-0.03952099273814491 0.005862385467583756 0
0.005677837863352411 0.03952149694686181 0
0.01351351495784771 -0.03764845037822587 0
0.0400312262615509 -0.001581336400510733 0
-0.01664197464704357 -0.03595516083228942 0
0.02744862479091861 -0.02970317465921353 0
0.02069860414957371 0.03417731843007957 0
-0.03496340974291679 0.0201350322865479 0
-0.03845048310605795 -0.009168785599406683 0
-0.009699556306401807 0.03912897269650205 0
0.03900560259073432 0.009391926935278547 0
-0.03613156553116319 -0.01713828250600298 0
0.0133840664625806 0.03738876149723407 0
-0.03783299613178213 0.01401727353967216 0
-0.01727534516452895 0.03555867131156655 0
0.02076287635323451 -0.03429878889104085 0
-0.0239325984564458 -0.03222584928208169 0
0.005994723398364517 -0.03972869711709989 0
0.03861297631414494 -0.009645268811561929 0
-0.02965805974389556 0.02698009225793353 0
0.02708393422589874 0.02983282067279747 0
-0.03979690551506786 -0.002275647413813361 0
-0.002006884704338104 0.04014559738927592 0
-0.009635170220412928 -0.03843624333561191 0
0.03205087919887364 -0.02375370471676928 0
0.03606329157562242 0.01722796580445591 0
-0.009883064328499292 0.002027141893274473 0
-0.01150273489422532 0.004909940589457279 0
-0.01053850345027142 0.007785925087708374 0
-0.01359101393969641 0.00717392071030092 0
-0.01262739003509686 0.01020543530702711 0
-0.01584518413185677 0.009491791861074506 0
-0.01674074379988113 0.006461645963157567 0
-0.01479891650656636 0.01263766753013568 0
-0.01909612995189479 0.008834370008068502 0
-0.02014501361414292 0.0054856803766926 0
-0.01155685015853347 0.01334025523639956 0
-0.01378010738375886 0.01586590383499708 0
-0.01042031297651501 0.01656985649938355 0
-0.01275042264394372 0.01917390927177774 0
-0.009275667817634611 0.01988430654203985 0
-0.02252003678146424 0.008075402817974614 0
-0.02357611587232427 0.004650369508905308 0
-0.02098564845767276 0.002320022607564151 0
-0.02457736713672854 0.001261659478822685 0
-0.02154685925179081 -0.001484620845919089 0
-0.01599345180149742 0.01870844350624242 0
-0.02552202930303958 -0.002252626428789433 0
-0.0230983015709246 -0.004854603391170781 0
-0.01167113736791843 0.02256024234291479 0
-0.008149192766581987 0.02327143211630724 0
-0.005762840567700531 0.02057113200822615 0
-0.004607140340753655 0.02396866199637828 0
-0.002176750892315798 0.02122463135705966 0
-0.001068403237602255 0.02464227802511935 0
0.001409725175520415 0.02187726242623223 0
0.002480587076996396 0.02533502019094826 0
0.004922000681578651 0.02257408129792849 0
0.006075908123280719 0.02605519510816379 0
0.008473560505832365 0.02327696788776007 0
0.007306681561163465 0.01983758286044289 0
0.01085971488290448 0.02049876081750069 0
-0.02664840093057225 -0.005743865086982739 0
-0.02409428906636346 -0.008390671998208204 0
-0.02060331529993109 -0.007566633820676323 0
-0.02152781615288587 -0.0110178821766943 0
-0.01810587205671722 -0.01020931775762502 0
-0.01901470690665948 -0.01360919097304781 0
-0.0156988291926651 -0.012885902038184 0
-0.01652745296842824 -0.01618787337744683 0
-0.01322785400862079 -0.01546673950303018 0
-0.01404398634922559 -0.01875201913243268 0
-0.01060570459193445 -0.01787169573944329 0
-0.01151416275850176 -0.02128472952010461 0
-0.008047689139005498 -0.02040488012946389 0
-0.008991255919611082 -0.02389912481641522 0
-0.005465290340173391 -0.02298978419028227 0
-0.004603165380045808 -0.01976600049938327 0
-0.001930920921222579 -0.0222010882857424 0
-0.002891466298389576 -0.02562368687575369 0
0.0006543854101142776 -0.02462547028797262 0
0.001600080509640838 -0.02123501476782021 0
0.004158884301950523 -0.02367018813542601 0
0.005055463011874548 -0.0201903559889549 0
0.007634149542814462 -0.02267116417474422 0
0.008521655667507903 -0.01921379294310428 0
0.01110006736672018 -0.02172251141074065 0
0.0120206104621499 -0.0182060978209012 0
0.01458097968825215 -0.02071994023692576 0
0.01551997743234025 -0.01719616098074513 0
-0.01749013191661204 -0.0196086223601674 0
0.01811838684447201 -0.0197515175703233 0
0.0190386990532786 -0.01622280457254859 0
0.01643449802021232 -0.01365582640314823 0
0.01991004449515955 -0.01267908768742365 0
0.01731617564245725 -0.01016384936321167 0
0.02076543269612335 -0.009179553968916232 0
0.0182059876970807 -0.006731212979845945 0
0.02162159298697094 -0.005721810743054098 0
0.01907642989947967 -0.003281522032471493 0
0.02247048723898446 -0.002271664141938857 0
0.01992479513191703 0.0002080152862620845 0
0.02335944786008439 0.001193500710178507 0
0.02076364577567888 0.003707956500015591 0
0.02426090006414341 0.004710176759230374 0
0.02161477123253936 0.00726105172892629 0
0.0242189932423884 -0.008184848868784778 0
0.02595743503460495 -0.001359370514659055 0
0.02518075414233595 0.008291452298434934 0
0.02249236776412075 0.0108780993636858 0
0.01902950284032309 0.009782433944586456 0
0.02260167174369473 -0.01520975174049425 0
0.006747375949380512 -0.02621190095606498 0
0.01207722527588947 0.02395905102175504 0
0.01449375079862078 0.02111983192517151 0
-0.02606260481904387 0.007259456771063062 0
-0.02494575734961592 0.01079878997177537 0
-0.0225138656753558 -0.01456456167578887 0
-0.003396376714108429 0.02739464183192027 0
-0.01255849048296686 -0.02481930246229817 0
0.027858938918001 0.0056806711280431 0
-0.02809202453906703 0.0004463916269029276 0
0.009521167386369812 0.01696467641356939 0
-0.01055662873961498 0.02603971331756701 0
0.01357526296114848 -0.02412920214655741 0
0.002512246919395788 -0.01764295089178746 0
-0.0002702108028958324 -0.02822874819087579 0
-0.014185183535338 0.02527769752617065 0
0.02612030761502931 0.01194234174911808 0
0.02336555711282527 0.01454986425456661 0
-0.02771709280861039 -0.009314600776913984 0
0.003647235688366483 0.02887066391536931 0
-0.01000317055666002 -0.02750917452097416 0
0.01440672645190906 -0.007663368131978849 0
0.006149719322680982 0.01646829903178883 0
0.01576586792714156 0.02465417505893961 0
-0.01242580587529117 2.299170866064276e-18 0
-0.01417898770571945 -0.00972957992593995 0
0.007303354428657463 0.02962578643792607 0
0.009451162147328459 -0.01574499044864524 0
0.01818648438814346 0.02194614595422778 0
-0.03034292091970744 -0.006591966451214637 0
-0.003497813853935715 0.01789864865797295 0
-0.02860070343292991 0.009963927679375661 0
-0.02746611095606804 0.01354740158408075 0
0.02706145926407537 0.01565566779175531 0
-0.02376972974887374 0.01436103405593436 0
-0.02630146122154169 0.01716020919235337 0
0.01768460851666779 0.002748818217614885 0
0.01721045131935249 0.01842812545817427 0
-0.0104367684577916 -0.0144415055795256 0
-0.008225439591317878 0.01398014522684593 0
-0.01364968987799476 -0.028453720331118 0
0.008166676042932659 0.00678789748952183 0
0.008204112928770092 0.009720904373594812 0
0.01088240101016533 0.00799054304805193 0
0.002002922856042594 0.009876802833788539 0
-0.0002514112353930142 0.01219300424795676 0
-0.007879112467845485 -0.006501325530630289 0
-0.002296713124097338 -0.009773457611248603 0
0.01019281327001242 -0.0009192321691205739 0
0.003180541272153957 -0.009861620967766237 0
0.008149347158035468 -0.005861964760982235 0
0.008833153680524499 -0.008897633392642929 0
-0.0130488709538876 0.0288669459119091 0
0.02976313954228051 0.01310178066552102 0
0.0195340899206185 0.02539900541135636 0
0.02202872774718602 0.02238445533591576 0
-0.03144123697653507 -0.01026670703329623 0
0.01108598801023585 0.01116709839900863 0
-0.01276974955768633 -0.003062657043607359 0
-0.01679553385695159 0.02806654035310511 0
-0.02874431729665844 -0.01306035218684582 0
-0.005614096076333671 0.008225503219152597 0
-0.01781348802948918 0.02450171937421138 0
-0.01535168532762557 -0.001323656300435973 0
-0.003879048314097215 -0.02921599856022691 0
-0.001218480369343846 -0.03192591687300379 0
0.002421624766331474 -0.03088400148409488 0
-0.009304267653906838 0.02962131910171026 0
0.01330855850619241 0.02752906078169418 0
-0.0162749704470912 -0.02568614227739632 0
-0.029638117722724 0.00642609293675761 0
-0.004891831338614958 -0.01139415445675177 0
-0.002012892488980234 -0.01297243289868628 0
-0.01096516597871583 -0.03120870678103987 0
-0.004921767874195208 -0.0329251900883465 0
-0.02267313609415157 0.0179818778305066 0
-0.02512576394454203 0.02079282011372821 0
0.004842115415868981 0.03246022298840889 0
0.001180099105015205 0.03167446588187314 0
0.006425898998170174 -0.01101499993949072 0
-0.01730474763406015 -0.0292889856726294 0
-0.02056603684920006 -0.02676427134833772 0
-0.03225297924606504 0.009110048233379828 0
-0.01183184684408826 0.03244200291361295 0
0.005293252257583315 0.0113398612376488 0
-0.003118695976062397 0.01230211074756025 0
-0.008121265557652921 0.03312304229468777 0
0.001508979187624116 -0.03459057867412516 0
0.004947731610118898 -0.03337214182000102 0
-0.03340462807080567 0.005804105782138955 0
0.008558279717797927 0.0329906692313621 0
-0.01539267496928274 -0.004037328239464785 0
-0.02034901329827521 0.0149804503312439 0
-0.008246748642418008 -0.009688333049337375 0
-0.0205860283259929 0.02723525588522862 0
-0.02988504329940193 0.0163028039732477 0
0.01294301455905079 0.0007342029020867117 0
0.01319644609830633 -0.00235867864434986 0
0.003658382872453411 -0.01271983155015652 0
0.01384716477789085 0.009765444146094725 0
0.01396918561787266 0.01268080826243273 0
0.01340705057762331 0.006601341118027616 0
0.00258118370724278 0.03598013394527623 0
-0.001319591982356346 0.03450081300656421 0
-0.004570237520566818 -0.01450365931630714 0
-0.01500437012000753 0.001590851484128953 0
-0.0015383193726856 -0.01608068992931803 0
0.03148139190494922 0.01730702834046313 0
0.02818519860624506 0.01949199353950149 0
-0.03421234518426391 -0.007580897779515078 0
-0.03299195747528276 -0.003689242780005723 0
0.01001107938580156 -0.01213287404131541 0
0.00807423501353411 0.01344327059238802 0
0.02332271917381867 0.02602651678483808 0
0.0209378349038565 0.0295607175113519 0
-0.01079281032519542 -0.007990269506411886 0
-0.01961761939637092 0.03108350851792161 0
-0.01799568417944052 -0.00301734914430305 0
-0.03317594825159191 -0.01431788654588229 0
-0.02976619505691349 -0.0168699994218531 0
0.01121405714333524 -0.006752711791972524 0
-0.02166265106171553 0.0213375781410918 0
-0.02372378449031084 0.02464189816724728 0
-0.01068753439166381 -0.01118118272857018 0
0.003843597638596615 0.01915838834157842 0
0.002803531886880416 0.01609039486955776 0
0.0002695449613746295 0.01853428594132515 0
0.005953398241078624 -0.01685912223002821 0
0.01376652568955272 -0.0112769310735973 0
0.01286730885623087 -0.01470214679472542 0
0.01619854914957977 -0.0005941836669340642 0
-0.007088562185863642 0.01726316233075346 0
0.01843829301946213 0.00616865049483332 0
-0.03611330255468029 0.008213762922518502 0
0.01978168227632651 0.01340315817679234 0
0.02053475744781524 0.01683354553286658 0
-0.009534444600225744 0.01089900951816415 0
-0.006237820814569895 0.01136982751869574 0
0.02576966059095922 0.02276456221948582 0
-0.007240397198444838 -0.01691644252902596 0
0.02391450658145706 0.01880841193026314 0
0.001148957455786528 -0.01439298277669762 0
-0.02145201451971545 0.01148926541996421 0
0.01311455418514048 0.01780870958471278 0
0.01568896051349075 -0.004427644732800967 0
0.02176853797579563 -0.0189914428288223 0
0.02055014347835106 -0.02267458392976403 0
0.02543256904677589 -0.01799694302440578 0
0.0262472118187134 -0.0140670194010315 0
0.02908393382805972 -0.01674573434585851 0
0.02998116214747526 -0.01290707827884901 0
0.02852476960804439 -0.0208794883593152 0
0.03199913587516216 -0.01941692902529035 0
0.02709548544836283 -0.02555709827629377 0
-0.0009335140055039947 0.01497319936694187 0
0.02435660806944445 -0.02199693836632407 0
0.0225898857371434 -0.0257070222007379 0
0.0189576831963774 -0.0261007660349297 0
0.02071133955654713 -0.02973941976521072 0
0.01625356534059081 -0.02953877593964869 0
-0.03689932794173487 -0.004903382982146723 0
-0.03596740998174327 -0.001054150611276507 0
-0.02607791471447862 -0.01578656303050378 0
-0.02698050064612255 -0.0195786561053932 0
-0.02338569221669668 -0.01827348109336304 0
-0.02429324926961198 -0.02199220516487732 0
-0.02799259767145352 -0.02331374082340778 0
-0.02488714499738991 -0.02612273073797801 0
0.01058223715017781 0.005053658893893016 0
-0.03908590522345114 0.002058161332741747 0
-0.02511254928572543 -0.01202243864082583 0
0.009692800498552024 0.02678726471076328 0
-0.002219012619811563 -0.03564949936886042 0
-0.005578722857881292 -0.03683859295027473 0
-0.006435509054590829 -0.02654759671994511 0
-0.03199057992501773 -0.000294537194365337 0
0.0234863109362473 -0.01163040243716462 0
-0.006944608429155227 0.02678736531473172 0
0.02876036956001394 0.009301032915691019 0
0.03151633979206785 0.006632918578985819 0
0.03060209361392673 0.002972575644289839 0
0.03436161606819397 0.003960929280134274 0
0.0333834212275632 0.000179834148290116 0
0.03713722848727444 0.001172127185808289 0
0.0379424743103844 0.005064797715058559 0
0.029631581117913 -0.0007023867109948932 0
0.03233348615124871 -0.003580348127861528 0
0.0285638392042287 -0.004165624569870822 0
0.0311875960367931 -0.006957728062673485 0
0.0351718345430467 -0.006471270210629662 0
0.03347801935127665 -0.01066361036895754 0
-0.01470170964865619 -0.03213548591457425 0
-0.01225506900054968 -0.03500376242564648 0
0.003269916184123513 -0.02722370470955256 0
-0.02704692952124101 0.003835700873246687 0
0.03505032903484607 0.007839938461402338 0
0.03538283342377405 0.01166354481121783 0
-0.02943112732401625 -0.02703633875558338 0
-0.01555331459276678 0.03172955208981691 0
0.01703317710015399 0.02833330619546255 0
0.01441967950671541 0.03095294309075244 0
0.0001080274684200832 0.02805259562347083 0
-0.0199279847564888 -0.01707855781363548 0
0.01018760695694791 -0.0251980057802215 0
0.009322622465543266 -0.02864051173343923 0
0.02694506610144558 0.002082527836014645 0
-0.0288465681508197 0.02013227896292308 0
0.02501313794333044 -0.004837818900794618 0
-0.01512937683494349 -0.02219937714619568 0
-0.03110147961052305 0.01271169849537574 0
-0.03383995550290948 0.01591289471542632 0
-0.02926465218211446 -0.00302097438574249 0
0.03715867749987218 -0.0138071769602239 0
0.02706449074052162 -0.01054283365335064 0
-0.0150693795310058 0.02194756245016738 0
0.03616314351756366 -0.002675746154509624 0
-0.005779553828399191 0.03018563842074476 0
-0.0180106136323873 0.0003732537748902355 0
-0.0188945190552635 -0.02304544712477489 0
-0.03509394163258201 -0.01107309970325335 0
0.03939539679147134 -0.005531473700765251 0
-0.007448108415062414 -0.03020592250974841 0
0.01185810383271286 0.01459200018725605 0
-0.01352509872558545 0.03784411701236819 0
0.01743509450809683 0.03607003334899472 0
-0.03185473893624244 0.02311158066713277 0
-0.005909063826223239 0.03995571129040083 0
0.02409898173755537 0.03213272271332868 0
0.02413607820738487 -0.03210904374356477 0
0.01724734762951232 -0.03619469588656103 0
0.01440742421049777 -0.03362292712803136 0
0.01075863882612476 -0.03489119170816483 0
0.009807694879014325 -0.03888332397284795 0
-0.03460243887666642 -0.02073990372277541 0
0.009416195048213682 0.03892251653902377 0
-0.02709199324266874 0.02989140821496986 0
0.030022001049207 0.02683866562861259 0
0.001732335268891603 0.04004409043819612 0
0.03437743647553288 0.02054848595563349 0
0.002078902032539196 -0.04015942396034405 0
-0.02073990370985761 -0.03460243888989692 0
0.01089049154793881 0.03024760887559481 0
-0.01803141998816878 0.01188554533478853 0
0.005847494068486954 -0.02973524342547125 0
-0.02767347854298926 0.02357541156172586 0
-0.01023390816242663 -0.004685462327838241 0
0.03294350244957311 -0.01518267423283074 0
0.01047384836158637 -0.003951796879811889 0
-0.02112777253134608 0.03478706613737271 0
0.0005058938664541661 -0.01136295169778961 0
-0.008467334057802891 -0.03410306968177798 0
0.01286896557462401 -0.02750012659205409 0
-0.03782205688792883 -0.01368044676897713 0
-0.03072683647724853 -0.02036774014727538 0
0.006858696684970572 0.03598211225169562 0
-0.017065959795393 0.01549910682404085 0
-0.01307128743149001 -0.006049995870362749 0
-0.002322725661769418 0.03089997282002437 0
0.01693419416602638 -0.0233111702362594 0
-0.01709151325135572 -0.006472221532670068 0
-0.03093395144471049 0.003145064800311866 0
-0.005349298308078107 0.01467488505005237 0
0.03218513345289609 0.01015573421041774 0
-0.007524505522146306 -0.01261336087680601 0
0.01760030958622567 0.03222723370643268 0
-0.0175578697984709 0.003433801043580615 0
-0.02072378711473014 -0.03076289208333866 0
-0.0009816309160356484 -0.01912204626757153 0
-0.01370274838464361 -0.03829661621276188 0
0.01205202689595643 -0.03100325245340152 0
-0.01929113430981346 0.01832846988546882 0
0.008378424644860109 -0.03220485161249114 0
-0.03878439817938464 0.01019348339265229 0
-0.04024983673511977 -0.005970499305104703 0
-0.03498751853755744 0.01169319354983747 0
0.006695371223944974 -0.01403052248511038 0
0.01206775882355633 0.03364445003602321 0
0.03813315753628928 0.01373694952471481 0
-0.0238332775467969 0.02857737501060157 0
0.04061600362560202 0.002361611016776832 0
0.01145125620827282 -0.009501834060719199 0
-0.006049583275251711 -0.04028428306617966 0
0.01522406277168532 0.01522532582945914 0
-0.03711788742229405 0.01748144485820315 0
-0.02678276387669309 -0.02985417382974791 0
-0.02085541419774765 -0.02057636051999694 0
-0.03466431209988513 0.002504701778329941 0
-0.007145260735529627 0.03646334615649173 0
-0.01449544174162105 0.004345277565263551 0
0.01675027670614742 0.01215198693919432 0
0.03026171098479684 -0.02753338690059104 0
0.002326906501372821 0.01309364870409388 0
-0.004771384151918362 0.03376908808490509 0
0.01767507402920865 -0.03267931108373202 0
0.03366699387088787 0.01454782222591249 0
0.02755894486927829 -0.007411164547183288 0
0.03509354086526629 -0.02103425889298871 0
0.007357765769281989 -0.03631052268829096 0
0.03118285931440111 0.02054862508531884 0
-0.01801077874149107 -0.03263794498589992 0
-0.01068300011844994 0.03558333564832209 0
-0.008094637474754737 0.008608615202069235 0
0.01307734339624876 -0.004952651549617323 0
0.02652969979542297 0.02617826750401215 0
0.003697534498251311 -0.03695931640583426 0
0.00492952899641033 0.01408709488709546 0
0.01279665813628674 0.003601271625761184 0
-0.03292839212211086 -0.01790391136225666 0
-0.02638450346637241 0.02662536667977126 0
0.0164591079966119 0.008485066088455142 0
-0.02029277111690905 -0.004695345970318596 0
0.02908271144997064 0.0229046687830857 0
0.01571793424775341 -0.02611600818988986 0
-0.01266228339192887 0.002574642306424852 0
-0.01409512757622335 0.03461470347428114 0
0.0002971049915791507 -0.0375945341751445 0
-0.01831442928439948 0.02151467675030308 0
0.01006259049311635 0.03585196818197438 0
-0.0004628728894205202 0.03755433860690433 0
0.0157850784885445 0.00489435637093787 0
-0.003602509714964366 0.03706481575575701 0
-0.02181194325454191 -0.02386341924654959 0
0.02439628274807137 -0.02856315172900414 0
0.01502272678663166 0.002259930302815281 0
0.01500883479787 0.034117369857621 0
-0.03187794312645807 0.01911891812105555 0
0.01802960127783861 0.01543592920424488 0
-0.003957272124757636 0.009889243104590384 0
0.02998210029004425 -0.009881953441143012 0
-0.0233784662588918 -0.0291459834562968 0
0.0204147568295104 0.01982641830945406 0
0.02398883536188286 0.02898906724874727 0
-0.02070470955104886 0.02424655814378491 0
-0.01299972623353539 -0.01276745914972687 0
-0.03658679087771184 0.005194295750018448 0
-0.004051106931811729 -0.01706298995292807 0
0.003929317512688943 -0.0152576413312394 0
0.04108650056798623 0.00609460666657741 0
0.008435569874313592 0.004511619080450285 0
2 9 0 25
849
850
851
852
853
854
855
856
857
858
859
860
861
862
863
864
865
866
867
868
869
870
871
872
873
0.002188897227820527 -0.003976877468094032 0
-0.002849934237059122 0.004293483313851663 0
0.004041039140865335 0.002700136028921972 0
-0.004015724689954524 -0.002832434685909081 0
0.001025564503925186 0.005201787857281208 0
-0.004913203883918407 0.001058443866849584 0
0.00476673067572298 -0.0009481616833692973 0
-0.0007899819560678815 -0.005005118733229745 0
-0.005622742206355592 -0.001118432963431712 0
-0.00246395940609779 -0.0004803510269658379 0
-0.002590455019149117 0.002175594026438 0
2.885963394722094e-05 0.001376923746257133 0
0.000869537480474416 -0.00128230013660577 0
0.00277310640381453 0.000579132900263736 0
-0.001103493986318772 -0.002639960843415018 0
-0.001091796648651744 0.005535053146781784 0
0.004529598061978409 -0.003066214545231797 0
0.00318502761023272 0.004766730675722979 0
-0.002829586565913956 -0.004561529669196773 0
0.001072993322511277 -0.005881595257424202 0
0.005622742206355595 0.001118432963431713 0
-0.00476673067572298 0.00318502761023272 0
0.001882017220730032 0.002816637817980252 0
0.003025573969962172 -0.001738884186607432 0
-0.0005992907577095905 0.003566579984765007 0
$EndNodes
$Elements
20 1678 1 1967
0 1 15 1
1 1 
0 2 15 1
2 2 
0 3 15 1
3 3 
0 4 15 1
4 4 
0 5 15 1
5 5 
0 6 15 1
6 6 
0 7 15 1
7 7 
0 8 15 1
8 8 
0 9 15 1
9 9 
0 10 15 1
10 10 
0 11 15 1
11 11 
0 12 15 1
12 12 
0 13 15 1
13 13 
0 14 15 1
14 14 
0 15 15 1
15 15 
0 16 15 1
16 16 
2 6 2 160
306 129 1 17 
307 1 130 17 
308 130 1 66 
309 18 69 2 
310 70 18 2 
311 19 73 3 
312 74 19 3 
313 20 4 78 
314 20 141 4 
315 4 141 77 
316 21 145 5 
317 146 21 5 
318 5 145 81 
319 146 5 82 
320 6 22 85 
321 22 6 86 
322 89 7 23 
323 7 154 23 
324 90 154 7 
325 157 8 24 
326 8 158 24 
327 157 93 8 
328 8 94 158 
329 97 9 25 
330 25 9 162 
331 9 98 162 
332 101 10 26 
333 10 102 26 
334 105 11 27 
335 11 106 27 
336 12 110 28 
337 12 28 173 
338 109 12 173 
339 113 13 29 
340 13 114 29 
341 117 14 30 
342 30 14 182 
343 14 118 182 
344 121 15 31 
345 15 122 31 
346 16 32 189 
347 32 16 190 
348 125 16 189 
349 16 126 190 
350 193 129 17 
351 18 133 69 
352 134 18 70 
353 19 137 73 
354 138 19 74 
355 142 20 78 
356 22 149 85 
357 150 22 86 
358 153 89 23 
359 97 25 161 
360 101 26 165 
361 26 102 166 
362 105 27 169 
363 27 106 170 
364 28 110 174 
365 113 29 177 
366 29 114 178 
367 117 30 181 
368 121 31 185 
369 31 122 186 
370 67 130 66 
371 68 131 67 
372 131 130 67 
373 69 133 68 
374 132 131 68 
375 133 132 68 
376 71 134 70 
377 72 135 71 
378 135 134 71 
379 73 137 72 
380 136 135 72 
381 137 136 72 
382 138 74 75 
383 139 75 76 
384 139 138 75 
385 140 76 77 
386 140 139 76 
387 141 140 77 
388 142 78 79 
389 143 79 80 
390 143 142 79 
391 144 80 81 
392 144 143 80 
393 145 144 81 
394 147 82 83 
395 147 146 82 
396 147 83 84 
397 148 84 85 
398 148 147 84 
399 149 148 85 
400 150 86 87 
401 88 151 87 
402 151 150 87 
403 89 153 88 
404 152 151 88 
405 153 152 88 
406 91 154 90 
407 92 155 91 
408 155 154 91 
409 93 156 92 
410 156 155 92 
411 157 156 93 
412 94 95 159 
413 94 159 158 
414 95 96 159 
415 96 97 160 
416 159 96 160 
417 160 97 161 
418 98 99 163 
419 162 98 163 
420 99 100 164 
421 163 99 164 
422 100 101 165 
423 164 100 165 
424 102 103 166 
425 103 104 167 
426 166 103 167 
427 104 105 169 
428 167 104 168 
429 168 104 169 
430 106 107 170 
431 107 108 171 
432 170 107 171 
433 108 109 172 
434 171 108 172 
435 172 109 173 
436 110 111 174 
437 111 112 175 
438 174 111 175 
439 112 113 176 
440 175 112 176 
441 176 113 177 
442 114 115 178 
443 115 116 179 
444 178 115 179 
445 116 117 180 
446 179 116 180 
447 180 117 181 
448 118 119 183 
449 182 118 183 
450 119 120 184 
451 183 119 184 
452 120 121 185 
453 184 120 185 
454 122 123 186 
455 123 124 187 
456 186 123 187 
457 124 125 188 
458 187 124 188 
459 188 125 189 
460 126 127 191 
461 190 126 191 
462 127 128 192 
463 191 127 192 
464 128 129 193 
465 128 193 192 
2 7 2 432
466 242 303 354 
467 243 300 355 
468 245 297 356 
469 244 294 359 
470 247 293 357 
471 248 290 358 
472 249 301 361 
473 251 292 362 
474 250 304 363 
475 246 295 360 
476 253 305 367 
477 254 298 364 
478 252 291 366 
479 255 296 365 
480 256 302 369 
481 257 299 368 
482 200 290 333 
483 194 292 330 
484 227 295 335 
485 206 297 325 
486 203 304 328 
487 236 291 336 
488 212 293 334 
489 239 305 324 
490 209 300 322 
491 197 303 323 
492 218 298 329 
493 224 299 337 
494 230 294 332 
495 215 301 326 
496 233 302 331 
497 221 296 327 
498 258 338 354 
499 266 353 362 
500 260 339 358 
501 259 340 357 
502 263 341 359 
503 264 345 356 
504 268 350 366 
505 261 342 355 
506 262 343 364 
507 269 351 369 
508 267 346 368 
509 265 344 365 
510 272 352 367 
511 270 347 363 
512 271 349 361 
513 273 348 360 
514 292 287 330 
515 297 285 325 
516 290 278 333 
517 300 289 322 
518 303 288 323 
519 293 281 334 
520 291 276 336 
521 295 282 335 
522 304 286 328 
523 305 284 324 
524 294 275 332 
525 296 274 327 
526 301 283 326 
527 298 279 329 
528 302 277 331 
529 299 280 337 
530 303 242 383 
531 300 243 371 
532 297 245 372 
533 294 244 373 
534 293 247 378 
535 290 248 376 
536 301 249 374 
537 292 251 375 
538 295 246 370 
539 304 250 380 
540 291 252 377 
541 305 253 382 
542 298 254 381 
543 302 256 384 
544 296 255 379 
545 299 257 385 
546 353 251 362 
547 338 242 354 
548 345 245 356 
549 350 252 366 
550 339 248 358 
551 340 247 357 
552 341 244 359 
553 342 243 355 
554 343 254 364 
555 351 256 369 
556 349 249 361 
557 347 250 363 
558 346 257 368 
559 352 253 367 
560 348 246 360 
561 344 255 365 
562 219 218 329 
563 210 209 322 
564 198 197 323 
565 240 239 324 
566 207 206 325 
567 204 203 328 
568 222 221 327 
569 216 215 326 
570 195 194 330 
571 201 200 333 
572 231 230 332 
573 213 212 334 
574 228 227 335 
575 237 236 336 
576 234 233 331 
577 225 224 337 
578 303 34 354 
579 300 38 355 
580 297 37 356 
581 292 33 362 
582 304 36 363 
583 301 40 361 
584 293 39 357 
585 305 48 367 
586 290 35 358 
587 294 45 359 
588 295 44 360 
589 298 41 364 
590 296 42 365 
591 302 46 369 
592 291 47 366 
593 299 43 368 
594 229 263 359 
595 196 258 354 
596 226 273 360 
597 205 264 356 
598 238 272 367 
599 208 261 355 
600 199 260 358 
601 211 259 357 
602 220 265 365 
603 235 268 366 
604 214 271 361 
605 202 270 363 
606 217 262 364 
607 241 266 362 
608 223 267 368 
609 232 269 369 
610 278 290 376 
611 287 292 375 
612 276 291 377 
613 281 293 378 
614 282 295 370 
615 285 297 372 
616 275 294 373 
617 274 296 379 
618 289 300 371 
619 283 301 374 
620 279 298 381 
621 288 303 383 
622 280 299 385 
623 286 304 380 
624 277 302 384 
625 284 305 382 
626 209 38 300 
627 206 37 297 
628 197 34 303 
629 194 33 292 
630 215 40 301 
631 203 36 304 
632 239 48 305 
633 233 46 302 
634 212 39 293 
635 200 35 290 
636 227 44 295 
637 230 45 294 
638 218 41 298 
639 221 42 296 
640 236 47 291 
641 224 43 299 
642 229 228 263 
643 226 225 273 
644 196 195 258 
645 238 237 272 
646 235 234 268 
647 205 204 264 
648 241 240 266 
649 208 207 261 
650 202 201 270 
651 232 231 269 
652 214 213 271 
653 199 198 260 
654 211 210 259 
655 217 216 262 
656 220 219 265 
657 223 222 267 
658 133 18 242 
659 177 29 244 
660 137 19 248 
661 153 23 247 
662 185 31 252 
663 181 30 256 
664 193 17 251 
665 161 25 254 
666 149 22 243 
667 145 21 245 
668 169 27 257 
669 189 32 253 
670 141 20 250 
671 157 24 249 
672 173 28 246 
673 165 26 255 
674 146 147 285 
675 138 139 278 
676 162 163 279 
677 170 171 280 
678 154 155 281 
679 130 131 287 
680 166 167 274 
681 158 159 283 
682 186 187 276 
683 178 179 275 
684 142 143 286 
685 190 191 284 
686 182 183 277 
687 174 175 282 
688 150 151 289 
689 134 135 288 
690 310 259 322 
691 311 260 323 
692 321 266 324 
693 306 258 330 
694 312 262 326 
695 320 267 327 
696 317 264 328 
697 308 261 325 
698 309 265 329 
699 318 268 331 
700 307 263 335 
701 316 269 332 
702 313 270 333 
703 319 271 334 
704 315 272 336 
705 314 273 337 
706 259 310 340 
707 260 311 339 
708 258 306 338 
709 266 321 353 
710 264 317 345 
711 262 312 343 
712 261 308 342 
713 265 309 344 
714 263 307 341 
715 267 320 346 
716 268 318 350 
717 269 316 351 
718 271 319 349 
719 270 313 347 
720 272 315 352 
721 273 314 348 
722 131 132 306 
723 175 176 307 
724 147 148 308 
725 151 152 310 
726 135 136 311 
727 163 164 309 
728 159 160 312 
729 143 144 317 
730 187 188 315 
731 183 184 318 
732 179 180 316 
733 171 172 314 
734 139 140 313 
735 155 156 319 
736 167 168 320 
737 191 192 321 
738 287 131 306 
739 285 147 308 
740 282 175 307 
741 279 163 309 
742 278 139 313 
743 283 159 312 
744 280 171 314 
745 276 187 315 
746 281 155 319 
747 289 151 310 
748 288 135 311 
749 286 143 317 
750 275 179 316 
751 274 167 320 
752 277 183 318 
753 284 191 321 
754 133 242 338 
755 177 244 341 
756 153 247 340 
757 137 248 339 
758 149 243 342 
759 161 254 343 
760 185 252 350 
761 181 256 351 
762 145 245 345 
763 193 251 353 
764 157 249 349 
765 169 257 346 
766 165 255 344 
767 173 246 348 
768 141 250 347 
769 189 253 352 
770 259 210 322 
771 260 198 323 
772 261 207 325 
773 266 240 324 
774 258 195 330 
775 262 216 326 
776 267 222 327 
777 265 219 329 
778 264 204 328 
779 268 234 331 
780 269 231 332 
781 263 228 335 
782 270 201 333 
783 271 213 334 
784 272 237 336 
785 273 225 337 
786 132 133 338 
787 176 177 341 
788 136 137 339 
789 152 153 340 
790 148 149 342 
791 156 157 349 
792 172 173 348 
793 164 165 344 
794 160 161 343 
795 140 141 347 
796 144 145 345 
797 168 169 346 
798 184 185 350 
799 180 181 351 
800 188 189 352 
801 192 193 353 
802 251 17 375 
803 243 22 371 
804 245 21 372 
805 246 28 370 
806 248 19 376 
807 242 18 383 
808 247 23 378 
809 252 31 377 
810 249 24 374 
811 250 20 380 
812 244 29 373 
813 255 26 379 
814 253 32 382 
815 254 25 381 
816 256 30 384 
817 257 27 385 
818 174 282 370 
819 146 285 372 
820 150 289 371 
821 130 287 375 
822 162 279 381 
823 138 278 376 
824 186 276 377 
825 178 275 373 
826 158 283 374 
827 154 281 378 
828 166 274 379 
829 134 288 383 
830 182 277 384 
831 170 280 385 
832 142 286 380 
833 190 284 382 
834 28 174 370 
835 22 150 371 
836 24 158 374 
837 17 130 375 
838 21 146 372 
839 26 166 379 
840 20 142 380 
841 19 138 376 
842 31 186 377 
843 23 154 378 
844 18 134 383 
845 32 190 382 
846 29 178 373 
847 25 162 381 
848 30 182 384 
849 27 170 385 
850 39 211 357 
851 35 199 358 
852 34 196 354 
853 38 208 355 
854 37 205 356 
855 42 220 365 
856 41 217 364 
857 45 229 359 
858 44 226 360 
859 40 214 361 
860 33 241 362 
861 43 223 368 
862 36 202 363 
863 47 235 366 
864 48 238 367 
865 46 232 369 
866 274 320 327 
867 287 306 330 
868 279 309 329 
869 288 311 323 
870 289 310 322 
871 282 307 335 
872 283 312 326 
873 275 316 332 
874 277 318 331 
875 285 308 325 
876 278 313 333 
877 276 315 336 
878 281 319 334 
879 286 317 328 
880 284 321 324 
881 280 314 337 
882 306 132 338 
883 307 176 341 
884 310 152 340 
885 311 136 339 
886 308 148 342 
887 309 164 344 
888 312 160 343 
889 317 144 345 
890 318 184 350 
891 314 172 348 
892 316 180 351 
893 315 188 352 
894 313 140 347 
895 319 156 349 
896 320 168 346 
897 321 192 353 
2 8 2 1006
898 406 619 670 
899 617 748 808 
900 617 423 748 
901 635 664 801 
902 412 626 708 
903 663 666 832 
904 700 660 756 
905 520 532 622 
906 214 40 679 
907 722 700 756 
908 612 399 747 
909 535 766 769 
910 626 412 758 
911 556 57 755 
912 558 63 757 
913 559 60 759 
914 735 716 754 
915 403 663 832 
916 649 614 773 
917 716 735 835 
918 616 523 651 
919 443 627 727 
920 409 628 762 
921 621 537 639 
922 47 236 722 
923 766 601 769 
924 648 565 650 
925 399 612 764 
926 740 669 779 
927 628 729 762 
928 638 621 639 
929 594 552 622 
930 523 616 777 
931 441 443 727 
932 406 670 783 
933 701 402 702 
934 657 655 665 
935 548 649 773 
936 424 387 425 
937 669 761 779 
938 388 424 534 
939 416 699 700 
940 560 392 561 
941 685 770 796 
942 423 617 804 
943 391 554 555 
944 606 607 640 
945 554 386 594 
946 557 389 581 
947 422 661 663 
948 58 57 556 
949 64 63 558 
950 61 60 559 
951 601 627 769 
952 663 665 666 
953 404 624 737 
954 625 535 633 
955 62 392 560 
956 387 54 571 
957 55 387 424 
958 388 56 424 
959 51 386 554 
960 391 52 554 
961 59 389 557 
962 782 643 784 
963 770 599 796 
964 618 648 650 
965 398 214 679 
966 589 559 608 
967 394 682 683 
968 40 419 679 
969 635 636 664 
970 664 540 771 
971 661 422 662 
972 769 627 820 
973 411 782 784 
974 606 640 833 
975 581 389 603 
976 386 552 594 
977 396 220 707 
978 451 540 636 
979 602 765 780 
980 608 559 759 
981 520 622 732 
982 57 388 755 
983 619 406 729 
984 392 559 589 
985 765 444 780 
986 237 238 730 
987 63 560 757 
988 393 47 722 
989 60 557 759 
990 236 416 722 
991 387 571 811 
992 626 395 788 
993 624 404 774 
994 651 608 759 
995 702 402 778 
996 668 413 738 
997 413 668 803 
998 655 656 665 
999 622 532 815 
1000 702 421 760 
1001 604 626 788 
1002 653 732 792 
1003 735 405 835 
1004 394 683 791 
1005 677 591 831 
1006 595 664 771 
1007 591 677 839 
1008 636 540 664 
1009 535 625 766 
1010 421 683 760 
1011 661 657 665 
1012 563 772 804 
1013 537 621 785 
1014 799 609 819 
1015 405 720 835 
1016 497 640 654 
1017 640 607 654 
1018 720 405 793 
1019 453 451 636 
1020 732 610 792 
1021 416 700 722 
1022 699 416 730 
1023 531 630 790 
1024 537 485 639 
1025 610 609 799 
1026 669 740 803 
1027 581 603 773 
1028 594 622 815 
1029 676 396 707 
1030 633 548 773 
1031 483 537 637 
1032 633 535 843 
1033 238 401 730 
1034 416 237 730 
1035 220 42 707 
1036 744 399 764 
1037 621 638 790 
1038 404 734 774 
1039 455 453 634 
1040 485 487 639 
1041 634 453 636 
1042 603 633 773 
1043 638 531 790 
1044 472 475 649 
1045 493 531 638 
1046 774 734 834 
1047 436 549 641 
1048 695 505 697 
1049 514 439 652 
1050 546 501 642 
1051 744 764 827 
1052 772 706 804 
1053 650 565 840 
1054 438 436 641 
1055 627 443 820 
1056 612 747 828 
1057 662 393 756 
1058 515 672 674 
1059 433 441 775 
1060 660 700 838 
1061 653 520 732 
1062 787 423 804 
1063 439 432 652 
1064 663 403 800 
1065 417 735 754 
1066 695 690 715 
1067 694 408 705 
1068 668 669 803 
1069 746 813 821 
1070 520 458 532 
1071 493 495 531 
1072 393 722 756 
1073 479 481 523 
1074 464 466 535 
1075 706 787 804 
1076 491 493 638 
1077 425 387 426 
1078 459 520 653 
1079 685 620 721 
1080 481 483 637 
1081 451 449 540 
1082 663 661 665 
1083 503 508 642 
1084 505 695 715 
1085 523 481 637 
1086 428 426 646 
1087 483 485 537 
1088 499 546 640 
1089 487 491 639 
1090 468 470 548 
1091 388 534 568 
1092 449 438 641 
1093 561 392 589 
1094 560 561 630 
1095 391 555 595 
1096 532 634 635 
1097 458 455 634 
1098 519 685 721 
1099 459 458 520 
1100 540 449 641 
1101 501 503 642 
1102 497 499 640 
1103 585 544 602 
1104 570 672 680 
1105 495 497 654 
1106 499 501 546 
1107 491 492 493 
1108 557 581 582 
1109 441 727 775 
1110 228 229 742 
1111 462 463 464 
1112 393 662 806 
1113 540 641 771 
1114 457 455 458 
1115 434 428 646 
1116 472 474 475 
1117 464 465 466 
1118 493 494 495 
1119 487 490 491 
1120 672 515 680 
1121 503 507 508 
1122 419 670 671 
1123 419 671 679 
1124 491 638 639 
1125 395 626 758 
1126 204 205 407 
1127 216 217 406 
1128 198 199 404 
1129 210 211 405 
1130 223 43 402 
1131 232 46 403 
1132 238 48 401 
1133 229 45 400 
1134 446 461 462 
1135 213 214 398 
1136 201 202 399 
1137 207 208 395 
1138 195 196 397 
1139 219 220 396 
1140 226 44 394 
1141 235 47 393 
1142 479 480 481 
1143 819 611 829 
1144 240 241 408 
1145 476 478 479 
1146 544 514 652 
1147 495 496 497 
1148 549 434 646 
1149 230 231 413 
1150 37 206 412 
1151 39 212 411 
1152 35 200 410 
1153 41 218 409 
1154 38 209 417 
1155 34 197 418 
1156 40 215 419 
1157 36 203 420 
1158 224 225 421 
1159 233 234 422 
1160 227 228 415 
1161 236 237 416 
1162 532 458 634 
1163 33 194 423 
1164 436 434 549 
1165 221 222 414 
1166 481 482 483 
1167 466 467 468 
1168 686 658 723 
1169 761 669 822 
1170 475 474 476 
1171 450 449 451 
1172 579 718 728 
1173 548 633 843 
1174 400 740 741 
1175 457 458 459 
1176 491 490 492 
1177 504 686 723 
1178 512 459 653 
1179 448 438 449 
1180 672 673 674 
1181 628 409 817 
1182 452 451 453 
1183 53 391 837 
1184 696 695 697 
1185 508 507 644 
1186 635 634 636 
1187 538 512 547 
1188 515 674 712 
1189 621 589 785 
1190 571 647 811 
1191 462 461 463 
1192 531 495 654 
1193 483 484 485 
1194 614 581 773 
1195 468 469 470 
1196 493 492 494 
1197 602 544 652 
1198 555 554 801 
1199 632 604 788 
1200 718 488 728 
1201 666 656 667 
1202 464 463 465 
1203 543 618 650 
1204 554 594 801 
1205 549 646 647 
1206 697 505 717 
1207 571 53 837 
1208 497 498 499 
1209 548 470 649 
1210 525 572 724 
1211 547 512 653 
1212 433 440 441 
1213 495 494 496 
1214 479 478 480 
1215 542 514 544 
1216 454 453 455 
1217 470 472 649 
1218 466 465 467 
1219 665 656 666 
1220 545 544 585 
1221 441 442 443 
1222 481 480 482 
1223 464 535 769 
1224 479 523 777 
1225 630 531 812 
1226 525 569 572 
1227 586 585 631 
1228 674 673 675 
1229 668 667 669 
1230 470 471 472 
1231 497 496 498 
1232 468 467 469 
1233 696 697 698 
1234 448 449 450 
1235 485 486 487 
1236 229 400 742 
1237 602 652 752 
1238 644 527 645 
1239 507 527 644 
1240 483 482 484 
1241 450 451 452 
1242 577 687 726 
1243 456 455 457 
1244 443 445 446 
1245 619 539 620 
1246 528 570 680 
1247 690 518 715 
1248 499 500 501 
1249 691 690 692 
1250 415 228 742 
1251 687 516 726 
1252 472 473 474 
1253 689 518 690 
1254 476 477 478 
1255 431 428 434 
1256 725 699 730 
1257 582 616 651 
1258 609 553 611 
1259 543 617 618 
1260 670 620 671 
1261 570 628 629 
1262 446 460 461 
1263 503 506 507 
1264 620 539 721 
1265 452 453 454 
1266 487 489 490 
1267 509 657 658 
1268 435 434 436 
1269 501 502 503 
1270 528 566 570 
1271 441 440 442 
1272 408 694 847 
1273 550 517 579 
1274 507 526 527 
1275 414 750 776 
1276 485 484 486 
1277 658 659 660 
1278 524 575 576 
1279 529 587 588 
1280 527 543 650 
1281 542 544 545 
1282 55 54 387 
1283 51 50 386 
1284 57 56 388 
1285 59 58 389 
1286 49 64 390 
1287 53 52 391 
1288 62 61 392 
1289 666 667 668 
1290 511 459 512 
1291 576 597 598 
1292 470 469 471 
1293 623 565 648 
1294 524 576 703 
1295 545 585 586 
1296 590 579 591 
1297 588 612 613 
1298 499 498 500 
1299 454 455 456 
1300 671 685 796 
1301 572 569 604 
1302 437 436 438 
1303 564 538 565 
1304 675 676 677 
1305 476 474 477 
1306 443 442 445 
1307 564 623 624 
1308 472 471 473 
1309 699 698 700 
1310 457 459 511 
1311 593 577 596 
1312 609 611 819 
1313 402 701 809 
1314 586 631 632 
1315 611 553 678 
1316 492 490 509 
1317 562 521 577 
1318 425 426 427 
1319 447 438 448 
1320 535 466 843 
1321 543 526 563 
1322 475 777 845 
1323 63 62 560 
1324 54 53 571 
1325 56 55 424 
1326 533 512 538 
1327 689 690 691 
1328 527 526 543 
1329 509 658 686 
1330 446 445 460 
1331 573 534 615 
1332 507 506 526 
1333 645 527 650 
1334 412 708 824 
1335 52 51 554 
1336 691 692 693 
1337 692 690 695 
1338 487 486 489 
1339 60 59 557 
1340 776 750 809 
1341 503 502 506 
1342 506 502 518 
1343 658 657 659 
1344 501 500 502 
1345 427 429 430 
1346 465 463 515 
1347 619 620 670 
1348 513 439 514 
1349 570 629 672 
1350 675 673 676 
1351 570 566 628 
1352 585 602 780 
1353 490 489 655 
1354 541 514 542 
1355 478 477 524 
1356 564 565 623 
1357 461 460 528 
1358 580 592 599 
1359 655 489 656 
1360 659 657 661 
1361 696 698 699 
1362 691 693 694 
1363 528 460 539 
1364 406 217 762 
1365 543 563 617 
1366 496 494 504 
1367 468 548 843 
1368 431 434 435 
1369 400 739 740 
1370 576 575 597 
1371 447 521 525 
1372 482 480 510 
1373 513 541 580 
1374 430 432 433 
1375 524 477 574 
1376 533 538 564 
1377 550 579 590 
1378 473 471 517 
1379 588 587 612 
1380 647 646 811 
1381 511 533 578 
1382 552 567 622 
1383 566 539 619 
1384 575 574 584 
1385 500 498 505 
1386 525 562 569 
1387 397 746 821 
1388 579 517 718 
1389 433 439 440 
1390 672 629 673 
1391 435 436 437 
1392 450 452 516 
1393 427 426 428 
1394 568 534 573 
1395 582 581 614 
1396 473 517 530 
1397 678 390 816 
1398 659 661 662 
1399 454 456 529 
1400 692 695 696 
1401 604 569 626 
1402 677 707 794 
1403 529 456 536 
1404 530 517 550 
1405 562 577 593 
1406 542 545 605 
1407 595 555 664 
1408 474 473 684 
1409 530 550 583 
1410 469 467 488 
1411 486 484 522 
1412 456 457 681 
1413 561 589 621 
1414 524 574 575 
1415 587 536 600 
1416 528 539 566 
1417 509 490 655 
1418 511 512 533 
1419 445 442 519 
1420 577 521 687 
1421 529 536 587 
1422 389 58 556 
1423 509 655 657 
1424 435 437 444 
1425 437 438 447 
1426 741 740 779 
1427 599 592 643 
1428 390 64 558 
1429 475 476 777 
1430 386 50 551 
1431 447 448 521 
1432 392 61 559 
1433 429 428 431 
1434 671 620 685 
1435 525 521 562 
1436 677 676 707 
1437 513 514 541 
1438 689 691 705 
1439 529 588 711 
1440 705 408 706 
1441 580 541 592 
1442 582 614 616 
1443 430 429 432 
1444 457 511 681 
1445 433 432 439 
1446 440 439 513 
1447 477 474 684 
1448 427 428 429 
1449 588 613 767 
1450 625 556 755 
1451 568 573 601 
1452 693 692 725 
1453 647 595 771 
1454 576 598 753 
1455 401 725 730 
1456 401 693 725 
1457 696 699 725 
1458 688 518 689 
1459 430 775 798 
1460 421 702 778 
1461 603 556 625 
1462 682 584 683 
1463 473 530 684 
1464 461 528 680 
1465 674 675 795 
1466 553 551 678 
1467 207 395 758 
1468 390 606 816 
1469 691 694 705 
1470 601 573 627 
1471 536 456 681 
1472 578 709 710 
1473 463 461 680 
1474 607 558 757 
1475 564 624 709 
1476 448 450 687 
1477 567 553 609 
1478 478 524 703 
1479 494 492 686 
1480 583 701 702 
1481 552 551 553 
1482 574 477 684 
1483 442 440 704 
1484 563 526 688 
1485 480 478 703 
1486 658 660 723 
1487 511 578 681 
1488 513 580 704 
1489 603 625 633 
1490 389 556 603 
1491 606 558 607 
1492 567 609 610 
1493 580 599 770 
1494 492 509 686 
1495 575 584 682 
1496 506 518 688 
1497 602 752 765 
1498 386 551 552 
1499 521 448 687 
1500 719 605 720 
1501 484 482 713 
1502 692 696 725 
1503 467 465 712 
1504 552 553 567 
1505 390 558 606 
1506 515 463 680 
1507 526 506 688 
1508 597 575 682 
1509 583 550 701 
1510 518 502 715 
1511 498 496 717 
1512 542 605 719 
1513 626 569 708 
1514 452 454 711 
1515 550 590 701 
1516 465 515 712 
1517 533 564 709 
1518 440 513 704 
1519 596 577 726 
1520 569 562 708 
1521 578 533 709 
1522 504 494 686 
1523 450 516 687 
1524 422 663 800 
1525 510 480 703 
1526 541 542 719 
1527 471 469 718 
1528 566 619 729 
1529 662 422 806 
1530 539 460 721 
1531 591 579 728 
1532 407 205 733 
1533 404 199 734 
1534 210 405 735 
1535 198 404 737 
1536 204 407 736 
1537 502 500 715 
1538 232 403 738 
1539 400 45 739 
1540 482 510 713 
1541 545 586 716 
1542 443 446 820 
1543 219 396 743 
1544 201 399 744 
1545 395 208 745 
1546 397 196 746 
1547 399 202 747 
1548 223 402 750 
1549 195 397 748 
1550 496 504 717 
1551 519 442 704 
1552 394 44 749 
1553 500 505 715 
1554 713 510 714 
1555 447 525 724 
1556 562 593 708 
1557 737 624 841 
1558 777 616 845 
1559 517 471 718 
1560 516 452 711 
1561 460 445 721 
1562 454 529 711 
1563 413 231 738 
1564 37 412 733 
1565 35 410 734 
1566 418 197 737 
1567 417 209 735 
1568 420 203 736 
1569 230 413 739 
1570 522 484 713 
1571 409 218 743 
1572 410 200 744 
1573 38 417 745 
1574 34 418 746 
1575 36 420 747 
1576 505 498 717 
1577 605 545 716 
1578 488 467 712 
1579 227 415 749 
1580 741 779 781 
1581 423 194 748 
1582 469 488 718 
1583 589 608 785 
1584 414 222 750 
1585 628 566 729 
1586 445 519 721 
1587 549 647 771 
1588 400 741 742 
1589 652 432 752 
1590 592 541 719 
1591 444 437 724 
1592 573 615 727 
1593 785 608 846 
1594 684 530 731 
1595 437 447 724 
1596 586 632 754 
1597 659 662 756 
1598 703 576 753 
1599 767 613 802 
1600 396 676 763 
1601 676 673 763 
1602 574 684 731 
1603 637 537 785 
1604 582 651 759 
1605 536 681 751 
1606 411 720 793 
1607 547 645 840 
1608 698 697 805 
1609 617 563 804 
1610 681 578 751 
1611 205 37 733 
1612 199 35 734 
1613 209 210 735 
1614 197 198 737 
1615 203 204 736 
1616 231 232 738 
1617 45 230 739 
1618 627 573 727 
1619 584 574 731 
1620 218 219 743 
1621 200 201 744 
1622 208 38 745 
1623 196 34 746 
1624 202 36 747 
1625 194 195 748 
1626 44 227 749 
1627 222 223 750 
1628 50 49 848 
1629 432 429 752 
1630 412 206 758 
1631 388 568 755 
1632 530 583 731 
1633 667 656 768 
1634 560 630 757 
1635 398 643 782 
1636 510 703 753 
1637 776 591 839 
1638 660 659 756 
1639 206 207 758 
1640 689 705 772 
1641 705 706 772 
1642 612 587 764 
1643 402 43 778 
1644 656 489 768 
1645 213 398 782 
1646 216 406 783 
1647 429 431 752 
1648 567 610 732 
1649 557 582 759 
1650 538 547 840 
1651 578 710 751 
1652 729 406 762 
1653 600 536 751 
1654 781 598 807 
1655 683 421 791 
1656 693 401 789 
1657 411 212 782 
1658 224 421 778 
1659 419 215 783 
1660 625 755 766 
1661 645 650 840 
1662 795 675 831 
1663 435 444 765 
1664 622 567 732 
1665 401 48 789 
1666 408 241 787 
1667 405 211 793 
1668 217 41 762 
1669 226 394 791 
1670 813 648 821 
1671 714 510 753 
1672 741 781 807 
1673 486 522 768 
1674 716 586 754 
1675 33 423 787 
1676 426 387 811 
1677 39 411 793 
1678 421 225 791 
1679 584 731 760 
1680 403 46 800 
1681 604 632 842 
1682 649 475 845 
1683 731 583 760 
1684 792 799 836 
1685 235 393 806 
1686 233 422 800 
1687 551 50 848 
1688 41 409 762 
1689 430 433 775 
1690 640 546 833 
1691 775 615 798 
1692 422 234 806 
1693 668 738 832 
1694 641 549 771 
1695 706 408 787 
1696 427 430 798 
1697 683 584 760 
1698 643 592 784 
1699 670 419 783 
1700 720 411 784 
1701 462 464 769 
1702 240 408 847 
1703 42 221 794 
1704 743 396 763 
1705 749 415 814 
1706 677 794 839 
1707 698 805 838 
1708 583 702 760 
1709 694 693 789 
1710 424 425 823 
1711 675 677 831 
1712 534 424 823 
1713 637 785 846 
1714 752 431 765 
1715 476 479 777 
1716 673 629 763 
1717 587 600 764 
1718 749 814 825 
1719 462 769 820 
1720 531 654 812 
1721 651 523 846 
1722 431 435 765 
1723 792 610 799 
1724 720 605 835 
1725 489 486 768 
1726 568 601 766 
1727 713 714 761 
1728 629 628 817 
1729 709 624 774 
1730 563 688 772 
1731 740 739 803 
1732 786 410 827 
1733 726 516 767 
1734 707 42 794 
1735 631 585 780 
1736 685 519 770 
1737 522 713 761 
1738 719 720 784 
1739 631 826 842 
1740 810 733 824 
1741 688 689 772 
1742 755 568 766 
1743 711 588 767 
1744 43 224 778 
1745 410 786 834 
1746 710 709 774 
1747 590 591 776 
1748 212 213 782 
1749 215 216 783 
1750 726 767 802 
1751 508 799 819 
1752 642 819 829 
1753 700 698 838 
1754 704 580 770 
1755 753 598 781 
1756 546 642 829 
1757 398 679 844 
1758 221 414 794 
1759 516 711 767 
1760 768 522 822 
1761 532 635 815 
1762 646 426 811 
1763 654 607 812 
1764 241 33 787 
1765 407 733 810 
1766 826 572 842 
1767 48 239 789 
1768 607 757 812 
1769 614 649 845 
1770 225 226 791 
1771 519 704 770 
1772 211 39 793 
1773 508 644 799 
1774 779 714 781 
1775 727 615 775 
1776 682 394 825 
1777 802 613 830 
1778 49 390 848 
1779 547 653 792 
1780 717 504 805 
1781 444 724 826 
1782 630 561 790 
1783 694 789 847 
1784 46 233 800 
1785 797 802 830 
1786 390 678 848 
1787 642 508 819 
1788 739 413 803 
1789 488 712 795 
1790 712 674 795 
1791 446 462 820 
1792 595 647 837 
1793 234 235 806 
1794 679 671 796 
1795 592 719 784 
1796 748 397 808 
1797 608 651 846 
1798 647 571 837 
1799 561 621 790 
1800 391 595 837 
1801 590 776 809 
1802 724 572 826 
1803 697 717 805 
1804 523 637 846 
1805 728 488 795 
1806 425 427 798 
1807 764 600 827 
1808 710 774 834 
1809 632 788 818 
1810 618 617 808 
1811 504 723 805 
1812 714 753 781 
1813 395 745 788 
1814 829 816 833 
1815 669 667 822 
1816 466 468 843 
1817 645 547 836 
1818 648 618 821 
1819 593 596 810 
1820 728 795 831 
1821 799 644 836 
1822 751 710 786 
1823 805 723 838 
1824 615 534 823 
1825 623 648 813 
1826 743 763 817 
1827 750 402 809 
1828 600 751 786 
1829 761 714 779 
1830 736 407 797 
1831 667 768 822 
1832 611 816 829 
1833 780 444 826 
1834 410 744 827 
1835 679 796 844 
1836 611 678 816 
1837 598 597 814 
1838 701 590 809 
1839 797 596 802 
1840 415 742 807 
1841 596 726 802 
1842 734 410 834 
1843 644 645 836 
1844 643 398 844 
1845 742 741 807 
1846 738 403 832 
1847 613 828 830 
1848 239 240 847 
1849 593 810 824 
1850 632 631 842 
1851 747 420 828 
1852 565 538 840 
1853 814 597 825 
1854 623 813 841 
1855 789 239 847 
1856 754 632 818 
1857 733 412 824 
1858 613 612 828 
1859 746 418 813 
1860 522 761 822 
1861 572 604 842 
1862 745 417 818 
1863 666 668 832 
1864 409 743 817 
1865 596 797 810 
1866 763 629 817 
1867 813 418 841 
1868 678 551 848 
1869 599 643 844 
1870 597 682 825 
1871 624 623 841 
1872 708 593 824 
1873 757 630 812 
1874 394 749 825 
1875 418 737 841 
1876 797 407 810 
1877 420 736 830 
1878 631 780 826 
1879 417 754 818 
1880 616 614 845 
1881 605 716 835 
1882 591 728 831 
1883 723 660 838 
1884 808 397 821 
1885 635 801 815 
1886 828 420 830 
1887 415 807 814 
1888 788 745 818 
1889 801 594 815 
1890 807 598 814 
1891 618 808 821 
1892 425 798 823 
1893 794 414 839 
1894 600 786 827 
1895 798 615 823 
1896 786 710 834 
1897 736 797 830 
1898 796 599 844 
1899 414 776 839 
1900 547 792 836 
1901 546 829 833 
1902 816 606 833 
1903 664 555 801 
2 9 2 64
1904 856 849 863 
1905 849 861 863 
1906 849 856 868 
1907 857 852 858 
1908 854 857 858 
1909 57 58 852 
1910 49 50 851 
1911 51 52 853 
1912 55 56 854 
1913 53 54 850 
1914 59 60 856 
1915 63 64 855 
1916 61 62 849 
1917 861 849 872 
1918 860 858 861 
1919 858 852 863 
1920 863 852 867 
1921 862 855 869 
1922 851 862 869 
1923 854 858 859 
1924 856 863 867 
1925 860 861 862 
1926 859 858 860 
1927 50 51 866 
1928 59 856 867 
1929 60 61 868 
1930 63 855 865 
1931 851 50 866 
1932 853 52 864 
1933 56 57 857 
1934 852 58 867 
1935 52 53 864 
1936 54 55 870 
1937 854 56 857 
1938 58 59 867 
1939 855 64 869 
1940 64 49 869 
1941 49 851 869 
1942 51 853 866 
1943 57 852 857 
1944 856 60 868 
1945 850 54 870 
1946 62 63 865 
1947 849 62 865 
1948 61 849 868 
1949 53 850 864 
1950 55 854 870 
1951 861 858 863 
1952 859 860 873 
1953 855 862 872 
1954 862 861 872 
1955 859 850 870 
1956 854 859 870 
1957 871 853 873 
1958 860 871 873 
1959 850 859 873 
1960 862 851 871 
1961 860 862 871 
1962 851 866 871 
1963 866 853 871 
1964 865 855 872 
1965 849 865 872 
1966 864 850 873 
1967 853 864 873 
$EndElements
