$MeshFormat
4.1 0 8
$EndMeshFormat
$PhysicalNames
20
0 1001 "e1"
0 1002 "e2"
0 1003 "e3"
0 1004 "e4"
0 1005 "e5"
0 1006 "e6"
0 1007 "e7"
0 1008 "e8"
0 1009 "e9"
0 1010 "e10"
0 1011 "e11"
0 1012 "e12"
0 1013 "e13"
0 1014 "e14"
0 1015 "e15"
0 1016 "e16"
2 201 "Skin"
2 202 "Fat"
2 203 "Muscle"
2 204 "Bone"
$EndPhysicalNames
$Entities
65 64 4 0
1 0.04750594339248373 0.01967760604649528 0 1 1001 
2 0.03635947495035467 0.03635947495035466 0 1 1002 
3 0.01967760604649528 0.04750594339248373 0 1 1003 
4 3.148570753480233e-18 0.05142006259555638 0 1 1004 
5 -0.01967760604649528 0.04750594339248373 0 1 1005 
6 -0.03635947495035466 0.03635947495035467 0 1 1006 
7 -0.04750594339248373 0.01967760604649529 0 1 1007 
8 -0.05142006259555638 6.297141506960466e-18 0 1 1008 
9 -0.04750594339248373 -0.01967760604649528 0 1 1009 
10 -0.03635947495035467 -0.03635947495035466 0 1 1010 
11 -0.01967760604649531 -0.04750594339248371 0 1 1011 
12 -9.445712260440698e-18 -0.05142006259555638 0 1 1012 
13 0.01967760604649529 -0.04750594339248372 0 1 1013 
14 0.03635947495035465 -0.03635947495035467 0 1 1014 
15 0.04750594339248371 -0.01967760604649531 0 1 1015 
16 0.05142006259555638 -1.259428301392093e-17 0 1 1016 
17 0.04618748929080962 0.01913148447621543 0 0 
18 0.03535037386826571 0.0353503738682657 0 0 
19 0.01913148447621543 0.04618748929080962 0 0 
20 3.061187034141361e-18 0.04999297815946081 0 0 
21 -0.01913148447621543 0.04618748929080962 0 0 
22 -0.0353503738682657 0.03535037386826571 0 0 
23 -0.04618748929080962 0.01913148447621544 0 0 
24 -0.04999297815946081 6.122374068282722e-18 0 0 
25 -0.04618748929080962 -0.01913148447621543 0 0 
26 -0.03535037386826571 -0.0353503738682657 0 0 
27 -0.01913148447621546 -0.0461874892908096 0 0 
28 -9.183561102424082e-18 -0.04999297815946081 0 0 
29 0.01913148447621544 -0.04618748929080961 0 0 
30 0.03535037386826569 -0.03535037386826571 0 0 
31 0.0461874892908096 -0.01913148447621546 0 0 
32 0.04999297815946081 -1.224474813656544e-17 0 0 
33 0.03330254638828736 0.01379436637558776 0 0 
34 0.02548866551673486 0.02548866551673485 0 0 
35 0.01379436637558776 0.03330254638828736 0 0 
36 2.207206426957733e-18 0.03604641646055787 0 0 
37 -0.01379436637558775 0.03330254638828736 0 0 
38 -0.02548866551673485 0.02548866551673486 0 0 
39 -0.03330254638828736 0.01379436637558776 0 0 
40 -0.03604641646055787 4.414412853915466e-18 0 0 
41 -0.03330254638828736 -0.01379436637558775 0 0 
42 -0.02548866551673486 -0.02548866551673485 0 0 
43 -0.01379436637558778 -0.03330254638828735 0 0 
44 -6.621619280873198e-18 -0.03604641646055787 0 0 
45 0.01379436637558776 -0.03330254638828735 0 0 
46 0.02548866551673485 -0.02548866551673486 0 0 
47 0.03330254638828735 -0.01379436637558778 0 0 
48 0.03604641646055787 -8.828825707830932e-18 0 0 
49 0.009551531639918256 0.003956373946689871 0 0 
50 0.007310425824615346 0.007310425824615345 0 0 
51 0.003956373946689872 0.009551531639918256 0 0 
52 6.330507516486009e-19 0.01033850334789354 0 0 
53 -0.003956373946689871 0.009551531639918256 0 0 
54 -0.007310425824615345 0.007310425824615346 0 0 
55 -0.009551531639918256 0.003956373946689872 0 0 
56 -0.01033850334789354 1.266101503297202e-18 0 0 
57 -0.009551531639918258 -0.003956373946689871 0 0 
58 -0.007310425824615347 -0.007310425824615345 0 0 
59 -0.003956373946689878 -0.009551531639918254 0 0 
60 -1.899152254945802e-18 -0.01033850334789354 0 0 
61 0.003956373946689874 -0.009551531639918254 0 0 
62 0.007310425824615344 -0.007310425824615347 0 0 
63 0.009551531639918254 -0.003956373946689878 0 0 
64 0.01033850334789354 -2.532203006594404e-18 0 0 
1000 0 0 0 0 
1 0.03635947495035468 0.01967760604649529 0 0.04750594339248374 0.03635947495035466 0 0 2 1 -2 
2 0.01967760604649529 0.03635947495035466 0 0.03635947495035467 0.04750594339248373 0 0 2 2 -3 
3 6.938893903907228e-18 0.04750594339248374 0 0.01967760604649529 0.05142006259555638 0 0 2 3 -4 
4 -0.01967760604649528 0.04750594339248373 0 3.469446951953614e-18 0.05142006259555638 0 0 2 4 -5 
5 -0.03635947495035466 0.03635947495035467 0 -0.01967760604649528 0.04750594339248373 0 0 2 5 -6 
6 -0.04750594339248373 0.01967760604649529 0 -0.03635947495035466 0.03635947495035467 0 0 2 6 -7 
7 -0.05142006259555639 1.040834085586084e-17 0 -0.04750594339248374 0.01967760604649529 0 0 2 7 -8 
8 -0.05142006259555638 -0.01967760604649528 0 -0.04750594339248373 6.938893903907228e-18 0 0 2 8 -9 
9 -0.04750594339248373 -0.03635947495035466 0 -0.03635947495035466 -0.01967760604649527 0 0 2 9 -10 
10 -0.03635947495035467 -0.04750594339248372 0 -0.01967760604649531 -0.03635947495035466 0 0 2 10 -11 
11 -0.01967760604649531 -0.05142006259555637 0 -6.938893903907228e-18 -0.04750594339248371 0 0 2 11 -12 
12 -8.673617379884035e-18 -0.05142006259555638 0 0.0196776060464953 -0.04750594339248372 0 0 2 12 -13 
13 0.0196776060464953 -0.04750594339248373 0 0.03635947495035466 -0.03635947495035467 0 0 2 13 -14 
14 0.03635947495035466 -0.03635947495035467 0 0.04750594339248372 -0.01967760604649532 0 0 2 14 -15 
15 0.04750594339248371 -0.01967760604649531 0 0.05142006259555638 -1.040834085586084e-17 0 0 2 15 -16 
16 0.04750594339248373 -1.214306433183765e-17 0 0.05142006259555638 0.01967760604649528 0 0 2 16 -1 
17 0.03535037386826572 0.01913148447621544 0 0.04618748929080963 0.03535037386826571 0 0 2 17 -18 
18 0.01913148447621542 0.03535037386826568 0 0.0353503738682657 0.04618748929080961 0 0 2 18 -19 
19 3.469446951953614e-18 0.04618748929080962 0 0.01913148447621543 0.0499929781594608 0 0 2 19 -20 
20 -0.01913148447621543 0.04618748929080962 0 3.469446951953614e-18 0.04999297815946081 0 0 2 20 -21 
21 -0.03535037386826571 0.03535037386826572 0 -0.01913148447621544 0.04618748929080963 0 0 2 21 -22 
22 -0.04618748929080961 0.01913148447621542 0 -0.03535037386826568 0.0353503738682657 0 0 2 22 -23 
23 -0.04999297815946081 6.938893903907228e-18 0 -0.04618748929080962 0.01913148447621544 0 0 2 23 -24 
24 -0.04999297815946081 -0.01913148447621542 0 -0.04618748929080962 6.938893903907228e-18 0 0 2 24 -25 
25 -0.04618748929080962 -0.0353503738682657 0 -0.0353503738682657 -0.01913148447621542 0 0 2 25 -26 
26 -0.03535037386826569 -0.0461874892908096 0 -0.01913148447621545 -0.03535037386826569 0 0 2 26 -27 
27 -0.01913148447621546 -0.04999297815946082 0 -6.938893903907228e-18 -0.04618748929080962 0 0 2 27 -28 
28 -8.673617379884035e-18 -0.04999297815946081 0 0.01913148447621545 -0.04618748929080961 0 0 2 28 -29 
29 0.01913148447621545 -0.04618748929080962 0 0.0353503738682657 -0.03535037386826571 0 0 2 29 -30 
30 0.03535037386826571 -0.03535037386826572 0 0.04618748929080962 -0.01913148447621547 0 0 2 30 -31 
31 0.04618748929080962 -0.01913148447621547 0 0.04999297815946083 -1.040834085586084e-17 0 0 2 31 -32 
32 0.04618748929080962 -1.214306433183765e-17 0 0.04999297815946081 0.01913148447621543 0 0 2 32 -17 
33 0.02548866551673486 0.01379436637558776 0 0.03330254638828736 0.02548866551673486 0 0 2 33 -34 
34 0.01379436637558776 0.02548866551673485 0 0.02548866551673486 0.03330254638828736 0 0 2 34 -35 
35 -3.469446951953614e-18 0.03330254638828734 0 0.01379436637558775 0.03604641646055785 0 0 2 35 -36 
36 -0.01379436637558775 0.03330254638828736 0 2.602085213965211e-18 0.03604641646055787 0 0 2 36 -37 
37 -0.02548866551673486 0.02548866551673486 0 -0.01379436637558776 0.03330254638828736 0 0 2 37 -38 
38 -0.03330254638828736 0.01379436637558776 0 -0.02548866551673485 0.02548866551673486 0 0 2 38 -39 
39 -0.03604641646055785 -1.734723475976807e-18 0 -0.03330254638828734 0.01379436637558775 0 0 2 39 -40 
40 -0.03604641646055787 -0.01379436637558775 0 -0.03330254638828736 4.336808689942018e-18 0 0 2 40 -41 
41 -0.03330254638828736 -0.02548866551673485 0 -0.02548866551673486 -0.01379436637558775 0 0 2 41 -42 
42 -0.02548866551673487 -0.03330254638828735 0 -0.01379436637558779 -0.02548866551673485 0 0 2 42 -43 
43 -0.01379436637558777 -0.03604641646055786 0 -3.469446951953614e-18 -0.03330254638828734 0 0 2 43 -44 
44 -6.938893903907228e-18 -0.03604641646055787 0 0.01379436637558776 -0.03330254638828735 0 0 2 44 -45 
45 0.01379436637558776 -0.03330254638828734 0 0.02548866551673484 -0.02548866551673486 0 0 2 45 -46 
46 0.02548866551673485 -0.02548866551673486 0 0.03330254638828735 -0.01379436637558778 0 0 2 46 -47 
47 0.03330254638828734 -0.01379436637558777 0 0.03604641646055787 -1.734723475976807e-18 0 0 2 47 -48 
48 0.03330254638828735 -8.673617379884035e-18 0 0.03604641646055787 0.01379436637558775 0 0 2 48 -33 
49 0.007310425824615343 0.003956373946689871 0 0.009551531639918254 0.007310425824615345 0 0 2 49 -50 
50 0.003956373946689871 0.007310425824615345 0 0.007310425824615346 0.009551531639918256 0 0 2 50 -51 
51 8.673617379884035e-19 0.009551531639918256 0 0.003956373946689872 0.01033850334789354 0 0 2 51 -52 
52 -0.003956373946689871 0.009551531639918256 0 4.336808689942018e-19 0.01033850334789354 0 0 2 52 -53 
53 -0.007310425824615345 0.007310425824615343 0 -0.003956373946689868 0.009551531639918256 0 0 2 53 -54 
54 -0.009551531639918256 0.003956373946689871 0 -0.007310425824615345 0.007310425824615346 0 0 2 54 -55 
55 -0.01033850334789354 8.673617379884035e-19 0 -0.009551531639918256 0.003956373946689872 0 0 2 55 -56 
56 -0.01033850334789354 -0.00395637394668987 0 -0.009551531639918256 1.301042606982605e-18 0 0 2 56 -57 
57 -0.009551531639918261 -0.007310425824615347 0 -0.007310425824615351 -0.003956373946689872 0 0 2 57 -58 
58 -0.007310425824615346 -0.009551531639918254 0 -0.003956373946689878 -0.007310425824615346 0 0 2 58 -59 
59 -0.003956373946689881 -0.01033850334789354 0 -4.77048955893622e-18 -0.009551531639918254 0 0 2 59 -60 
60 -1.734723475976807e-18 -0.01033850334789354 0 0.003956373946689874 -0.009551531639918254 0 0 2 60 -61 
61 0.003956373946689874 -0.009551531639918254 0 0.007310425824615344 -0.007310425824615347 0 0 2 61 -62 
62 0.007310425824615345 -0.007310425824615347 0 0.009551531639918254 -0.003956373946689878 0 0 2 62 -63 
63 0.009551531639918254 -0.003956373946689881 0 0.01033850334789354 -4.77048955893622e-18 0 0 2 63 -64 
64 0.009551531639918256 -2.602085213965211e-18 0 0.01033850334789354 0.003956373946689871 0 0 2 64 -49 
6 -0.05142006259555639 -0.05142006259555638 0 0.05142006259555638 0.05142006259555638 0 1 201 32 1 2 3 4 5 6 7 8 9 10 11 12 13 14 15 16 -32 -31 -30 -29 -28 -27 -26 -25 -24 -23 -22 -21 -20 -19 -18 -17 
7 -0.0499929781594608 -0.04999297815946082 0 0.04999297815946083 0.04999297815946081 0 1 202 32 17 18 19 20 21 22 23 24 25 26 27 28 29 30 31 32 -48 -47 -46 -45 -44 -43 -42 -41 -40 -39 -38 -37 -36 -35 -34 -33 
8 -0.03604641646055787 -0.03604641646055787 0 0.03604641646055787 0.03604641646055787 0 1 203 32 33 34 35 36 37 38 39 40 41 42 43 44 45 46 47 48 -64 -63 -62 -61 -60 -59 -58 -57 -56 -55 -54 -53 -52 -51 -50 -49 
9 -0.01033850334789354 -0.01033850334789354 0 0.01033850334789354 0.01033850334789354 0 1 204 16 49 50 51 52 53 54 55 56 57 58 59 60 61 62 63 64 
$EndEntities
$Nodes
116 598 1 599
0 1 0 1
1
0.04750594339248373 0.01967760604649528 0
0 2 0 1
2
0.03635947495035467 0.03635947495035466 0
0 3 0 1
3
0.01967760604649528 0.04750594339248373 0
0 4 0 1
4
3.148570753480233e-18 0.05142006259555638 0
0 5 0 1
5
-0.01967760604649528 0.04750594339248373 0
0 6 0 1
6
-0.03635947495035466 0.03635947495035467 0
0 7 0 1
7
-0.04750594339248373 0.01967760604649529 0
0 8 0 1
8
-0.05142006259555638 6.297141506960466e-18 0
0 9 0 1
9
-0.04750594339248373 -0.01967760604649528 0
0 10 0 1
10
-0.03635947495035467 -0.03635947495035466 0
0 11 0 1
11
-0.01967760604649531 -0.04750594339248371 0
0 12 0 1
12
-9.445712260440698e-18 -0.05142006259555638 0
0 13 0 1
13
0.01967760604649529 -0.04750594339248372 0
0 14 0 1
14
0.03635947495035465 -0.03635947495035467 0
0 15 0 1
15
0.04750594339248371 -0.01967760604649531 0
0 16 0 1
16
0.05142006259555638 -1.259428301392093e-17 0
0 17 0 1
17
0.04618748929080962 0.01913148447621543 0
0 18 0 1
18
0.03535037386826571 0.0353503738682657 0
0 19 0 1
19
0.01913148447621543 0.04618748929080962 0
0 20 0 1
20
3.061187034141361e-18 0.04999297815946081 0
0 21 0 1
21
-0.01913148447621543 0.04618748929080962 0
0 22 0 1
22
-0.0353503738682657 0.03535037386826571 0
0 23 0 1
23
-0.04618748929080962 0.01913148447621544 0
0 24 0 1
24
-0.04999297815946081 6.122374068282722e-18 0
0 25 0 1
25
-0.04618748929080962 -0.01913148447621543 0
0 26 0 1
26
-0.03535037386826571 -0.0353503738682657 0
0 27 0 1
27
-0.01913148447621546 -0.0461874892908096 0
0 28 0 1
28
-9.183561102424082e-18 -0.04999297815946081 0
0 29 0 1
29
0.01913148447621544 -0.04618748929080961 0
0 30 0 1
30
0.03535037386826569 -0.03535037386826571 0
0 31 0 1
31
0.0461874892908096 -0.01913148447621546 0
0 32 0 1
32
0.04999297815946081 -1.224474813656544e-17 0
0 33 0 1
33
0.03330254638828736 0.01379436637558776 0
0 34 0 1
34
0.02548866551673486 0.02548866551673485 0
0 35 0 1
35
0.01379436637558776 0.03330254638828736 0
0 36 0 1
36
2.207206426957733e-18 0.03604641646055787 0
0 37 0 1
37
-0.01379436637558775 0.03330254638828736 0
0 38 0 1
38
-0.02548866551673485 0.02548866551673486 0
0 39 0 1
39
-0.03330254638828736 0.01379436637558776 0
0 40 0 1
40
-0.03604641646055787 4.414412853915466e-18 0
0 41 0 1
41
-0.03330254638828736 -0.01379436637558775 0
0 42 0 1
42
-0.02548866551673486 -0.02548866551673485 0
0 43 0 1
43
-0.01379436637558778 -0.03330254638828735 0
0 44 0 1
44
-6.621619280873198e-18 -0.03604641646055787 0
0 45 0 1
45
0.01379436637558776 -0.03330254638828735 0
0 46 0 1
46
0.02548866551673485 -0.02548866551673486 0
0 47 0 1
47
0.03330254638828735 -0.01379436637558778 0
0 48 0 1
48
0.03604641646055787 -8.828825707830932e-18 0
0 49 0 1
49
0.009551531639918256 0.003956373946689871 0
0 50 0 1
50
0.007310425824615346 0.007310425824615345 0
0 51 0 1
51
0.003956373946689872 0.009551531639918256 0
0 52 0 1
52
6.330507516486009e-19 0.01033850334789354 0
0 53 0 1
53
-0.003956373946689871 0.009551531639918256 0
0 54 0 1
54
-0.007310425824615345 0.007310425824615346 0
0 55 0 1
55
-0.009551531639918256 0.003956373946689872 0
0 56 0 1
56
-0.01033850334789354 1.266101503297202e-18 0
0 57 0 1
57
-0.009551531639918258 -0.003956373946689871 0
0 58 0 1
58
-0.007310425824615347 -0.007310425824615345 0
0 59 0 1
59
-0.003956373946689878 -0.009551531639918254 0
0 60 0 1
60
-1.899152254945802e-18 -0.01033850334789354 0
0 61 0 1
61
0.003956373946689874 -0.009551531639918254 0
0 62 0 1
62
0.007310425824615344 -0.007310425824615347 0
0 63 0 1
63
0.009551531639918254 -0.003956373946689878 0
0 64 0 1
64
0.01033850334789354 -2.532203006594404e-18 0
1 1 0 4
66
67
68
69
0.04581561124388386 0.02334421992014813 0
0.04384281061593136 0.02686690891462049 0
0.04159970448298417 0.03022395447752203 0
0.03910012234583127 0.0333946593016303 0
1 2 0 4
70
71
72
73
0.03339465929261069 0.03910012235353474 0
0.03022395445591455 0.04159970449868292 0
0.02686690889359678 0.04384281062881469 0
0.0233442199096407 0.04581561124923765 0
1 3 0 4
74
75
76
77
0.01588967318640532 0.04890338560222768 0
0.01200377520123715 0.04999932217789658 0
0.008043869961013883 0.05078699630201845 0
0.004034371600666642 0.05126155170416393 0
1 4 0 4
78
79
80
81
-0.004034371624152911 0.05126155170231551 0
-0.00804387000572368 0.0507869962949371 0
-0.01200377524267139 0.04999932216794909 0
-0.01588967320331155 0.0489033855967345 0
1 5 0 4
82
83
84
85
-0.02334421991908704 0.0458156112444245 0
-0.02686690891907623 0.04384281061320087 0
-0.03022395448310682 0.04159970447892658 0
-0.03339465930726416 0.0391001223410195 0
1 6 0 4
86
87
88
89
-0.03910012235874848 0.03339465928650617 0
-0.04159970451023326 0.03022395444001687 0
-0.04384281063849188 0.02686690887780505 0
-0.0458156112553485 0.02334421989764748 0
1 7 0 4
90
91
92
93
-0.04890338560222916 0.01588967318640072 0
-0.04999932217701426 0.01200377520491232 0
-0.05078699630137708 0.008043869965063325 0
-0.05126155170366292 0.004034371607032516 0
1 8 0 4
94
95
96
97
-0.05126155170221167 -0.00403437162547222 0
-0.05078699629449289 -0.008043870008528355 0
-0.04999932216654237 -0.01200377524853081 0
-0.04890338559638726 -0.01588967320438023 0
1 9 0 4
98
99
100
101
-0.04581561124302638 -0.02334421992183097 0
-0.04384281061316797 -0.0268669089191299 0
-0.04159970447709983 -0.03022395448562111 0
-0.03910012234248284 -0.03339465930555079 0
1 10 0 4
102
103
104
105
-0.03339465928315245 -0.03910012236161284 0
-0.0302239544338479 -0.04159970451471528 0
-0.02686690888226073 -0.04384281063576143 0
-0.02334421990810757 -0.04581561125001882 0
1 11 0 4
106
107
108
109
-0.01588967319265038 -0.04890338560019852 0
-0.01200377520962204 -0.04999932217588354 0
-0.008043869972066997 -0.0507869963002678 0
-0.004034371603979988 -0.05126155170390315 0
1 12 0 4
110
111
112
113
0.004034371626193775 -0.05126155170215489 0
0.00804387000874735 -0.0507869962944582 0
0.01200377524717299 -0.04999932216686835 0
0.01588967320590804 -0.04890338559589084 0
1 13 0 4
114
115
116
117
0.02334421991619655 -0.04581561124589728 0
0.02686690890950806 -0.04384281061906425 0
0.03022395447203944 -0.0415997044869675 0
0.03339465930456979 -0.03910012234332071 0
1 14 0 4
118
119
120
121
0.0391001223520489 -0.03339465929435039 0
0.04159970449885948 -0.03022395445567154 0
0.0438428106229975 -0.02686690890308958 0
0.04581561124449839 -0.02334421991894204 0
1 15 0 4
122
123
124
125
0.04890338560176169 -0.01588967318783944 0
0.04999932217606794 -0.01200377520885394 0
0.05078699630032513 -0.00804386997170504 0
0.05126155170391155 -0.004034371603873366 0
1 16 0 4
126
127
128
129
0.05126155170237592 0.004034371623385336 0
0.05078699629536065 0.008043870003049484 0
0.04999932216834815 0.01200377524100915 0
0.04890338559777483 0.01588967320010975 0
1 17 0 3
130
131
132
0.04408987050109207 0.02356652677950777 0
0.04156764215203484 0.0277746105494335 0
0.03864509469713629 0.03171520961781105 0
1 18 0 3
133
134
135
0.03171520958547117 0.03864509472367691 0
0.02777461049765725 0.04156764218663059 0
0.02356652675383383 0.04408987051481506 0
1 19 0 3
136
137
138
0.01451219551462421 0.04784029730883418 0
0.009753146173487269 0.0490323771091196 0
0.004900168738901077 0.04975224830681144 0
1 20 0 3
139
140
141
-0.004900168767241139 0.04975224830402019 0
-0.009753146230742544 0.04903237709773082 0
-0.01451219554141834 0.04784029730070626 0
1 21 0 3
142
143
144
-0.02356652677950777 0.04408987050109207 0
-0.0277746105494335 0.04156764215203484 0
-0.03171520961781105 0.03864509469713629 0
1 22 0 3
145
146
147
-0.03864509472367691 0.03171520958547117 0
-0.04156764218663059 0.02777461049765725 0
-0.04408987051481506 0.02356652675383383 0
1 23 0 3
148
149
150
-0.04784029730982536 0.01451219551135674 0
-0.04903237710908191 0.00975314617367681 0
-0.04975224830683282 0.00490016873868403 0
1 24 0 3
151
152
153
-0.04975224830362299 -0.004900168771273958 0
-0.04903237709627345 -0.009753146238069221 0
-0.04784029729898463 -0.01451219554709379 0
1 25 0 3
154
155
156
-0.04408987050242784 -0.02356652677700871 0
-0.04156764215609558 -0.02777461054335615 0
-0.03864509470097351 -0.03171520961313537 0
1 26 0 3
157
158
159
-0.03171520958315843 -0.03864509472557492 0
-0.0277746104987472 -0.04156764218590232 0
-0.02356652675212284 -0.04408987051572959 0
1 27 0 3
160
161
162
-0.01451219551336872 -0.04784029730921503 0
-0.009753146171809312 -0.04903237710945339 0
-0.004900168736099707 -0.04975224830708736 0
1 28 0 3
163
164
165
0.004900168766417901 -0.04975224830410127 0
0.00975314622851239 -0.04903237709817442 0
0.01451219554154842 -0.0478402973006668 0
1 29 0 3
166
167
168
0.02356652677112728 -0.04408987050557154 0
0.02777461053846462 -0.04156764215936401 0
0.03171520960704068 -0.0386450947059753 0
1 30 0 3
169
170
171
0.03864509471922582 -0.0317152095908949 0
0.0415676421774046 -0.02777461051146498 0
0.04408987050699795 -0.02356652676845867 0
1 31 0 3
172
173
174
0.04784029730722193 -0.01451219551993911 0
0.04903237710728094 -0.009753146182730932 0
0.04975224830672645 -0.004900168739764139 0
1 32 0 3
175
176
177
0.04975224830407884 0.004900168766645566 0
0.04903237709790468 0.009753146229868483 0
0.04784029730052889 0.01451219554200306 0
1 33 0 2
178
179
0.03121711236122284 0.01802320824589134 0
0.02859754489827963 0.02194366800329558 0
1 34 0 2
180
181
0.02194366798415583 0.02859754491296607 0
0.01802320821896174 0.03121711237677065 0
1 35 0 2
182
183
0.009329499072118235 0.03481816460859649 0
0.004705001472423889 0.0357380343722548 0
1 36 0 2
184
185
-0.004705001498177216 0.03573803436886432 0
-0.009329499100363046 0.03481816460102833 0
1 37 0 2
186
187
-0.01802320824844992 0.03121711235974564 0
-0.0219436680069769 0.02859754489545484 0
1 38 0 2
188
189
-0.02859754491296607 0.02194366798415583 0
-0.03121711237677065 0.01802320821896174 0
1 39 0 2
190
191
-0.03481816460884547 0.009329499071189053 0
-0.03573803437238119 0.004705001471463846 0
1 40 0 2
192
193
-0.03573803436886432 -0.004705001498177214 0
-0.03481816460102833 -0.009329499100363044 0
1 41 0 2
194
195
-0.0312171123613211 -0.01802320824572115 0
-0.02859754489639451 -0.02194366800575231 0
1 42 0 2
196
197
-0.0219436679862182 -0.02859754491138357 0
-0.01802320821850044 -0.03121711237703699 0
1 43 0 2
198
199
-0.009329499076311719 -0.03481816460747286 0
-0.004705001466289318 -0.03573803437306244 0
1 44 0 2
200
201
0.004705001495492989 -0.03573803436921771 0
0.009329499102597597 -0.03481816460042958 0
1 45 0 2
202
203
0.01802320825214012 -0.03121711235761509 0
0.02194366801037489 -0.02859754489284747 0
1 46 0 2
204
205
0.02859754491031958 -0.0219436679876048 0
0.03121711237415292 -0.01802320822349578 0
1 47 0 2
206
207
0.03481816460767322 -0.009329499075563935 0
0.03573803437306866 -0.004705001466242024 0
1 48 0 2
208
209
0.03573803436920051 0.004705001495623575 0
0.0348181646005693 0.009329499102076165 0
2 6 0 0
2 7 0 160
210
211
212
213
214
215
216
217
218
219
220
221
222
223
224
225
226
227
228
229
230
231
232
233
234
235
236
237
238
239
240
241
242
243
244
245
246
247
248
249
250
251
252
253
254
255
256
257
258
259
260
261
262
263
264
265
266
267
268
269
270
271
272
273
274
275
276
277
278
279
280
281
282
283
284
285
286
287
288
289
290
291
292
293
294
295
296
297
298
299
300
301
302
303
304
305
306
307
308
309
310
311
312
313
314
315
316
317
318
319
320
321
322
323
324
325
326
327
328
329
330
331
332
333
334
335
336
337
338
339
340
341
342
343
344
345
346
347
348
349
350
351
352
353
354
355
356
357
358
359
360
361
362
363
364
365
366
367
368
369
-0.002574321094152768 -0.03995230538610543 0
-0.02643022616006048 0.03007086596746419 0
0.03995230538612896 -0.002574321094131093 0
0.02643022615971463 -0.03007086596375762 0
-0.01766744792850259 -0.03592596719235894 0
-0.03007086596921148 -0.02643022616023378 0
-0.03789626725884802 -0.01291072278594867 0
0.01291072278686733 -0.0378962672566755 0
0.03789626725723697 0.01291072278647187 0
-0.03592596719235361 0.01766744792849471 0
0.01766744792853417 0.03592596719235143 0
0.03007086597182303 0.02643022616042562 0
-0.03995230538968212 0.002574321097171026 0
0.002574321097758229 0.0399523053903704 0
-0.01291072278606624 0.0378962672588476 0
0.03592596719485864 -0.01766744793330643 0
0.03763186247386613 -0.02813697259853919 0
0.0115940827831806 0.04553486076096508 0
0.02399975426024524 -0.04039626338480773 0
-0.04553486076143981 0.01159408278181814 0
0.02813697258914249 0.03763186247875935 0
-0.03763186247832701 0.02813697258933033 0
0.04039626338349257 0.02399975426372256 0
-0.006713901022196342 0.04650558926805898 0
-0.02813697258882315 -0.03763186247905714 0
-0.04650558926708038 -0.006713901025836306 0
-0.02399975426519856 0.04039626338171008 0
-0.04039626338442311 -0.02399975426187631 0
0.04650558926734561 0.006713901021667398 0
-0.01159408277971491 -0.04553486076020805 0
0.006713901021309163 -0.04650558926730199 0
0.04553486075939561 -0.0115940827848929 0
0.01761694270071728 -0.03547049058970694 0
-0.01761694269898706 0.0354704905920302 0
0.03547049059361164 0.01761694269723691 0
-0.035470490593216 -0.0176169426977533 0
-0.03753848407634972 0.01262436478584776 0
0.01262436478649097 0.03753848407635735 0
-0.002701963694675719 0.03951217236778813 0
-0.0298499018710684 0.02602874816874052 0
0.02602874816997716 0.02984990187180297 0
-0.0395121723673391 -0.002701963694899989 0
0.002701963695051837 -0.0395121723655374 0
0.03951217236576662 0.002701963694937086 0
-0.02602874816979809 -0.02984990187115022 0
0.03753848407683328 -0.01262436478624591 0
0.02984990186991764 -0.02602874817131044 0
-0.01262436478532618 -0.03753848407539735 0
-0.007534759217577016 -0.03879413512385588 0
0.03879413512429521 -0.007534759217465011 0
-0.02180708261189489 -0.03295767990321347 0
0.007884662960065729 -0.03872453494297489 0
0.03872453494333322 0.007884662959762615 0
0.02180708261184318 0.03295767990366513 0
-0.03295767990340511 0.02180708261167576 0
-0.03872453494434887 -0.007884662959477635 0
0.03295767990305556 -0.0218070826169495 0
-0.02210371667981775 0.03275947535409076 0
-0.007884662959486999 0.03872453494472684 0
0.007534759221188072 0.0387941351262826 0
-0.03275947535596491 -0.02210371667882963 0
-0.03879413512608592 0.007534759220279357 0
0.03275947535787812 0.02210371667782635 0
0.02210371668214389 -0.0327594753511676 0
-0.0305499238474171 0.03032848624888571 0
0.0001565800274450668 -0.04304753660633163 0
0.03032848625121179 0.03054992384767052 0
-0.03971081741516651 -0.01661824014613426 0
-0.03983065858005026 0.01632891798145711 0
0.01661824014826911 -0.03971081741383023 0
0.01632891798191925 0.03983065857995519 0
0.04304753660687063 0.0001565800275310615 0
0.03971081741488708 0.01661824014679972 0
-0.04304753660838537 -0.0001565800267106835 0
0.03054992384758257 -0.03032848625113219 0
-0.0001565800257519845 0.04304753660918934 0
-0.03032848625045873 -0.03054992384790287 0
-0.01632891798089083 -0.03983065857884403 0
-0.016618240147553 0.03971081741462905 0
0.03983065858117256 -0.01632891798468763 0
-0.02637885793755296 0.03378916957627001 0
-0.005239881609088524 -0.0425452202657409 0
0.03378916957979769 0.02637885793601832 0
0.04254522026586197 -0.005239881609711091 0
-0.02112237029677486 -0.0373014423307903 0
-0.04131187409132872 -0.01144033154873595 0
-0.03378916957862016 -0.02637885793669251 0
-0.04254522026795322 0.005239881612091803 0
-0.03730144233113264 0.02112237029637353 0
0.02112237029645811 0.03730144233127567 0
0.00523988161307902 0.04254522026811475 0
0.02637885793875924 -0.03378916957563331 0
0.01144033154971881 -0.04131187409019044 0
0.04131187409070421 0.01144033154909162 0
-0.01144033154871454 0.04131187409177995 0
0.03730144233122659 -0.02112237030311585 0
-0.03471918516534263 0.03081956024550657 0
-0.03081956024564895 -0.03471918516618568 0
0.03471918516331512 -0.03081956025217425 0
-0.04387047965951137 0.01518710396286851 0
0.03081956024548925 0.03471918516606946 0
0.002757451220709058 -0.04634289131150025 0
0.01518710396375593 0.04387047965906928 0
0.04634289131161131 0.002757451221083238 0
-0.01518710396277427 -0.04387047965819078 0
-0.04634289131113505 -0.002757451224474123 0
0.0417600178612053 0.0202822094602117 0
-0.002757451222164903 0.04634289131233685 0
-0.04176001786248557 -0.02028220945884765 0
0.02028220945797084 -0.04176001786383823 0
-0.020282209461203 0.04176001786066234 0
0.04387047965954323 -0.01518710396639529 0
-0.0309237834047764 0.03452528987838477 0
0.01535759411910666 -0.0437312282492097 0
-0.04373122824926035 -0.01535759412010696 0
-0.002546649650080702 -0.04627948354112042 0
-0.04178210699017432 0.02006318909878789 0
0.04373122824904913 0.01535759411921971 0
0.02006318909903928 0.0417821069901072 0
0.0345252898800223 0.03092378340431457 0
0.04627948354087846 -0.002546649651591023 0
0.03092378340226343 -0.03452528988116613 0
-0.01535759411920573 0.0437312282493117 0
-0.04627948354207136 0.00254664965126855 0
0.002546649652322191 0.04627948354232531 0
-0.03452528988022014 -0.03092378340351386 0
-0.02006318909833214 -0.04178210699001678 0
0.04178210698839441 -0.02006318910509928 0
0.02197555302524612 -0.03744361268754287 0
0.03463181387851144 -0.02618370733213489 0
-0.04201569501000731 0.01093756987891185 0
-0.03463181388020284 0.02618370732607019 0
-0.01093756987697455 -0.04201569500840551 0
-0.02618370732637331 -0.03463181388057657 0
0.01093756987992625 0.04201569500982612 0
0.02618370732659645 0.03463181388056593 0
0.04300306744597018 0.005973713430724248 0
0.00597371343074529 -0.04300306744567992 0
-0.02197555302608305 0.03744361268766239 0
-0.04300306744662921 -0.005973713431964203 0
-0.005973713430445799 0.043003067447309 0
0.04201569500883449 -0.01093756987972615 0
-0.0374436126896043 -0.02197555302414782 0
0.0374436126898722 0.02197555302455255 0
0.02698160482197744 -0.03796843767731886 0
0.04592661549104407 -0.007768864012452635 0
-0.00776886400779254 -0.04592661549221434 0
0.01039786039852252 -0.04540367559678053 0
-0.02698160482621811 0.03796843767571817 0
0.04540367559692026 0.01039786039870031 0
0.03945764450217282 -0.02475284931441634 0
-0.0103978603982885 0.0454036755977591 0
-0.03796843767866454 -0.02698160482302654 0
-0.03945764450630188 0.02475284930481732 0
-0.04592661549367968 0.007768864011109518 0
0.02475284930491102 0.03945764450637178 0
-0.04540367559706207 -0.01039786040161797 0
-0.02475284930436814 -0.03945764450686345 0
0.007768864012393474 0.04592661549335588 0
0.03796843767845054 0.02698160482470698 0
2 8 0 205
370
371
372
373
374
375
376
377
378
379
380
381
382
383
384
385
386
387
388
389
390
391
392
393
394
395
396
397
398
399
400
401
402
403
404
405
406
407
408
409
410
411
412
413
414
415
416
417
418
419
420
421
422
423
424
425
426
427
428
429
430
431
432
433
434
435
436
437
438
439
440
441
442
443
444
445
446
447
448
449
450
451
452
453
454
455
456
457
458
459
460
461
462
463
464
465
466
467
468
469
470
471
472
473
474
475
476
477
478
479
480
481
482
483
484
485
486
487
488
489
490
491
492
493
494
495
496
497
498
499
500
501
502
503
504
505
506
507
508
509
510
511
512
513
514
515
516
517
518
519
520
521
522
523
524
525
526
527
528
529
530
531
532
533
534
535
536
537
538
539
540
541
542
543
544
545
546
547
548
549
550
551
552
553
554
555
556
557
558
559
560
561
562
563
564
565
566
567
568
569
570
571
572
573
574
0.01144393217130453 0.007565544797589309 0
-0.008014589633597262 0.0111312504005768 0
0.007565544797584763 -0.01144393217137811 0
0.002662155897227382 0.01338378928700077 0
-0.01335104882761297 0.003144732414871692 0
-0.01133567286416116 -0.007574254454273964 0
0.01371425278751131 -0.002299243392352157 0
-0.00314445959339407 -0.01335223151080961 0
-0.006220619713138377 0.03127316708667772 0
-0.03127316708667772 -0.006220619713138375 0
0.01776724331572562 0.02640031139550432 0
-0.02661066196668565 0.01743226856795261 0
0.03124731373745139 0.006168351760940977 0
0.006168351761063043 -0.03124731373734936 0
-0.0178164227266498 -0.02654653022238898 0
0.02609730428052881 -0.01779542467386093 0
0.01771482616298165 -0.02651211088478487 0
-0.01813850687010891 0.02700719535515261 0
0.02651211088620469 0.01771482615534555 0
-0.02744798529483951 -0.01824774099125013 0
-0.03152671612962722 0.006269898150614118 0
0.006283854861330576 0.03112812400908194 0
0.0316413676090798 -0.007122838668589434 0
-0.007115416212019589 -0.03156447575375823 0
0.01385576863636227 0.004306543364605333 0
0.01546952186756126 0.007904232971634419 0
0.0131086548271983 0.01134761743615969 0
0.01785268499999212 0.004433409928557796 0
0.01970600038431893 0.008237538982373326 0
0.02209975202917634 0.004672300102566201 0
0.02015799224400224 0.0009756297907850161 0
0.02447483931988737 0.00105044326104384 0
0.02241806739320164 -0.002358051097470887 0
-0.01148671307902045 0.007675164815044502 0
-0.01198963183723219 0.0119896318372322 0
-0.009315068366583643 0.01525694958698983 0
-0.01566520892110829 0.006488741992531056 0
-0.01766088048621431 0.002767334540119635 0
-0.01333345291082295 0.01605385624512658 0
-0.01069125160712638 0.01930703006167794 0
-0.006528811232676322 0.01857832210941599 0
-0.01993941466016385 0.006315255965893074 0
-0.02191058122870113 0.002500889715180621 0
-0.01967658432286727 -0.001256046132105768 0
0.004091472463271306 -0.01335240451398624 0
0.007886797713073159 -0.01544214494432355 0
0.01134761743614417 -0.01310865482719966 0
0.004396759387840709 -0.01770447354706605 0
0.008228524682419948 -0.01967673565500979 0
0.004667883005626155 -0.02207628108064872 0
0.0008751683638721447 -0.01999106498439389 0
0.001062660271759563 -0.02447254620449466 0
-0.002796310292799556 -0.02240491620517287 0
-0.007702675032130899 -0.01142150159604609 0
-0.01199286618167442 -0.01199286618167441 0
-0.01566267120751684 -0.008756940220414717 0
-0.01608593563806969 -0.01337977551712263 0
-0.0129088205345442 -0.01600469298765053 0
-0.01965085459007673 -0.01080986552118371 0
-0.01684928130199562 -0.01768254394767473 0
-0.007925784492830983 0.02263857325510332 0
-0.003790115866842411 0.02185724410325814 0
-0.02394108426997964 -0.001366609494500957 0
0.02398167702711317 0.008596293540971228 0
0.008594054974486306 -0.0239728877473004 0
-0.01345293681755912 -0.0202426761580056 0
-0.01804424099714632 0.009865961535107989 0
-0.02228171272925068 0.009921809098121612 0
-0.02016141466210845 0.01348136536377316 0
0.0126326150484918 -0.02147598301524664 0
0.02147175177676382 0.01263063501016364 0
-0.006490492407329188 -0.0156694347962537 0
0.006520019878386457 0.01239003942194615 0
0.005335145469796047 0.01650106937269372 0
0.01224672406381644 -0.006332438009219944 0
-0.01477664896434926 0.01996617158306193 0
-0.01340116297414619 -0.004382571618754139 0
-0.001293071613438112 0.0138426246052965 0
0.01657608155512789 -0.005527533140782845 0
0.00983064252358591 0.01497287495421396 0
0.008166543157482806 0.01962802651671066 0
0.01237993401257716 0.01887993784933618 0
0.01092415728478888 0.02300046195825831 0
0.003992425196065839 0.02044445276802374 0
0.01496821290987874 -0.009837667054295427 0
0.01973231768693819 -0.008344157306101526 0
0.01887588271408652 -0.0124840573174491 0
0.02310282623122163 -0.01102466747668758 0
-0.02156081520803861 -0.005019405311028458 0
-0.02610131863603068 0.002221907444325969 0
0.02686107600647615 -0.00238682939648887 0
-0.002457836427355838 -0.02685850195596876 0
-0.006356198026170658 -0.02465927962708166 0
-0.02834640085533885 -0.001593607274851911 0
-0.005058771648474237 0.0261840449320801 0
-0.0009816992927967425 0.02516684728791988 0
-0.009403855688702081 0.02681172285010272 0
0.02902198555404688 0.001633110119079071 0
0.001623311782382626 -0.02902117435963423 0
0.01253923499742377 -0.02596635600155791 0
0.02596635600217147 0.01253923499831342 0
-0.006316217346957489 -0.0201904240134129 0
0.01515076551097063 0.02231206575319543 0
0.01669916708440732 0.01820996896492987 0
0.0194497335754821 0.02167583294988436 0
0.02154927528553772 0.01742037604363953 0
0.02222431664401813 -0.0152758141605832 0
0.01829004108323083 -0.01677402386089969 0
0.02148967108613682 -0.01957275311639186 0
0.01740602735722003 -0.02158347055521428 0
0.0239520008635133 -0.006415890127372837 0
0.02752189060974581 -0.009838633598251158 0
-0.002818224942251106 -0.01779349017919502 0
0.01597729165076592 0.0008364930486872402 0
-0.02457099910073196 0.01345903647723242 0
-0.02646465206018998 0.009752838790711139 0
-0.01743995068240075 -0.02200360100166032 0
-0.02094349535649888 -0.01917998102234629 0
0.02649695502108908 0.005185177249118539 0
0.00518447108417225 -0.02649106093133478 0
-0.01202407845266672 0.02325533768870825 0
-0.02609804519510559 -0.005349670481332273 0
-0.02748298206601689 -0.009505137462374549 0
0.01171864492088923 -0.01697667098346258 0
0.01697688376990663 0.011720955866495 0
0.006697120706997369 0.02379773839867231 0
0.009298576115230491 0.02718030076432479 0
-0.001680659325681647 0.02948812849747807 0
0.002204518404635213 0.02861275210734867 0
-0.02002393825431405 -0.01490583607529603 0
-0.02389321078153731 -0.01226884847501177 0
-0.02407057115180449 0.00605814224454037 0
-0.01758178341517979 -0.004945246327063438 0
0.00137057209741273 0.01715236675481509 0
-0.005272383091020471 0.01438746221665738 0
-0.01554063970814437 -0.0006994010982412403 0
0.000566785946556497 -0.01542202801389072 0
-0.0289076993484352 0.01363282196939882 0
-0.02140814988556655 -0.02383264440920933 0
-0.0308358421622999 0.002103786741857341 0
-0.002576774719766956 0.01776603155459534 0
-0.01762270113603823 0.01669094182673507 0
-0.01926770754139958 0.02065907662790701 0
-0.01377755537535321 0.02763953513729554 0
0.009608350365696395 -0.02808240761956402 0
0.02808485484819092 0.009608841153853525 0
0.0130587386737207 0.02661536346088216 0
-0.009943967912253859 -0.02252831136769173 0
-0.009647126351938847 -0.02742535249488995 0
-0.01376605414227587 -0.02477791880997896 0
-0.02137872813212608 0.02441279113825898 0
-0.02399478453234834 0.02114522650746992 0
-0.01393615812110773 -0.02906783355582618 0
0.01509143638493783 -0.01436870637922094 0
0.0143365301363856 0.0150809735507599 0
-0.02832130525638161 -0.01403421690918675 0
-0.002311263738341264 -0.03143552864346367 0
0.03144699680061977 -0.002300780465313305 0
0.02145690852025741 -0.02390243827996504 0
0.02387410537271891 0.0214878976421517 0
0.02911784157548223 -0.01420549677707232 0
-0.0105051792506289 0.03076902721267834 0
-0.03244797218674773 -0.002083088348862031 0
0.0001575455178058671 0.02109901021330147 0
-0.02310025986892334 -0.008433574226651617 0
0.001842489230272489 0.03248791905601461 0
-0.02220586033777846 0.01708472017554938 0
-0.0156714034098302 0.01295517634599008 0
0.002970739195639696 0.02442374258977749 0
-0.009622521986419587 -0.01804542685950607 0
0.01081093022205149 0.03074911469300036 0
0.0142180534704287 -0.02940942183099684 0
0.02940957047323432 0.01421808327741576 0
0.009630788219544932 0.01067854004708751 0
0.01068770500640789 -0.009606623577341699 0
0.02170468315296346 0.02473005048344826 0
0.0327617206115323 0.00214731662211951 0
0.002147316622075188 -0.03276172061177309 0
0.01810339260264686 -0.002134108430009575 0
0.02469859298809622 -0.02166008471381689 0
-0.01076451322739313 -0.03123567456004691 0
-0.02456650638187848 -0.02073945564068816 0
0.005566265509442088 0.02714085248514328 0
-0.03045758768864597 0.009735929468418451 0
0.02554414052863469 -0.01365034026710242 0
0.03128036215805368 -0.01085816689901293 0
-0.01452455486905881 0.009704997288794559 0
-0.02786033571297223 0.005737047397928967 0
-0.00968843440705224 -0.01449976676477738 0
-0.02400334701719256 -0.01632878100845068 0
-0.01595283220228699 0.02361078102884532 0
-0.002166531107595611 0.03305487699076471 0
-0.03114033864589387 -0.01059945791310031 0
0.01066250408473847 -0.03141072412212813 0
0.0314107241225448 0.01066250408461761 0
0.01467391366062346 0.029755753359451 0
0.01496534898517635 -0.01832825597102902 0
0.01830094721762157 0.01496063082963212 0
0.02398284601672711 0.01528684867811556 0
0.01528526763087637 -0.02399270706404931 0
0.01992770804093708 -0.00484115325841415 0
0.028117281974039 -0.005656063757401387 0
-0.005577568151165238 -0.02838862769503245 0
0.01300016041055359 0.001303028323966119 0
-0.01951127685794706 -0.007593006321268388 0
2 9 0 25
575
576
577
578
579
580
581
582
583
584
585
586
587
588
589
590
591
592
593
594
595
596
597
598
599
0.006518697149201568 0.00129664948217871 0
-0.007113655455448474 -0.001402500972439657 0
0.001296649482178712 -0.006518697149201566 0
-0.001447464832146359 0.006719005190425883 0
-0.003692545317031258 -0.005526284600372438 0
0.003873469085713498 0.005491666064060674 0
-0.005871512225494962 0.003897400430266914 0
0.005438540915688836 -0.002993405562340635 0
0.001529502349991605 0.007689327567412082 0
0.0006568994732691329 0.003369564225241633 0
-0.002975212895956271 0.003542552096443133 0
-0.001882998958826844 -3.946671761777911e-05 0
0.00175359734240596 -0.001189127702129473 0
-0.0007919876835469604 -0.0037923352584288 0
0.003409404817522547 0.001446886640173776 0
-0.001529502349991609 -0.007689327567412084 0
0.006242988973624907 0.004030472903148887 0
-0.004355654182161921 0.006518697149201566 0
0.00419317250639744 -0.006194408701131234 0
0.00796181826317555 -0.001413282506712951 0
-0.006518697149201573 -0.004355654182161921 0
-0.007569409228922517 0.001493076111331692 0
-0.003851866229387169 -0.002573734730599264 0
0.002377994512624798 -0.004137594874646341 0
-0.004877442499006039 0.0008195543695641731 0
$EndNodes
$Elements
20 1130 1 1387
0 1 15 1
1 1 
0 2 15 1
2 2 
0 3 15 1
3 3 
0 4 15 1
4 4 
0 5 15 1
5 5 
0 6 15 1
6 6 
0 7 15 1
7 7 
0 8 15 1
8 8 
0 9 15 1
9 9 
0 10 15 1
10 10 
0 11 15 1
11 11 
0 12 15 1
12 12 
0 13 15 1
13 13 
0 14 15 1
14 14 
0 15 15 1
15 15 
0 16 15 1
16 16 
2 6 2 144
274 1 66 17 
275 129 1 17 
276 18 69 2 
277 70 18 2 
278 19 73 3 
279 74 19 3 
280 4 20 77 
281 20 4 78 
282 81 5 21 
283 5 82 21 
284 85 6 22 
285 6 86 22 
286 89 7 23 
287 7 90 23 
288 93 8 24 
289 8 94 24 
290 97 9 25 
291 9 98 25 
292 101 10 26 
293 10 102 26 
294 105 11 27 
295 11 106 27 
296 109 12 28 
297 12 110 28 
298 113 13 29 
299 13 114 29 
300 117 14 30 
301 14 118 30 
302 121 15 31 
303 15 122 31 
304 125 16 32 
305 16 126 32 
306 66 130 17 
307 129 17 177 
308 18 132 69 
309 133 18 70 
310 19 135 73 
311 136 19 74 
312 20 138 77 
313 139 20 78 
314 141 81 21 
315 82 142 21 
316 144 85 22 
317 22 86 145 
318 89 23 147 
319 23 90 148 
320 93 24 150 
321 24 94 151 
322 153 97 25 
323 98 154 25 
324 156 101 26 
325 102 157 26 
326 159 105 27 
327 27 106 160 
328 109 28 162 
329 28 110 163 
330 113 29 165 
331 29 114 166 
332 117 30 168 
333 30 118 169 
334 121 31 171 
335 31 122 172 
336 125 32 174 
337 32 126 175 
338 67 130 66 
339 68 131 67 
340 131 130 67 
341 69 132 68 
342 132 131 68 
343 71 133 70 
344 72 134 71 
345 134 133 71 
346 73 135 72 
347 135 134 72 
348 136 74 75 
349 137 75 76 
350 137 136 75 
351 138 76 77 
352 138 137 76 
353 139 78 79 
354 140 79 80 
355 140 139 79 
356 141 80 81 
357 141 140 80 
358 82 83 142 
359 143 83 84 
360 83 143 142 
361 144 84 85 
362 144 143 84 
363 86 87 145 
364 87 88 146 
365 145 87 146 
366 88 89 147 
367 146 88 147 
368 90 91 148 
369 91 92 149 
370 148 91 149 
371 92 93 150 
372 92 150 149 
373 94 95 151 
374 95 96 152 
375 95 152 151 
376 96 97 153 
377 96 153 152 
378 98 99 154 
379 99 100 155 
380 99 155 154 
381 100 101 156 
382 100 156 155 
383 102 103 157 
384 103 104 158 
385 103 158 157 
386 104 105 159 
387 104 159 158 
388 106 107 160 
389 107 108 161 
390 160 107 161 
391 108 109 162 
392 161 108 162 
393 110 111 163 
394 111 112 164 
395 163 111 164 
396 112 113 165 
397 164 112 165 
398 114 115 166 
399 115 116 167 
400 166 115 167 
401 116 117 168 
402 167 116 168 
403 118 119 169 
404 119 120 170 
405 169 119 170 
406 120 121 171 
407 170 120 171 
408 122 123 172 
409 123 124 173 
410 172 123 173 
411 124 125 174 
412 173 124 174 
413 126 127 175 
414 127 128 176 
415 175 127 176 
416 128 129 177 
417 176 128 177 
2 7 2 432
418 305 266 339 
419 292 272 353 
420 300 269 344 
421 298 264 341 
422 297 271 340 
423 290 267 348 
424 296 270 352 
425 295 265 349 
426 303 262 346 
427 294 260 343 
428 302 261 347 
429 299 263 345 
430 304 268 350 
431 291 258 342 
432 301 273 338 
433 293 259 351 
434 305 339 360 
435 300 344 368 
436 297 340 364 
437 298 341 363 
438 292 353 369 
439 294 343 367 
440 299 345 365 
441 291 342 356 
442 295 349 366 
443 290 348 358 
444 303 346 359 
445 296 352 362 
446 304 350 361 
447 302 347 357 
448 293 351 355 
449 301 338 354 
450 340 229 364 
451 344 227 368 
452 341 231 363 
453 343 234 367 
454 345 230 365 
455 353 232 369 
456 349 235 366 
457 339 226 360 
458 342 239 356 
459 348 236 358 
460 350 233 361 
461 352 237 362 
462 346 238 359 
463 347 240 357 
464 351 241 355 
465 338 228 354 
466 202 242 273 
467 186 243 267 
468 198 257 258 
469 190 246 271 
470 188 249 264 
471 180 250 263 
472 194 245 270 
473 206 255 259 
474 182 247 269 
475 196 254 260 
476 192 251 265 
477 178 244 272 
478 200 252 261 
479 208 253 262 
480 184 248 268 
481 204 256 266 
482 287 314 342 
483 279 319 338 
484 275 311 347 
485 289 321 351 
486 281 313 346 
487 286 307 343 
488 276 310 345 
489 274 306 341 
490 277 318 352 
491 285 317 350 
492 283 315 349 
493 288 320 348 
494 278 309 340 
495 280 312 344 
496 282 316 353 
497 284 308 339 
498 258 257 342 
499 259 255 351 
500 261 252 347 
501 262 253 346 
502 260 254 343 
503 273 242 338 
504 267 243 348 
505 264 249 341 
506 265 251 349 
507 263 250 345 
508 270 245 352 
509 268 248 350 
510 271 246 340 
511 269 247 344 
512 272 244 353 
513 266 256 339 
514 257 287 342 
515 255 289 351 
516 252 275 347 
517 242 279 338 
518 250 276 345 
519 254 286 343 
520 253 281 346 
521 249 274 341 
522 251 283 349 
523 248 285 350 
524 243 288 348 
525 245 277 352 
526 246 278 340 
527 247 280 344 
528 244 282 353 
529 256 284 339 
530 242 217 279 
531 250 221 276 
532 245 216 277 
533 249 211 274 
534 246 219 278 
535 243 224 288 
536 247 220 280 
537 248 223 285 
538 244 218 282 
539 251 222 283 
540 257 214 287 
541 254 215 286 
542 252 210 275 
543 253 212 281 
544 255 225 289 
545 256 213 284 
546 310 276 329 
547 314 287 336 
548 307 286 335 
549 306 274 322 
550 315 283 333 
551 309 278 326 
552 321 289 337 
553 312 280 328 
554 317 285 334 
555 318 277 324 
556 311 275 325 
557 320 288 332 
558 313 281 330 
559 316 282 327 
560 308 284 331 
561 319 279 323 
562 18 310 329 
563 22 306 322 
564 27 314 336 
565 26 307 335 
566 23 309 326 
567 24 315 333 
568 19 312 328 
569 20 317 334 
570 28 311 325 
571 25 318 324 
572 32 313 330 
573 21 320 332 
574 17 316 327 
575 31 321 337 
576 29 319 323 
577 30 308 331 
578 199 198 258 
579 201 200 261 
580 197 196 260 
581 209 208 262 
582 205 204 266 
583 207 206 259 
584 189 188 264 
585 181 180 263 
586 193 192 265 
587 185 184 268 
588 183 182 269 
589 191 190 271 
590 195 194 270 
591 179 178 272 
592 187 186 267 
593 203 202 273 
594 276 221 292 
595 274 211 290 
596 277 216 295 
597 285 223 300 
598 278 219 298 
599 280 220 299 
600 283 222 297 
601 288 224 304 
602 279 217 302 
603 282 218 303 
604 287 214 294 
605 286 215 296 
606 289 225 305 
607 275 210 291 
608 281 212 293 
609 284 213 301 
610 45 217 242 
611 37 224 243 
612 41 216 245 
613 39 219 246 
614 38 211 249 
615 34 221 250 
616 35 220 247 
617 33 218 244 
618 36 223 248 
619 40 222 251 
620 44 210 252 
621 43 214 257 
622 42 215 254 
623 48 212 253 
624 47 225 255 
625 46 213 256 
626 136 137 227 
627 160 161 239 
628 148 149 229 
629 133 134 230 
630 145 146 231 
631 130 131 232 
632 166 167 228 
633 151 152 235 
634 142 143 236 
635 172 173 241 
636 139 140 233 
637 157 158 234 
638 175 176 238 
639 154 155 237 
640 169 170 226 
641 163 164 240 
642 34 179 221 
643 47 205 225 
644 38 187 211 
645 36 183 223 
646 40 191 222 
647 43 197 214 
648 41 193 216 
649 42 195 215 
650 35 181 220 
651 39 189 219 
652 44 199 210 
653 37 185 224 
654 48 207 212 
655 33 209 218 
656 45 201 217 
657 46 203 213 
658 202 45 242 
659 186 37 243 
660 178 33 244 
661 194 41 245 
662 190 39 246 
663 182 35 247 
664 188 38 249 
665 192 40 251 
666 184 36 248 
667 180 34 250 
668 204 46 256 
669 208 48 253 
670 200 44 252 
671 196 42 254 
672 198 43 257 
673 206 47 255 
674 225 205 266 
675 221 179 272 
676 223 183 269 
677 222 191 271 
678 219 189 264 
679 211 187 267 
680 215 195 270 
681 220 181 263 
682 216 193 265 
683 214 197 260 
684 224 185 268 
685 218 209 262 
686 217 201 261 
687 210 199 258 
688 213 203 273 
689 212 207 259 
690 221 272 292 
691 225 266 305 
692 223 269 300 
693 211 267 290 
694 222 271 297 
695 216 265 295 
696 219 264 298 
697 214 260 294 
698 215 270 296 
699 220 263 299 
700 224 268 304 
701 210 258 291 
702 218 262 303 
703 217 261 302 
704 212 259 293 
705 213 273 301 
706 132 329 369 
707 144 322 358 
708 153 324 366 
709 156 335 362 
710 165 323 357 
711 177 327 359 
712 138 334 368 
713 141 332 361 
714 147 326 363 
715 135 328 365 
716 174 330 355 
717 150 333 364 
718 171 337 360 
719 162 325 356 
720 168 331 354 
721 159 336 367 
722 323 302 357 
723 329 292 369 
724 332 304 361 
725 327 303 359 
726 337 305 360 
727 322 290 358 
728 324 295 366 
729 335 296 362 
730 331 301 354 
731 326 298 363 
732 328 299 365 
733 334 300 368 
734 333 297 364 
735 330 293 355 
736 325 291 356 
737 336 294 367 
738 319 228 338 
739 311 240 347 
740 318 237 352 
741 321 241 351 
742 313 238 346 
743 320 236 348 
744 317 233 350 
745 308 226 339 
746 314 239 342 
747 315 235 349 
748 316 232 353 
749 306 231 341 
750 307 234 343 
751 310 230 345 
752 309 229 340 
753 312 227 344 
754 276 292 329 
755 277 295 324 
756 274 290 322 
757 278 298 326 
758 285 300 334 
759 280 299 328 
760 283 297 333 
761 288 304 332 
762 279 302 323 
763 282 303 327 
764 289 305 337 
765 286 296 335 
766 287 294 336 
767 275 291 325 
768 281 293 330 
769 284 301 331 
770 26 157 307 
771 22 145 306 
772 18 133 310 
773 23 148 309 
774 27 160 314 
775 19 136 312 
776 24 151 315 
777 28 163 311 
778 25 154 318 
779 20 139 317 
780 32 175 313 
781 17 130 316 
782 21 142 320 
783 30 169 308 
784 29 166 319 
785 31 172 321 
786 143 144 358 
787 131 132 369 
788 155 156 362 
789 161 162 356 
790 152 153 366 
791 173 174 355 
792 137 138 368 
793 158 159 367 
794 149 150 364 
795 146 147 363 
796 134 135 365 
797 167 168 354 
798 176 177 359 
799 164 165 357 
800 140 141 361 
801 170 171 360 
802 144 22 322 
803 171 31 337 
804 132 18 329 
805 162 28 325 
806 159 27 336 
807 138 20 334 
808 153 25 324 
809 150 24 333 
810 156 26 335 
811 147 23 326 
812 135 19 328 
813 174 32 330 
814 177 17 327 
815 165 29 323 
816 141 21 332 
817 168 30 331 
818 166 228 319 
819 130 232 316 
820 154 237 318 
821 142 236 320 
822 157 234 307 
823 145 231 306 
824 163 240 311 
825 169 226 308 
826 175 238 313 
827 136 227 312 
828 148 229 309 
829 133 230 310 
830 139 233 317 
831 151 235 315 
832 160 239 314 
833 172 241 321 
834 227 137 368 
835 239 161 356 
836 229 149 364 
837 231 146 363 
838 230 134 365 
839 235 152 366 
840 236 143 358 
841 232 131 369 
842 233 140 361 
843 234 158 367 
844 241 173 355 
845 238 176 359 
846 237 155 362 
847 240 164 357 
848 226 170 360 
849 228 167 354 
2 8 2 474
850 37 186 513 
851 53 447 504 
852 446 56 505 
853 414 60 506 
854 500 492 525 
855 191 40 509 
856 500 525 559 
857 396 449 543 
858 416 454 544 
859 449 396 524 
860 403 371 404 
861 374 403 406 
862 413 502 505 
863 454 416 523 
864 423 375 424 
865 377 423 441 
866 53 52 447 
867 57 56 446 
868 464 378 466 
869 61 60 414 
870 51 50 442 
871 63 62 444 
872 463 379 491 
873 54 371 403 
874 374 55 403 
875 58 375 423 
876 377 59 423 
877 37 513 531 
878 475 388 529 
879 479 386 528 
880 442 50 543 
881 444 62 544 
882 425 375 446 
883 502 446 505 
884 371 53 504 
885 56 374 505 
886 186 387 513 
887 60 377 506 
888 380 472 474 
889 491 379 492 
890 390 191 509 
891 385 476 478 
892 455 480 570 
893 509 40 532 
894 455 457 480 
895 471 422 482 
896 527 460 571 
897 526 461 572 
898 425 446 502 
899 441 471 482 
900 467 460 527 
901 468 461 526 
902 388 475 568 
903 520 512 560 
904 467 382 488 
905 468 383 489 
906 511 512 536 
907 474 475 529 
908 525 389 559 
909 386 479 569 
910 478 479 528 
911 518 393 572 
912 387 520 560 
913 38 188 521 
914 393 518 550 
915 381 189 507 
916 196 384 508 
917 551 487 559 
918 469 514 541 
919 470 515 542 
920 496 516 540 
921 389 551 559 
922 378 464 497 
923 541 514 563 
924 542 515 564 
925 485 553 557 
926 413 458 502 
927 540 516 565 
928 392 527 571 
929 393 526 572 
930 435 517 539 
931 466 378 531 
932 422 420 482 
933 449 442 543 
934 454 444 544 
935 497 498 535 
936 553 390 557 
937 380 474 545 
938 481 392 571 
939 385 478 549 
940 379 463 532 
941 480 402 570 
942 392 481 555 
943 396 494 524 
944 420 417 506 
945 416 493 523 
946 188 381 521 
947 404 371 405 
948 374 406 407 
949 382 467 546 
950 383 468 547 
951 377 441 482 
952 497 535 561 
953 424 375 425 
954 480 457 481 
955 189 39 507 
956 524 494 567 
957 523 493 566 
958 42 196 508 
959 438 511 536 
960 483 376 548 
961 484 381 507 
962 492 500 534 
963 482 420 506 
964 384 486 508 
965 198 199 393 
966 206 207 392 
967 202 203 386 
968 194 195 389 
969 186 187 387 
970 190 191 390 
971 182 183 391 
972 178 179 388 
973 200 201 383 
974 208 209 382 
975 196 197 384 
976 180 181 380 
977 188 189 381 
978 184 185 378 
979 192 193 379 
980 204 205 385 
981 376 448 548 
982 489 383 514 
983 488 382 515 
984 435 486 519 
985 391 496 540 
986 462 422 471 
987 386 469 541 
988 388 470 542 
989 511 438 537 
990 517 471 539 
991 472 380 516 
992 469 386 569 
993 470 388 568 
994 500 428 534 
995 400 397 483 
996 399 397 400 
997 419 417 420 
998 407 412 413 
999 409 405 410 
1000 476 456 477 
1001 472 451 473 
1002 478 477 479 
1003 474 473 475 
1004 438 436 537 
1005 397 394 483 
1006 430 410 431 
1007 401 400 402 
1008 421 420 422 
1009 520 38 521 
1010 413 432 458 
1011 404 405 408 
1012 427 435 539 
1013 407 406 411 
1014 425 502 574 
1015 424 425 426 
1016 417 414 506 
1017 464 431 465 
1018 460 402 480 
1019 50 49 370 
1020 54 53 371 
1021 62 61 372 
1022 52 51 373 
1023 56 55 374 
1024 58 57 375 
1025 64 63 376 
1026 60 59 377 
1027 512 521 536 
1028 461 422 462 
1029 496 391 552 
1030 418 434 439 
1031 398 433 440 
1032 424 426 427 
1033 411 406 436 
1034 428 425 574 
1035 486 429 487 
1036 55 54 403 
1037 476 477 478 
1038 413 412 432 
1039 409 410 430 
1040 472 473 474 
1041 399 400 401 
1042 419 420 421 
1043 437 484 485 
1044 59 58 423 
1045 437 436 438 
1046 372 415 416 
1047 370 395 396 
1048 407 411 412 
1049 408 405 409 
1050 427 429 435 
1051 430 431 464 
1052 426 425 428 
1053 401 402 460 
1054 421 422 461 
1055 430 464 466 
1056 443 450 453 
1057 457 456 476 
1058 52 373 447 
1059 375 57 446 
1060 370 49 394 
1061 372 61 414 
1062 497 465 498 
1063 373 51 442 
1064 376 63 444 
1065 435 429 486 
1066 401 460 467 
1067 421 461 468 
1068 452 451 472 
1069 432 412 459 
1070 439 434 469 
1071 440 433 470 
1072 455 454 456 
1073 437 438 484 
1074 398 397 399 
1075 418 417 419 
1076 427 426 429 
1077 450 449 451 
1078 432 459 463 
1079 411 436 437 
1080 408 409 445 
1081 415 414 417 
1082 395 394 397 
1083 455 456 457 
1084 443 442 449 
1085 450 451 452 
1086 418 419 434 
1087 398 399 433 
1088 415 417 418 
1089 395 397 398 
1090 443 449 450 
1091 448 444 454 
1092 372 414 415 
1093 370 394 395 
1094 486 384 519 
1095 373 442 443 
1096 458 432 491 
1097 448 454 455 
1098 418 439 493 
1099 398 440 494 
1100 376 444 448 
1101 464 465 497 
1102 384 197 522 
1103 491 492 534 
1104 416 415 493 
1105 396 395 494 
1106 399 401 488 
1107 419 421 489 
1108 487 429 499 
1109 432 463 491 
1110 409 430 490 
1111 499 428 500 
1112 433 399 488 
1113 434 419 489 
1114 430 466 490 
1115 453 450 495 
1116 445 409 490 
1117 437 485 501 
1118 456 454 523 
1119 471 441 539 
1120 495 452 496 
1121 401 467 488 
1122 421 468 489 
1123 450 452 495 
1124 415 418 493 
1125 395 398 494 
1126 451 449 524 
1127 459 412 501 
1128 426 428 499 
1129 439 479 566 
1130 504 447 510 
1131 405 371 504 
1132 374 407 505 
1133 429 426 499 
1134 377 482 506 
1135 443 453 503 
1136 440 475 567 
1137 412 411 501 
1138 411 437 501 
1139 407 413 505 
1140 410 405 504 
1141 465 431 533 
1142 447 373 503 
1143 410 504 510 
1144 402 400 548 
1145 465 533 538 
1146 373 443 503 
1147 467 527 546 
1148 468 526 547 
1149 534 428 574 
1150 452 472 516 
1151 498 391 535 
1152 476 385 554 
1153 49 64 573 
1154 485 484 507 
1155 513 466 531 
1156 486 487 508 
1157 511 445 512 
1158 434 489 514 
1159 433 488 515 
1160 197 43 522 
1161 479 439 569 
1162 498 465 538 
1163 525 492 562 
1164 431 410 510 
1165 475 440 568 
1166 394 49 573 
1167 50 370 543 
1168 62 372 544 
1169 462 517 518 
1170 388 179 529 
1171 393 199 526 
1172 392 207 527 
1173 386 203 528 
1174 408 445 511 
1175 194 389 525 
1176 463 459 509 
1177 385 205 530 
1178 463 509 532 
1179 474 529 545 
1180 492 379 562 
1181 387 187 520 
1182 462 471 517 
1183 378 185 531 
1184 192 379 532 
1185 403 404 556 
1186 406 403 556 
1187 478 528 549 
1188 518 517 519 
1189 477 456 523 
1190 469 434 514 
1191 470 433 515 
1192 179 34 529 
1193 199 44 526 
1194 207 48 527 
1195 203 46 528 
1196 41 194 525 
1197 205 47 530 
1198 473 451 524 
1199 517 435 519 
1200 187 38 520 
1201 423 424 558 
1202 441 423 558 
1203 496 452 516 
1204 447 503 510 
1205 391 183 535 
1206 480 481 571 
1207 182 391 540 
1208 202 386 541 
1209 178 388 542 
1210 180 380 545 
1211 208 382 546 
1212 200 383 547 
1213 519 384 522 
1214 204 385 549 
1215 490 466 513 
1216 198 393 550 
1217 391 498 552 
1218 185 37 531 
1219 40 192 532 
1220 206 392 555 
1221 462 518 572 
1222 512 445 560 
1223 184 378 561 
1224 379 193 562 
1225 383 201 563 
1226 382 209 564 
1227 380 181 565 
1228 498 538 552 
1229 195 42 551 
1230 39 190 553 
1231 533 453 538 
1232 408 511 537 
1233 512 520 521 
1234 509 459 557 
1235 494 440 567 
1236 477 523 566 
1237 493 439 566 
1238 473 524 567 
1239 518 519 522 
1240 183 36 535 
1241 376 483 573 
1242 378 497 561 
1243 503 453 533 
1244 390 509 557 
1245 487 499 559 
1246 64 376 573 
1247 484 438 536 
1248 404 408 537 
1249 35 182 540 
1250 45 202 541 
1251 33 178 542 
1252 458 491 534 
1253 485 507 553 
1254 381 484 536 
1255 370 396 543 
1256 372 416 544 
1257 481 457 554 
1258 389 195 551 
1259 34 180 545 
1260 48 208 546 
1261 44 200 547 
1262 190 390 553 
1263 508 487 551 
1264 46 204 549 
1265 501 485 557 
1266 481 530 555 
1267 43 198 550 
1268 400 483 548 
1269 507 39 553 
1270 42 508 551 
1271 453 495 538 
1272 510 503 533 
1273 514 383 563 
1274 515 382 564 
1275 516 380 565 
1276 490 513 560 
1277 431 510 533 
1278 402 548 570 
1279 440 470 568 
1280 439 469 569 
1281 529 34 545 
1282 527 48 546 
1283 526 44 547 
1284 528 46 549 
1285 495 496 552 
1286 47 206 555 
1287 424 427 558 
1288 436 406 556 
1289 513 387 560 
1290 36 184 561 
1291 530 47 555 
1292 538 495 552 
1293 479 477 566 
1294 193 41 562 
1295 521 381 536 
1296 475 473 567 
1297 201 45 563 
1298 209 33 564 
1299 181 35 565 
1300 41 525 562 
1301 457 476 554 
1302 385 530 554 
1303 518 522 550 
1304 530 481 554 
1305 499 500 559 
1306 483 394 573 
1307 459 501 557 
1308 448 455 570 
1309 522 43 550 
1310 445 490 560 
1311 535 36 561 
1312 45 541 563 
1313 33 542 564 
1314 35 540 565 
1315 460 480 571 
1316 461 462 572 
1317 502 458 574 
1318 404 537 556 
1319 537 436 556 
1320 539 441 558 
1321 427 539 558 
1322 458 534 574 
1323 548 448 570 
2 9 2 64
1324 582 575 589 
1325 587 582 589 
1326 575 582 594 
1327 580 583 584 
1328 583 578 584 
1329 60 61 577 
1330 52 53 578 
1331 64 49 575 
1332 62 63 582 
1333 50 51 580 
1334 54 55 581 
1335 58 59 579 
1336 56 57 576 
1337 582 587 598 
1338 584 586 587 
1339 580 584 589 
1340 580 589 591 
1341 577 588 590 
1342 588 579 590 
1343 584 578 585 
1344 589 575 591 
1345 587 586 588 
1346 584 585 586 
1347 577 61 593 
1348 63 64 594 
1349 580 51 583 
1350 52 578 583 
1351 59 60 590 
1352 575 49 591 
1353 578 53 592 
1354 51 52 583 
1355 53 54 592 
1356 54 581 592 
1357 60 577 590 
1358 62 582 593 
1359 582 63 594 
1360 50 580 591 
1361 576 57 595 
1362 58 579 595 
1363 581 55 596 
1364 57 58 595 
1365 579 59 590 
1366 49 50 591 
1367 55 56 596 
1368 61 62 593 
1369 64 575 594 
1370 56 576 596 
1371 584 587 589 
1372 586 585 599 
1373 588 577 598 
1374 587 588 598 
1375 585 578 592 
1376 581 585 592 
1377 597 586 599 
1378 576 597 599 
1379 585 581 599 
1380 579 588 597 
1381 588 586 597 
1382 595 579 597 
1383 576 595 597 
1384 577 593 598 
1385 593 582 598 
1386 596 576 599 
1387 581 596 599 
$EndElements
