$MeshFormat
4.1 0 8
$EndMeshFormat
$PhysicalNames
20
0 1001 "e1"
0 1002 "e2"
0 1003 "e3"
0 1004 "e4"
0 1005 "e5"
0 1006 "e6"
0 1007 "e7"
0 1008 "e8"
0 1009 "e9"
0 1010 "e10"
0 1011 "e11"
0 1012 "e12"
0 1013 "e13"
0 1014 "e14"
0 1015 "e15"
0 1016 "e16"
2 201 "Skin"
2 202 "Fat"
2 203 "Muscle"
2 204 "Bone"
$EndPhysicalNames
$Entities
65 64 4 0
1 0.06108767497551149 0.02530334346869639 0 1 1001 
2 0.04675448226966348 0.04675448226966347 0 1 1002 
3 0.02530334346869639 0.06108767497551149 0 1 1003 
4 4.048732707757008e-18 0.0661208229274905 0 1 1004 
5 -0.02530334346869638 0.06108767497551149 0 1 1005 
6 -0.04675448226966347 0.04675448226966348 0 1 1006 
7 -0.06108767497551149 0.02530334346869639 0 1 1007 
8 -0.0661208229274905 8.097465415514016e-18 0 1 1008 
9 -0.0610876749755115 -0.02530334346869638 0 1 1009 
10 -0.04675448226966349 -0.04675448226966347 0 1 1010 
11 -0.02530334346869642 -0.06108767497551148 0 1 1011 
12 -1.214619812327102e-17 -0.0661208229274905 0 1 1012 
13 0.0253033434686964 -0.06108767497551149 0 1 1013 
14 0.04675448226966347 -0.04675448226966349 0 1 1014 
15 0.06108767497551148 -0.02530334346869643 0 1 1015 
16 0.0661208229274905 -1.619493083102803e-17 0 1 1016 
17 0.0588989096680939 0.02439672719351231 0 0 
18 0.04507927382869509 0.04507927382869509 0 0 
19 0.02439672719351231 0.0588989096680939 0 0 
20 3.903667018265668e-18 0.06375172043047111 0 0 
21 -0.0243967271935123 0.0588989096680939 0 0 
22 -0.04507927382869509 0.04507927382869509 0 0 
23 -0.0588989096680939 0.02439672719351231 0 0 
24 -0.06375172043047111 7.807334036531337e-18 0 0 
25 -0.05889890966809391 -0.0243967271935123 0 0 
26 -0.0450792738286951 -0.04507927382869509 0 0 
27 -0.02439672719351234 -0.05889890966809389 0 0 
28 -1.171100105479701e-17 -0.06375172043047111 0 0 
29 0.02439672719351232 -0.05889890966809389 0 0 
30 0.04507927382869508 -0.0450792738286951 0 0 
31 0.05889890966809389 -0.02439672719351235 0 0 
32 0.06375172043047111 -1.561466807306267e-17 0 0 
33 0.03456622494483943 0.01431779917219168 0 0 
34 0.02645584321158988 0.02645584321158988 0 0 
35 0.01431779917219168 0.03456622494483943 0 0 
36 2.290959765189292e-18 0.03741421227384659 0 0 
37 -0.01431779917219168 0.03456622494483943 0 0 
38 -0.02645584321158988 0.02645584321158988 0 0 
39 -0.03456622494483943 0.01431779917219169 0 0 
40 -0.03741421227384659 4.581919530378584e-18 0 0 
41 -0.03456622494483944 -0.01431779917219168 0 0 
42 -0.02645584321158988 -0.02645584321158988 0 0 
43 -0.0143177991721917 -0.03456622494483942 0 0 
44 -6.872879295567875e-18 -0.03741421227384659 0 0 
45 0.01431779917219169 -0.03456622494483943 0 0 
46 0.02645584321158987 -0.02645584321158988 0 0 
47 0.03456622494483942 -0.0143177991721917 0 0 
48 0.03741421227384659 -9.163839060757167e-18 0 0 
49 0.006920694736796081 0.002866645621025034 0 0 
50 0.005296870432456272 0.005296870432456271 0 0 
51 0.002866645621025034 0.006920694736796081 0 0 
52 4.586857030080225e-19 0.007490906003712701 0 0 
53 -0.002866645621025034 0.006920694736796081 0 0 
54 -0.005296870432456271 0.005296870432456272 0 0 
55 -0.006920694736796081 0.002866645621025035 0 0 
56 -0.007490906003712701 9.173714060160449e-19 0 0 
57 -0.006920694736796081 -0.002866645621025034 0 0 
58 -0.005296870432456273 -0.005296870432456271 0 0 
59 -0.002866645621025038 -0.00692069473679608 0 0 
60 -1.376057109024067e-18 -0.007490906003712701 0 0 
61 0.002866645621025036 -0.006920694736796081 0 0 
62 0.005296870432456271 -0.005296870432456273 0 0 
63 0.00692069473679608 -0.002866645621025039 0 0 
64 0.007490906003712701 -1.83474281203209e-18 0 0 
1000 0 0 0 0 
1 0.04675448226966347 0.02530334346869637 0 0.0610876749755115 0.04675448226966349 0 0 2 1 -2 
2 0.02530334346869639 0.04675448226966347 0 0.04675448226966348 0.06108767497551149 0 0 2 2 -3 
3 3.469446951953614e-18 0.06108767497551149 0 0.02530334346869639 0.0661208229274905 0 0 2 3 -4 
4 -0.02530334346869638 0.06108767497551149 0 3.469446951953614e-18 0.0661208229274905 0 0 2 4 -5 
5 -0.04675448226966349 0.04675448226966347 0 -0.02530334346869637 0.0610876749755115 0 0 2 5 -6 
6 -0.06108767497551149 0.0253033434686964 0 -0.04675448226966347 0.04675448226966348 0 0 2 6 -7 
7 -0.0661208229274905 6.938893903907228e-18 0 -0.06108767497551149 0.02530334346869639 0 0 2 7 -8 
8 -0.0661208229274905 -0.02530334346869638 0 -0.06108767497551149 8.673617379884035e-18 0 0 2 8 -9 
9 -0.0610876749755115 -0.04675448226966347 0 -0.04675448226966349 -0.02530334346869638 0 0 2 9 -10 
10 -0.04675448226966348 -0.06108767497551149 0 -0.02530334346869643 -0.04675448226966348 0 0 2 10 -11 
11 -0.02530334346869644 -0.06612082292749051 0 -2.775557561562891e-17 -0.06108767497551149 0 0 2 11 -12 
12 -1.214306433183765e-17 -0.0661208229274905 0 0.0253033434686964 -0.06108767497551149 0 0 2 12 -13 
13 0.02530334346869641 -0.06108767497551149 0 0.04675448226966347 -0.04675448226966349 0 0 2 13 -14 
14 0.04675448226966347 -0.04675448226966349 0 0.06108767497551148 -0.02530334346869643 0 0 2 14 -15 
15 0.06108767497551149 -0.02530334346869645 0 0.06612082292749051 -3.122502256758253e-17 0 0 2 15 -16 
16 0.06108767497551149 -1.561251128379126e-17 0 0.0661208229274905 0.02530334346869638 0 0 2 16 -1 
17 0.04507927382869509 0.02439672719351231 0 0.0588989096680939 0.04507927382869509 0 0 2 17 -18 
18 0.02439672719351231 0.04507927382869509 0 0.04507927382869509 0.0588989096680939 0 0 2 18 -19 
19 0 0.0588989096680939 0 0.02439672719351231 0.06375172043047111 0 0 2 19 -20 
20 -0.0243967271935123 0.0588989096680939 0 3.469446951953614e-18 0.06375172043047111 0 0 2 20 -21 
21 -0.04507927382869509 0.04507927382869509 0 -0.02439672719351231 0.0588989096680939 0 0 2 21 -22 
22 -0.0588989096680939 0.02439672719351231 0 -0.04507927382869509 0.04507927382869509 0 0 2 22 -23 
23 -0.06375172043047111 3.469446951953614e-18 0 -0.0588989096680939 0.02439672719351232 0 0 2 23 -24 
24 -0.06375172043047111 -0.0243967271935123 0 -0.0588989096680939 8.673617379884035e-18 0 0 2 24 -25 
25 -0.05889890966809391 -0.04507927382869509 0 -0.04507927382869509 -0.0243967271935123 0 0 2 25 -26 
26 -0.0450792738286951 -0.05889890966809389 0 -0.02439672719351235 -0.04507927382869509 0 0 2 26 -27 
27 -0.02439672719351234 -0.06375172043047111 0 -1.040834085586084e-17 -0.05889890966809389 0 0 2 27 -28 
28 -1.214306433183765e-17 -0.06375172043047111 0 0.02439672719351232 -0.05889890966809389 0 0 2 28 -29 
29 0.02439672719351232 -0.05889890966809389 0 0.04507927382869507 -0.04507927382869509 0 0 2 29 -30 
30 0.04507927382869508 -0.0450792738286951 0 0.05889890966809389 -0.02439672719351235 0 0 2 30 -31 
31 0.05889890966809389 -0.02439672719351235 0 0.06375172043047111 -1.387778780781446e-17 0 0 2 31 -32 
32 0.0588989096680939 -1.561251128379126e-17 0 0.06375172043047111 0.02439672719351231 0 0 2 32 -17 
33 0.02645584321158986 0.01431779917219168 0 0.03456622494483942 0.02645584321158987 0 0 2 33 -34 
34 0.01431779917219168 0.02645584321158988 0 0.02645584321158988 0.03456622494483943 0 0 2 34 -35 
35 0 0.03456622494483942 0 0.01431779917219168 0.03741421227384657 0 0 2 35 -36 
36 -0.01431779917219168 0.03456622494483941 0 1.127570259384925e-17 0.03741421227384657 0 0 2 36 -37 
37 -0.02645584321158986 0.02645584321158989 0 -0.01431779917219167 0.03456622494483943 0 0 2 37 -38 
38 -0.03456622494483943 0.01431779917219169 0 -0.02645584321158988 0.02645584321158988 0 0 2 38 -39 
39 -0.03741421227384657 1.734723475976807e-18 0 -0.03456622494483942 0.01431779917219168 0 0 2 39 -40 
40 -0.03741421227384657 -0.01431779917219168 0 -0.03456622494483941 1.387778780781446e-17 0 0 2 40 -41 
41 -0.03456622494483944 -0.02645584321158988 0 -0.02645584321158988 -0.01431779917219168 0 0 2 41 -42 
42 -0.02645584321158989 -0.03456622494483942 0 -0.01431779917219171 -0.02645584321158987 0 0 2 42 -43 
43 -0.0143177991721917 -0.03741421227384658 0 -5.204170427930421e-18 -0.03456622494483941 0 0 2 43 -44 
44 -6.938893903907228e-18 -0.03741421227384657 0 0.01431779917219169 -0.03456622494483941 0 0 2 44 -45 
45 0.01431779917219168 -0.03456622494483944 0 0.02645584321158987 -0.02645584321158989 0 0 2 45 -46 
46 0.02645584321158987 -0.02645584321158989 0 0.03456622494483942 -0.01431779917219171 0 0 2 46 -47 
47 0.03456622494483941 -0.0143177991721917 0 0.03741421227384658 -1.040834085586084e-17 0 0 2 47 -48 
48 0.03456622494483942 -9.540979117872439e-18 0 0.03741421227384657 0.01431779917219168 0 0 2 48 -33 
49 0.005296870432456269 0.002866645621025031 0 0.00692069473679608 0.005296870432456272 0 0 2 49 -50 
50 0.002866645621025034 0.005296870432456269 0 0.005296870432456271 0.006920694736796079 0 0 2 50 -51 
51 0 0.00692069473679608 0 0.002866645621025034 0.0074909060037127 0 0 2 51 -52 
52 -0.002866645621025034 0.006920694736796081 0 4.336808689942018e-19 0.007490906003712701 0 0 2 52 -53 
53 -0.005296870432456271 0.005296870432456273 0 -0.002866645621025034 0.006920694736796081 0 0 2 53 -54 
54 -0.006920694736796079 0.002866645621025034 0 -0.005296870432456269 0.005296870432456271 0 0 2 54 -55 
55 -0.007490906003712701 0 0 -0.00692069473679608 0.002866645621025034 0 0 2 55 -56 
56 -0.007490906003712701 -0.002866645621025033 0 -0.006920694736796081 8.673617379884035e-19 0 0 2 56 -57 
57 -0.006920694736796081 -0.005296870432456271 0 -0.005296870432456271 -0.002866645621025034 0 0 2 57 -58 
58 -0.005296870432456272 -0.00692069473679608 0 -0.002866645621025038 -0.005296870432456272 0 0 2 58 -59 
59 -0.002866645621025038 -0.007490906003712701 0 -2.168404344971009e-18 -0.00692069473679608 0 0 2 59 -60 
60 -1.301042606982605e-18 -0.007490906003712701 0 0.002866645621025036 -0.006920694736796081 0 0 2 60 -61 
61 0.002866645621025034 -0.006920694736796081 0 0.005296870432456269 -0.005296870432456274 0 0 2 61 -62 
62 0.005296870432456272 -0.005296870432456272 0 0.006920694736796079 -0.002866645621025038 0 0 2 62 -63 
63 0.006920694736796078 -0.002866645621025038 0 0.007490906003712699 -1.734723475976807e-18 0 0 2 63 -64 
64 0.006920694736796081 -1.734723475976807e-18 0 0.007490906003712701 0.002866645621025034 0 0 2 64 -49 
6 -0.0661208229274905 -0.0661208229274905 0 0.0661208229274905 0.0661208229274905 0 1 201 32 1 2 3 4 5 6 7 8 9 10 11 12 13 14 15 16 -32 -31 -30 -29 -28 -27 -26 -25 -24 -23 -22 -21 -20 -19 -18 -17 
7 -0.06375172043047111 -0.06375172043047111 0 0.06375172043047111 0.06375172043047111 0 1 202 32 17 18 19 20 21 22 23 24 25 26 27 28 29 30 31 32 -48 -47 -46 -45 -44 -43 -42 -41 -40 -39 -38 -37 -36 -35 -34 -33 
8 -0.03741421227384657 -0.03741421227384657 0 0.03741421227384657 0.03741421227384657 0 1 203 32 33 34 35 36 37 38 39 40 41 42 43 44 45 46 47 48 -64 -63 -62 -61 -60 -59 -58 -57 -56 -55 -54 -53 -52 -51 -50 -49 
9 -0.007490906003712701 -0.007490906003712701 0 0.007490906003712701 0.007490906003712701 0 1 204 16 49 50 51 52 53 54 55 56 57 58 59 60 61 62 63 64 
$EndEntities
$Nodes
116 923 1 924
0 1 0 1
1
0.06108767497551149 0.02530334346869639 0
0 2 0 1
2
0.04675448226966348 0.04675448226966347 0
0 3 0 1
3
0.02530334346869639 0.06108767497551149 0
0 4 0 1
4
4.048732707757008e-18 0.0661208229274905 0
0 5 0 1
5
-0.02530334346869638 0.06108767497551149 0
0 6 0 1
6
-0.04675448226966347 0.04675448226966348 0
0 7 0 1
7
-0.06108767497551149 0.02530334346869639 0
0 8 0 1
8
-0.0661208229274905 8.097465415514016e-18 0
0 9 0 1
9
-0.0610876749755115 -0.02530334346869638 0
0 10 0 1
10
-0.04675448226966349 -0.04675448226966347 0
0 11 0 1
11
-0.02530334346869642 -0.06108767497551148 0
0 12 0 1
12
-1.214619812327102e-17 -0.0661208229274905 0
0 13 0 1
13
0.0253033434686964 -0.06108767497551149 0
0 14 0 1
14
0.04675448226966347 -0.04675448226966349 0
0 15 0 1
15
0.06108767497551148 -0.02530334346869643 0
0 16 0 1
16
0.0661208229274905 -1.619493083102803e-17 0
0 17 0 1
17
0.0588989096680939 0.02439672719351231 0
0 18 0 1
18
0.04507927382869509 0.04507927382869509 0
0 19 0 1
19
0.02439672719351231 0.0588989096680939 0
0 20 0 1
20
3.903667018265668e-18 0.06375172043047111 0
0 21 0 1
21
-0.0243967271935123 0.0588989096680939 0
0 22 0 1
22
-0.04507927382869509 0.04507927382869509 0
0 23 0 1
23
-0.0588989096680939 0.02439672719351231 0
0 24 0 1
24
-0.06375172043047111 7.807334036531337e-18 0
0 25 0 1
25
-0.05889890966809391 -0.0243967271935123 0
0 26 0 1
26
-0.0450792738286951 -0.04507927382869509 0
0 27 0 1
27
-0.02439672719351234 -0.05889890966809389 0
0 28 0 1
28
-1.171100105479701e-17 -0.06375172043047111 0
0 29 0 1
29
0.02439672719351232 -0.05889890966809389 0
0 30 0 1
30
0.04507927382869508 -0.0450792738286951 0
0 31 0 1
31
0.05889890966809389 -0.02439672719351235 0
0 32 0 1
32
0.06375172043047111 -1.561466807306267e-17 0
0 33 0 1
33
0.03456622494483943 0.01431779917219168 0
0 34 0 1
34
0.02645584321158988 0.02645584321158988 0
0 35 0 1
35
0.01431779917219168 0.03456622494483943 0
0 36 0 1
36
2.290959765189292e-18 0.03741421227384659 0
0 37 0 1
37
-0.01431779917219168 0.03456622494483943 0
0 38 0 1
38
-0.02645584321158988 0.02645584321158988 0
0 39 0 1
39
-0.03456622494483943 0.01431779917219169 0
0 40 0 1
40
-0.03741421227384659 4.581919530378584e-18 0
0 41 0 1
41
-0.03456622494483944 -0.01431779917219168 0
0 42 0 1
42
-0.02645584321158988 -0.02645584321158988 0
0 43 0 1
43
-0.0143177991721917 -0.03456622494483942 0
0 44 0 1
44
-6.872879295567875e-18 -0.03741421227384659 0
0 45 0 1
45
0.01431779917219169 -0.03456622494483943 0
0 46 0 1
46
0.02645584321158987 -0.02645584321158988 0
0 47 0 1
47
0.03456622494483942 -0.0143177991721917 0
0 48 0 1
48
0.03741421227384659 -9.163839060757167e-18 0
0 49 0 1
49
0.006920694736796081 0.002866645621025034 0
0 50 0 1
50
0.005296870432456272 0.005296870432456271 0
0 51 0 1
51
0.002866645621025034 0.006920694736796081 0
0 52 0 1
52
4.586857030080225e-19 0.007490906003712701 0
0 53 0 1
53
-0.002866645621025034 0.006920694736796081 0
0 54 0 1
54
-0.005296870432456271 0.005296870432456272 0
0 55 0 1
55
-0.006920694736796081 0.002866645621025035 0
0 56 0 1
56
-0.007490906003712701 9.173714060160449e-19 0
0 57 0 1
57
-0.006920694736796081 -0.002866645621025034 0
0 58 0 1
58
-0.005296870432456273 -0.005296870432456271 0
0 59 0 1
59
-0.002866645621025038 -0.00692069473679608 0
0 60 0 1
60
-1.376057109024067e-18 -0.007490906003712701 0
0 61 0 1
61
0.002866645621025036 -0.006920694736796081 0
0 62 0 1
62
0.005296870432456271 -0.005296870432456273 0
0 63 0 1
63
0.00692069473679608 -0.002866645621025039 0
0 64 0 1
64
0.007490906003712701 -1.83474281203209e-18 0
1 1 0 5
66
67
68
69
70
0.05930196372300383 0.02924449218577901 0
0.05726231236655092 0.03306041147723517 0
0.05497745498063231 0.03673476103721243 0
0.05245717571000466 0.04025180668166646 0
0.04971226677567954 0.04359648789331798 0
1 2 0 5
71
72
73
74
75
0.04359648788643949 0.0497122667817118 0
0.04025180663529504 0.05245717574558671 0
0.03673476096950083 0.05497745502587575 0
0.033060411444709 0.0572623123853299 0
0.02924449215521275 0.05930196373807745 0
1 3 0 5
76
77
78
79
80
0.02125384196688355 0.06261179941716491 0
0.0171133282386873 0.06386781052457882 0
0.01289953261259981 0.06485032986026383 0
0.008630499226632147 0.06555515012344686 0
0.004324508718490057 0.06597925317061612 0
1 4 0 5
81
82
83
84
85
-0.004324508737449728 0.06597925316937343 0
-0.008630499266875787 0.06555515011814869 0
-0.01289953267051377 0.06485032984874403 0
-0.01711332827562575 0.0638678105146812 0
-0.02125384197687238 0.06261179941377416 0
1 5 0 5
86
87
88
89
90
-0.02924449218451818 0.0593019637236256 0
-0.03306041148096801 0.05726231236439575 0
-0.03673476103857058 0.05497745497972482 0
-0.04025180668025027 0.05245717571109135 0
-0.04359648790145005 0.0497122667685479 0
1 6 0 5
91
92
93
94
95
-0.04971226678675295 0.04359648788069118 0
-0.05245717574489877 0.04025180663619158 0
-0.05497745502085263 0.03673476097701846 0
-0.05726231238336184 0.03306041144811778 0
-0.05930196373621089 0.02924449215899777 0
1 7 0 5
96
97
98
99
100
-0.06261179941744241 0.02125384196606609 0
-0.06386781052406695 0.01711332824059757 0
-0.06485032985850127 0.01289953262146085 0
-0.06555515012266956 0.008630499232536351 0
-0.06597925317041577 0.00432450872154666 0
1 8 0 5
101
102
103
104
105
-0.06597925316939265 -0.004324508737156463 0
-0.0655551501185787 -0.008630499263609493 0
-0.06485032984923285 -0.01289953266805627 0
-0.06386781051558083 -0.0171133282722683 0
-0.0626117994126439 -0.02125384198020199 0
1 9 0 5
106
107
108
109
110
-0.05930196372704607 -0.02924449217758219 0
-0.05726231236401539 -0.03306041148162684 0
-0.05497745498857447 -0.03673476102532616 0
-0.0524571757210873 -0.04025180666722331 0
-0.04971226677858399 -0.0435964878900061 0
1 10 0 5
111
112
113
114
115
-0.04359648787325509 -0.04971226679327423 0
-0.04025180662874649 -0.0524571757506116 0
-0.03673476096553156 -0.05497745502852794 0
-0.03306041144325565 -0.057262312386169 0
-0.02924449215462493 -0.05930196373836733 0
1 11 0 5
116
117
118
119
120
-0.02125384195748978 -0.06261179942035369 0
-0.01711332824296855 -0.06386781052343168 0
-0.01289953261851381 -0.06485032985908748 0
-0.008630499234965845 -0.06555515012234972 0
-0.004324508726579517 -0.06597925317008593 0
1 12 0 5
121
122
123
124
125
0.004324508735313952 -0.06597925316951342 0
0.008630499259698124 -0.06555515011909364 0
0.01289953267080618 -0.06485032984868586 0
0.01711332827742158 -0.0638678105142 0
0.02125384197981207 -0.06261179941277627 0
1 13 0 5
126
127
128
129
130
0.02924449217196274 -0.05930196372981728 0
0.0330604114801064 -0.05726231236489322 0
0.03673476102860544 -0.05497745498638332 0
0.04025180666606964 -0.05245717572197255 0
0.04359648788991224 -0.04971226677866629 0
1 14 0 5
131
132
133
134
135
0.04971226678971545 -0.0435964878773131 0
0.05245717574873644 -0.04025180663119024 0
0.05497745502588733 -0.03673476096948351 0
0.05726231239071302 -0.03306041143538519 0
0.05930196373778694 -0.02924449215580185 0
1 15 0 5
136
137
138
139
140
0.06261179942120024 -0.02125384195499593 0
0.06386781052517636 -0.01711332823645731 0
0.06485032985931194 -0.01289953261738546 0
0.06555515012220335 -0.00863049923607765 0
0.06597925316992383 -0.004324508729052726 0
1 16 0 5
141
142
143
144
145
0.06597925316923685 0.004324508739533652 0
0.06555515011808205 0.008630499267381965 0
0.06485032984872421 0.0128995326706134 0
0.063867810514405 0.0171133282766565 0
0.06261179941307116 0.02125384197894335 0
1 17 0 4
146
147
148
149
0.05680319882489333 0.02894267543100647 0
0.05435727736579118 0.03331018245557044 0
0.05157622522176122 0.03747232111464553 0
0.04847718851856038 0.04140343042769409 0
1 18 0 4
150
151
152
153
0.0414034304001997 0.04847718854204282 0
0.03747232105559908 0.05157622526466098 0
0.0333101823926078 0.05435727740437474 0
0.02894267540659273 0.05680319883733274 0
1 19 0 4
154
155
156
157
0.0197003650167902 0.0606314891459065 0
0.01488254354741742 0.06199025532617342 0
0.009972966244905465 0.06296683096776369 0
0.005001902318455431 0.06355519515383128 0
1 20 0 4
158
159
160
161
-0.005001902348705832 0.06355519515145051 0
-0.009972966305794421 0.06296683095811982 0
-0.01488254360199881 0.06199025531306959 0
-0.0197003650474824 0.06063148913593399 0
1 21 0 4
162
163
164
165
-0.0289426754249751 0.05680319882796645 0
-0.03331018244044988 0.05435727737505709 0
-0.03747232110071459 0.05157622523188265 0
-0.04140343042220573 0.04847718852324789 0
1 22 0 4
166
167
168
169
-0.04847718854123047 0.04140343040115085 0
-0.05157622526065802 0.03747232106110869 0
-0.05435727740123953 0.03331018239772399 0
-0.05680319884028399 0.02894267540080058 0
1 23 0 4
170
171
172
173
-0.06063148914556217 0.01970036501784992 0
-0.06199025532617746 0.0148825435474006 0
-0.06296683096751539 0.009972966246473232 0
-0.06355519515386626 0.005001902318010905 0
1 24 0 4
174
175
176
177
-0.06355519515133339 -0.005001902350194072 0
-0.06296683095749198 -0.009972966309758476 0
-0.0619902553124677 -0.01488254360450586 0
-0.06063148913639963 -0.01970036504604931 0
1 25 0 4
178
179
180
181
-0.05680319882548311 -0.02894267542984895 0
-0.05435727736641679 -0.03331018245454956 0
-0.0515762252247012 -0.03747232111059901 0
-0.0484771885254915 -0.0414034304195788 0
1 26 0 4
182
183
184
185
-0.04140343040033037 -0.04847718854193121 0
-0.03747232105667223 -0.05157622526388129 0
-0.03331018240560432 -0.05435727739641048 0
-0.02894267541301413 -0.05680319883406089 0
1 27 0 4
186
187
188
189
-0.01970036501959567 -0.06063148914499494 0
-0.01488254354963579 -0.06199025532564084 0
-0.009972966256550822 -0.06296683096591925 0
-0.005001902317100588 -0.0635551951539379 0
1 28 0 4
190
191
192
193
0.005001902347335446 -0.06355519515155837 0
0.009972966302759102 -0.06296683095860058 0
0.01488254359698724 -0.06199025531427275 0
0.01970036504668855 -0.06063148913619194 0
1 29 0 4
194
195
196
197
0.02894267543404432 -0.05680319882334546 0
0.03331018245335043 -0.05435727736715161 0
0.0374723210962024 -0.05157622523516095 0
0.04140343041999521 -0.04847718852513586 0
1 30 0 4
198
199
200
201
0.04847718854632561 -0.04140343039518519 0
0.05157622527115272 -0.03747232104666397 0
0.05435727740482665 -0.03331018239187035 0
0.05680319883913102 -0.02894267540306341 0
1 31 0 4
202
203
204
205
0.06063148914405032 -0.01970036502250291 0
0.0619902553260345 -0.01488254354799608 0
0.0629668309660171 -0.009972966255932978 0
0.06355519515389295 -0.005001902317671812 0
1 32 0 4
206
207
208
209
0.06355519515151004 0.005001902347949634 0
0.06296683095845527 0.009972966303676474 0
0.0619902553143468 0.01488254359667887 0
0.06063148913764677 0.01970036504221103 0
1 33 0 2
210
211
0.03240165828742579 0.0187071061443865 0
0.02968269027681333 0.02277632933558925 0
1 34 0 2
212
213
0.02277632932292694 0.02968269028652947 0
0.01870710612967751 0.03240165829591805 0
1 35 0 2
214
215
0.00968351067744555 0.03613935391000024 0
0.004883534649380688 0.03709412850304951 0
1 36 0 2
216
217
-0.004883534677656815 0.03709412849932688 0
-0.009683510720231148 0.03613935389853588 0
1 37 0 2
218
219
-0.01870710615417878 0.03240165828177222 0
-0.02277632934628919 0.02968269026860298 0
1 38 0 2
220
221
-0.02968269028638911 0.02277632932310986 0
-0.03240165829516464 0.01870710613098245 0
1 39 0 2
222
223
-0.03613935390909769 0.009683510680813964 0
-0.03709412850299346 0.004883534649806509 0
1 40 0 2
224
225
-0.03709412849932688 -0.004883534677656814 0
-0.03613935389853588 -0.009683510720231145 0
1 41 0 2
226
227
-0.03240165828401882 -0.01870710615028759 0
-0.02968269027017833 -0.02277632934423616 0
1 42 0 2
228
229
-0.02277632931062799 -0.02968269029596678 0
-0.0187071061092202 -0.03240165830772908 0
1 43 0 2
230
231
-0.00968351068601234 -0.03613935390770477 0
-0.004883534650237277 -0.03709412850293674 0
1 44 0 2
232
233
0.004883534674464042 -0.03709412849974722 0
0.009683510706840901 -0.03613935390212378 0
1 45 0 2
234
235
0.01870710615381543 -0.03240165828198201 0
0.0227763293429883 -0.02968269027113584 0
1 46 0 2
236
237
0.02968269029765853 -0.02277632930842326 0
0.03240165830757032 -0.01870710610949517 0
1 47 0 2
238
239
0.03613935390897989 -0.009683510681253549 0
0.03709412850259648 -0.004883534652821814 0
1 48 0 2
240
241
0.03709412849982426 0.004883534673878853 0
0.03613935390277 0.009683510704429152 0
2 6 0 32
242
243
244
245
246
247
248
249
250
251
252
253
254
255
256
257
258
259
260
261
262
263
264
265
266
267
268
269
270
271
272
273
-0.02697180956792549 0.05902293679879934 0
-0.04420841859298602 -0.04750580285839099 0
0.05902293679787563 0.02697180956974853 0
0.06080746830221398 -0.0226635694099269 0
0.06485174791967713 0.002331602771870813 0
-0.002331602771538888 0.06485174791969635 0
0.0475058028585999 -0.0442084185927142 0
-0.04750580285658549 0.04420841859505013 0
-0.06485174791967192 -0.002331602771837629 0
0.002331602770662343 -0.06485174791975831 0
-0.02266356940982356 -0.06080746830223849 0
-0.05902293679903366 -0.02697180956740995 0
0.0648517479204446 -0.002331602761681141 0
-0.002331602760920032 -0.06485174792049633 0
-0.04750580285060851 -0.04420841860198584 0
0.04420841859624944 0.04750580285552829 0
-0.06485174792056091 0.002331602759889394 0
0.02697180956705394 -0.05902293679919202 0
0.0442084186020665 -0.04750580285054018 0
0.04750580284814963 0.04420841860484265 0
-0.06080746830165248 0.02266356941153117 0
0.002331602759236374 0.06485174792060221 0
0.02266356941147061 0.06080746830166918 0
-0.02266356942164086 0.06080746829832837 0
-0.05902293680502507 0.02697180955550176 0
0.05902293680513084 -0.0269718095552685 0
0.06080746829858083 0.02266356942084076 0
-0.06080746829816224 -0.02266356942211499 0
0.02266356942217734 -0.06080746829814337 0
0.02697180955600355 0.05902293680475389 0
-0.04420841860550358 0.04750580284753859 0
-0.02697180955746195 -0.05902293680400838 0
2 7 0 343
274
275
276
277
278
279
280
281
282
283
284
285
286
287
288
289
290
291
292
293
294
295
296
297
298
299
300
301
302
303
304
305
306
307
308
309
310
311
312
313
314
315
316
317
318
319
320
321
322
323
324
325
326
327
328
329
330
331
332
333
334
335
336
337
338
339
340
341
342
343
344
345
346
347
348
349
350
351
352
353
354
355
356
357
358
359
360
361
362
363
364
365
366
367
368
369
370
371
372
373
374
375
376
377
378
379
380
381
382
383
384
385
386
387
388
389
390
391
392
393
394
395
396
397
398
399
400
401
402
403
404
405
406
407
408
409
410
411
412
413
414
415
416
417
418
419
420
421
422
423
424
425
426
427
428
429
430
431
432
433
434
435
436
437
438
439
440
441
442
443
444
445
446
447
448
449
450
451
452
453
454
455
456
457
458
459
460
461
462
463
464
465
466
467
468
469
470
471
472
473
474
475
476
477
478
479
480
481
482
483
484
485
486
487
488
489
490
491
492
493
494
495
496
497
498
499
500
501
502
503
504
505
506
507
508
509
510
511
512
513
514
515
516
517
518
519
520
521
522
523
524
525
526
527
528
529
530
531
532
533
534
535
536
537
538
539
540
541
542
543
544
545
546
547
548
549
550
551
552
553
554
555
556
557
558
559
560
561
562
563
564
565
566
567
568
569
570
571
572
573
574
575
576
577
578
579
580
581
582
583
584
585
586
587
588
589
590
591
592
593
594
595
596
597
598
599
600
601
602
603
604
605
606
607
608
609
610
611
612
613
614
615
616
0.03457287546456492 -0.02299061489791653 0
-0.02299061489964377 -0.03457287546465931 0
-0.04054244566056155 -0.008178257045639395 0
-0.02314304459421772 0.03447102520033192 0
-0.008036789320862539 0.04065187866573739 0
0.02298182561999689 -0.03448189253498447 0
0.04036933143100543 -0.008387228448586831 0
-0.03448189253637941 -0.02298182561881926 0
0.007959197971045081 0.04058601922174054 0
0.0407736423767837 0.008110381744190686 0
0.008035950547533669 -0.04035595299907118 0
-0.008387228448175212 -0.04036933143320857 0
-0.04068258627743872 0.007963585905360974 0
-0.0340867456837511 0.02319746301913727 0
0.03512800876906066 0.02285248530188465 0
0.02272939389162974 0.03493401742025883 0
-0.04316550004333292 -0.04079047030057711 0
0.04396366339224914 0.04064687268547648 0
0.05423056216646913 -0.02453061996300632 0
0.02433476642248635 0.05478705216519963 0
0.002958233939151096 0.0598327815141376 0
0.05895294294760872 -0.002542075148985977 0
-0.002542075147710677 -0.05895294294983079 0
-0.05959359394260742 0.002383360961456558 0
-0.0534926073322483 0.02490888576270905 0
-0.05641034932838538 -0.02016396240325104 0
0.05614276938503289 0.02070597193493955 0
-0.0407150445721276 0.04341647538022307 0
0.04079047031365614 -0.04316550004359709 0
0.02006148023957322 -0.05617782355635043 0
-0.02453061996543575 -0.05423056216830621 0
-0.02116675891320967 0.05548955918575294 0
-0.03675403120434897 -0.04662226635172038 0
0.0286742459416594 -0.05164302382108908 0
0.04662226635397642 -0.03675403119478101 0
-0.01698703722612389 -0.05720792532987615 0
0.01707172321107908 0.0572563786883447 0
-0.05164302056316498 -0.028674243750446 0
0.05190232747948526 0.02912430529138563 0
0.05720792532752959 -0.01698703722671553 0
-0.05895594538672874 -0.006977895992040383 0
-0.0566449460221536 0.01645630330731582 0
0.0362646265583793 0.04681097247855968 0
0.05861976712765679 0.006482534685315713 0
-0.04635257359621364 0.03758650124320272 0
-0.006728618552489747 0.0586850877247261 0
0.006485330282586277 -0.05861204183074056 0
-0.02900819882029312 0.05179786607751352 0
0.03148072794354365 -0.02709375560170576 0
0.03667605438556565 -0.02760739033929765 0
0.03946732941572088 -0.02330096062065509 0
0.0335777507034269 -0.03174002040655402 0
0.04163986373274398 -0.02796307439706314 0
0.04440159825212087 -0.02371245321196438 0
0.04220559306246727 -0.01928919329831207 0
0.04711661323286979 -0.0195839275916645 0
0.0466151529700181 -0.02825224754780959 0
0.04493855954818111 -0.01517076802900994 0
0.04966694983546944 -0.01534107838938076 0
0.04776857749068497 -0.01110488718008407 0
0.05256238481338404 -0.01120357754793892 0
0.05041979106887513 -0.006898420827021821 0
0.05535988209986955 -0.007230154707450134 0
0.05330568978096473 -0.002694458204817615 0
0.04823638530454032 -0.002457303144279987 0
0.05098577577729081 0.001663682119860627 0
0.04611057159346611 0.001824605195984567 0
0.04849012104931306 0.006333644764062953 0
0.04319712230664111 -0.001510599604624945 0
-0.02709375560322972 -0.03148072794370837 0
-0.02760739034268909 -0.03667605438647865 0
-0.02330096062205533 -0.03946732941705685 0
-0.03174002040986458 -0.03357775070321252 0
-0.02796307440055072 -0.04163986373464591 0
-0.02371245321324029 -0.04440159825489204 0
-0.019289193298115 -0.04220559306445813 0
-0.01958392759101163 -0.04711661323570994 0
-0.0282522475512356 -0.04661515297437749 0
-0.01517076802745024 -0.04493855955105432 0
-0.01534107838752707 -0.04966694983925183 0
-0.01110488717732892 -0.04776857749475544 0
-0.01120357754566535 -0.05256238481712955 0
-0.006898420823315158 -0.05041979107327997 0
-0.007230154703887624 -0.05535988210511324 0
-0.002694458201281638 -0.05330568978525396 0
-0.00245730313992812 -0.04823638530907076 0
0.001663682123988777 -0.05098577578202321 0
0.001954377058564525 -0.04604763651139735 0
0.006006758170425394 -0.04886121625228599 0
-0.001488970958923687 -0.04318663312868404 0
-0.01871606882074944 0.0370785192838379 0
-0.02331936507583077 0.03954122126611972 0
-0.0275461662565465 0.03663077370412433 0
-0.01887541665781606 0.04217360410619952 0
-0.0277692125372365 0.04176939809217668 0
-0.03194736484477533 0.03889920622728867 0
-0.03161122888778308 0.03397227211998746 0
-0.03603562997539887 0.03612393716115229 0
-0.03225511865410231 0.04394052000734025 0
-0.03571221380996204 0.03121320430541723 0
-0.0400155018641057 0.03318002718971425 0
-0.03988275470760816 0.02853982118877641 0
-0.04427388800515718 0.03046550983897162 0
-0.04394190165681969 0.02566812853510281 0
-0.04837900159017984 0.0278651016769393 0
-0.04821691125438125 0.0228885591353946 0
-0.04362423992318995 0.02072951759107013 0
-0.0477413782941298 0.01797436983558138 0
-0.04329037663353804 0.01581605864597637 0
-0.04745694544536538 0.01318430386015572 0
-0.03932944191845596 0.01790243880135498 0
-0.03708033050841159 -0.01868919898958531 0
-0.03942917797726706 -0.02319594344942236 0
-0.04220111277072165 -0.01933881936471813 0
-0.04437913187484427 -0.02372177997416582 0
-0.04088061157433143 -0.02813549894045236 0
-0.04702969410266583 -0.01958340703647795 0
-0.04493896500185429 -0.01522612287600313 0
-0.04974205645648522 -0.0154539864853365 0
-0.04777436310721822 -0.0111544701734833 0
-0.0525352675656396 -0.01153920673580948 0
-0.05067326193269928 -0.007419870061783886 0
-0.04126628092806443 -0.003281902925470067 0
-0.04215445593067989 0.001720750454974301 0
-0.04524900459714183 0.006009580518184986 0
-0.04717615484219138 0.001234138990100449 0
-0.05059996486636593 0.005741683429733011 0
-0.05203387600263454 0.0005221414508509141 0
-0.003076540274144954 0.04140980523744424 0
-0.00634136423112803 0.04530451377740781 0
-0.001717072713293132 0.04638939012214812 0
-0.004932908492350302 0.05007890380271021 0
-0.01034947885624369 0.04853574961613024 0
-9.522418353889836e-05 0.05094401723871604 0
0.003130294087933025 0.04734497495981961 0
0.004757839082300416 0.05186965247537249 0
0.007977070563741711 0.04840638720315088 0
0.009789580152430918 0.05273889465071838 0
0.01284259789580874 0.04925946493035152 0
0.0186891989895799 -0.03708033050929835 0
0.02319594344871422 -0.03942917797676709 0
0.01933881936248558 -0.04220111276742418 0
0.02372178214770888 -0.04437913512721748 0
0.02813549934475418 -0.04088061203578282 0
0.01958340035490242 -0.04702970730484977 0
0.01496450984422365 -0.04462495079876714 0
0.01482335786787532 -0.04931700357395435 0
0.01292341588290835 0.0397446118625563 0
0.0180310590829832 0.03821923475889581 0
0.02283138668329067 0.03992581067974059 0
0.02713388817004288 0.0373709099130963 0
0.02711108642101048 0.04240849094264187 0
0.02303084563492592 0.0451044255936883 0
0.03139598499083179 0.03993697992580064 0
0.03149720948951147 0.0349397739780371 0
0.03563090068613806 0.03747664116289426 0
0.0358514009568095 0.03265441064256011 0
0.02741192214901955 0.04744103193048741 0
0.01644462266378051 0.04318002817743317 0
0.03166158021650033 0.03013946382784412 0
0.03982377752948486 0.03497919512590618 0
0.04016951197914066 0.03026484313410167 0
0.04457838881294978 0.03272131200709987 0
0.04443490976788673 0.02765515015826599 0
0.04013541671450813 0.0253253822130604 0
0.04459620101846105 0.02289046265638241 0
0.04043145459108023 0.02058228956957797 0
0.04486794234686509 0.01824462074201524 0
0.0488240924972851 0.02016963504937018 0
0.0494138317442753 0.0147004022944814 0
0.04431874284947401 0.01300840837414386 0
-0.01351408573564163 0.03991387241508627 0
-0.01451140714460009 0.04482517663274478 0
-0.01885911833982743 0.04723174252113752 0
-0.03170399307425584 -0.02775976491056564 0
-0.03585978814039983 -0.03056064451191221 0
-0.03641936805897106 -0.03549835879760287 0
0.02775976491114342 -0.03170399307309308 0
0.03056064453921014 -0.03585978816518153 0
0.03549835880117503 -0.0364193680536713 0
0.002551344521906144 0.04192845186077399 0
-0.03971319577418124 -0.01368818888868212 0
0.01336302457995347 -0.03936620096294059 0
-0.03146606466778178 0.02782338926369142 0
0.03971840321405729 -0.0136639182287252 0
-0.01366391822985168 -0.03971840321570812 0
-0.03224498206120168 -0.03859680888778731 0
-0.03743390539849568 -0.04074630051768381 0
-0.02331918132463524 0.04456083825997749 0
-0.02331933765494766 0.05017735315936347 0
0.0385968088883174 -0.03224498205638388 0
0.04074630052191551 -0.03743390539177253 0
0.03895624669093244 0.01332012611334844 0
-0.04931793135303004 -0.02409133192932055 0
-0.003384333248707642 0.05478318097164662 0
0.02409134495097971 -0.04931795081721034 0
0.05367752676844349 0.005771741877525846 0
0.05161468886209424 0.01004930519130482 0
0.005771741881646333 -0.05367752677343329 0
0.01020533420516095 -0.05146880579253254 0
-0.05180031836175507 0.01520910602225163 0
-0.05134703555921001 0.01065843252390782 0
0.0524830787048606 -0.01944991182583023 0
-0.01944991182498744 -0.05248307870731796 0
-0.04104488320058722 0.0380537801584417 0
-0.03226529638111508 -0.04384828271792433 0
-0.02816313655335346 0.0465892582839559 0
0.04384828271466609 -0.03226529637760808 0
-0.01838702233662776 -0.03728519293875818 0
0.03728519293891695 -0.01838702233690273 0
-0.02741061780443993 0.0312558192210239 0
0.01137596349079897 0.04460029693643613 0
-0.0454259222733167 -0.006540840071878552 0
0.01056649421936754 -0.04691492735293236 0
0.01444099330694648 -0.05448981706536989 0
0.05594849932766825 0.001696981354657538 0
0.001697314166564862 -0.05594757965308865 0
-0.05230113365878723 0.01993901860401298 0
-0.03893689457481595 0.0232635499111043 0
-0.006592213145528937 -0.04487557507552077 0
0.04487707352621675 -0.006595302954096135 0
-0.008320162560877517 0.05370603002676454 0
-0.01333022058807082 0.05292888692310806 0
-0.04643391354214113 -0.0282392357888365 0
-0.04379866073155231 -0.03257052607736616 0
0.02823923887117928 -0.04643391794709419 0
0.03257052668758251 -0.04379866154415789 0
0.03585539760940706 0.02786530908570517 0
0.02704237405036687 0.03225378310622595 0
0.03150462562094328 0.044773983010686 0
0.03244411254248243 0.04962808682986473 0
-0.05436745351947842 -0.01583125224845208 0
-0.05776007499873994 -0.01197011602194903 0
0.006237027216606878 0.05625179766389064 0
0.01116523124590801 0.05766613660874587 0
0.04934223763490812 -0.02403021070936795 0
-0.02403021070959279 -0.04934223763670414 0
-0.0363903199151141 0.04108347670900499 0
-0.03938724607026267 0.01308404040103001 0
0.002969870818151421 -0.04137252853433122 0
0.04131599242241994 0.002707993219088086 0
-0.01150582488129078 0.05763862239011515 0
-0.04884805493867607 -0.03268734194296011 0
0.03268734249201503 -0.04884805567765092 0
0.04920412391166289 0.02515155345313229 0
-0.03266323007825186 -0.04888240735046755 0
0.04888240734546222 -0.03266323007074668 0
-0.03266177862920511 0.04888337716120245 0
0.02339493171324377 0.05019198965394696 0
0.01992501683511028 0.05348682366014251 0
0.01825184540906225 0.04815855681456034 0
-0.03681633554891157 0.04622954383548354 0
0.0517051393934692 -0.02862152768097738 0
-0.02862152768718907 -0.05170513939338778 0
-0.04606341409245114 -0.03701098726225618 0
-0.01656598819586459 0.05672053712375622 0
0.03701098745689901 -0.0460634143505406 0
0.02429098950587761 -0.05405165505553572 0
-0.05409040547856812 -0.02430806815531744 0
0.05421853446940687 0.02504152447265391 0
-0.05949247865217803 -0.002272310235594655 0
-0.05455134715897558 -0.003944768307438883 0
-0.001758224623021603 0.05927531348951879 0
0.04026531644093383 0.04383942288418467 0
-0.02536673960138757 0.05463337738373806 0
0.04434309991291376 -0.04076722817080618 0
-0.04076722817504061 -0.04434309990812152 0
0.05755162630535693 0.01617834539451592 0
0.05858793489371653 0.01165386701166714 0
-0.05925053492106162 0.007072935087587362 0
-0.05549121604238016 0.004090716906657027 0
-0.05858793572863429 0.0116538628072041 0
0.04691157063479764 0.03698210037545211 0
0.04956477326309392 0.03314910391158615 0
0.05762601222200263 -0.01175926868028199 0
-0.04873941593608409 0.03291666781239602 0
-0.01175926867927971 -0.05762601222444778 0
0.01192685794975747 -0.05859784996210847 0
0.03574472454809621 0.04210693938960858 0
0.04516024043641589 0.008670611967989746 0
0.03682886810303715 0.01801652516548165 0
-0.01852330698471721 0.05174235974924263 0
-0.04071514443298561 -0.03691424804256684 0
0.0369142480994324 -0.04071514448664897 0
0.01523883898217511 0.05286936831783279 0
-0.0488817345766639 -0.003055163231433193 0
0.0566903930022007 -0.02101293224631347 0
-0.02101293224593102 -0.05669039300371784 0
-0.0443337927477708 0.04110789220234269 0
0.0195794632754967 -0.05146902364712511 0
-0.05182631503976884 -0.01990533470969259 0
0.001452553030465041 0.05549279055888036 0
0.05971634498984822 -0.00706789517480145 0
-0.007067895175197008 -0.0597163449929788 0
-0.05246594251975974 0.02938233956331416 0
0.05317080878042402 0.01780374952077824 0
-0.03953471458764805 -0.03273585527398009 0
-0.01511470638269185 0.04905278308847265 0
0.03273585549443086 -0.03953471485708851 0
-0.04396155367002686 0.0108658126429046 0
0.00657765524045177 -0.04440678660112744 0
-0.05646835633506576 0.02083227648402165 0
0.06014212572089469 0.002362990560872572 0
0.002362990560700099 -0.06014212572391182 0
0.006210652189448228 0.04450667864333138 0
-0.04349552314331087 -0.01129407410680019 0
0.0397977982361335 0.03929941897764253 0
-0.05542741518439816 0.008875770603090583 0
-0.03593740314422145 0.02696070090330936 0
0.04351935398450185 -0.01115601615732529 0
-0.01115579095141342 -0.04351924477150779 0
0.02654653144278336 -0.03679412529044653 0
-0.03679412529270902 -0.02654653144141058 0
-0.01044529489563418 0.04415225703896217 0
0.05429936017624394 0.01327705822017263 0
-0.05497719682951267 -0.008161950417777191 0
0.01620244802799059 -0.0583774470068587 0
0.03175670401667426 0.02601788615252261 0
-0.05604191133721333 -5.159009277626802e-05 0
0.0283064317710721 0.05220143947020103 0
0.009572409768895654 -0.05535862262449715 0
-0.047717261447277 0.009247775146903607 0
0.01118120937486706 -0.04289324438860272 0
0.05545727047159667 0.009276679908288262 0
-0.05483195923225474 0.01274003902319146 0
0.04121164940385425 0.01668847722472742 0
-0.05830814955855101 -0.0165064179610546 0
0.007067072193005376 0.06005454838167382 0
0.02108571973579565 0.05701213066553745 0
0.0537472416993527 -0.01495921060363408 0
-0.01495921060137666 -0.05374724170239914 0
-0.04393133447583419 0.03438868744787572 0
0.04806285006377845 0.02928440222536335 0
0.0442432982960874 0.00533203867162477 0
0.0150754154379573 0.04643896803478587 0
0.04788621904679331 0.01093760160936283 0
0.02017334848832588 0.04239689471542182 0
0.05231206580876235 0.02177448688617483 0
-0.03583342648232318 0.01961542899947455 0
-0.004409434732496286 -0.0406122689990266 0
0.04062037276502363 -0.004452618897672418 0
-0.04497176465497292 -0.001873336192256051 0
0.0432690255467898 0.0367938652584895 0
2 8 0 283
617
618
619
620
621
622
623
624
625
626
627
628
629
630
631
632
633
634
635
636
637
638
639
640
641
642
643
644
645
646
647
648
649
650
651
652
653
654
655
656
657
658
659
660
661
662
663
664
665
666
667
668
669
670
671
672
673
674
675
676
677
678
679
680
681
682
683
684
685
686
687
688
689
690
691
692
693
694
695
696
697
698
699
700
701
702
703
704
705
706
707
708
709
710
711
712
713
714
715
716
717
718
719
720
721
722
723
724
725
726
727
728
729
730
731
732
733
734
735
736
737
738
739
740
741
742
743
744
745
746
747
748
749
750
751
752
753
754
755
756
757
758
759
760
761
762
763
764
765
766
767
768
769
770
771
772
773
774
775
776
777
778
779
780
781
782
783
784
785
786
787
788
789
790
791
792
793
794
795
796
797
798
799
800
801
802
803
804
805
806
807
808
809
810
811
812
813
814
815
816
817
818
819
820
821
822
823
824
825
826
827
828
829
830
831
832
833
834
835
836
837
838
839
840
841
842
843
844
845
846
847
848
849
850
851
852
853
854
855
856
857
858
859
860
861
862
863
864
865
866
867
868
869
870
871
872
873
874
875
876
877
878
879
880
881
882
883
884
885
886
887
888
889
890
891
892
893
894
895
896
897
898
899
0.002091037823410414 0.009727234778658609 0
0.009702319715426365 -0.002273698858007814 0
0.005488031125581521 -0.008213419008232872 0
-0.008213419008232874 0.005488031125581523 0
0.008213419008232874 0.005488031125581521 0
-0.008070392929584317 -0.005546960204712009 0
-0.002151198168361111 -0.00943679160330152 0
-0.01065796962322134 0.03126340125162889 0
-0.03319994661724101 0.002638406100391168 0
0.02759335291070068 -0.01783190140645879 0
-0.01841427776849592 -0.02778837982009099 0
0.006517112166745227 -0.0325265705197838 0
0.03240250158813707 0.006768322350211436 0
0.01840294333587318 0.02752181937573159 0
-0.03164872058253564 -0.01064619684493621 0
-0.02169061860800646 0.02489722983619778 0
0.002002838408976201 0.03314235602849273 0
-0.03047574009065371 0.01426556685833121 0
0.01874596759044761 -0.02744824910047055 0
0.03240015163893072 -0.006309106489954191 0
0.02755969146990068 0.01872605356030129 0
-0.005508914358438979 -0.03211891946255433 0
-0.0274664434090753 -0.01860902964534761 0
0.01094409322685633 0.03119143915720198 0
-0.001538121158689519 0.009858745299782147 0
0.0001473664621498637 0.01259010902973576 0
-0.00348092869517261 0.01269504960218292 0
0.003525037664107453 0.01275887864457839 0
-0.001394044524557306 0.01551082540557024 0
-0.004819831877687494 0.01583035283164557 0
-0.002698483520459738 0.01872709564485895 0
-0.006386925143629435 0.01896175639420985 0
-0.008407372418270533 0.01583343490119459 0
0.0002853450103309592 0.01807758212711329 0
-0.01009694468112592 0.01915394699535383 0
-0.01213932217204689 0.0158495784226703 0
-0.004213914459248819 0.02215584884757801 0
-0.01385179584179568 0.01935879410889952 0
-0.01596182129579089 0.01602571979119468 0
-0.01413416143257486 0.0125320640137697 0
-0.01807466596349002 0.01272253571107456 0
-0.01632936520421159 0.009362810387864358 0
-0.02018522931640951 0.009449351466728017 0
-0.01849933858420671 0.006066822464048882 0
-0.02241119978437492 0.006215473861782155 0
-0.02056436706462422 0.002747953080742178 0
-0.01681346094473086 0.002596898818173398 0
-0.01879094830165703 -0.0006466986835321747 0
-0.02265575135546237 -0.000594710020446033 0
-0.0206965187435673 -0.004021348988882284 0
-0.01692977248893186 -0.003851580550222548 0
-0.01876893358169824 -0.00735416656759122 0
-0.02003218473485471 0.01639257609011084 0
-0.01481195507219643 -0.007334422433624348 0
-0.01682142416587528 -0.01069663004249768 0
-0.01319162207529533 -0.01084336420489457 0
-0.01497467990141056 -0.01405028882814547 0
-0.01132254527528245 -0.01413237029915704 0
-0.01309071827409372 -0.01740573736377547 0
-0.009168048385890873 -0.01738521649861788 0
-0.01114302424295558 -0.02081764943204489 0
-0.00717767370619226 -0.02078395305190366 0
-0.01697112140167775 -0.01738362473558173 0
-0.005160268896883032 -0.01738307727617833 0
-0.003249308133476408 -0.02073955145287355 0
-0.00126975610907037 -0.01743361452914733 0
0.0006086352004121143 -0.0207109198646583 0
0.002438532948326111 -0.01741831500910058 0
0.004416996386934222 -0.02066274136920444 0
0.006276676369824906 -0.0173703085257943 0
0.008256914788658894 -0.02062589898609676 0
0.01022226723054118 -0.01726183967366822 0
-0.001276103011283075 -0.02412037439700031 0
-0.02057554605876394 -0.01064871187708517 0
0.01218910708352792 -0.02063663863236278 0
0.01410013807092789 -0.01715409926569268 0
0.01227479206608851 -0.0139041322927204 0
0.01601171666680042 -0.01370549055534288 0
0.01409951903142255 -0.01046018894359755 0
0.017859665882808 -0.01034249860637737 0
0.01608418941869818 -0.007250020480437978 0
0.01971994216106225 -0.007022524733138387 0
0.01787421720065317 -0.00381448031224958 0
0.02158235063058234 -0.003656454443871261 0
0.01961251965173869 -0.0002869583386014918 0
0.02349272838318751 -0.0001979205370059587 0
0.02137006008145986 0.003160243394294153 0
0.01681675001603719 0.002732042787885702 0
0.01902631293866165 0.006411163805723182 0
0.02172026850315368 -0.01027688250609082 0
0.02322465485393118 0.006642515156760469 0
0.0210263734602549 0.01000041663832617 0
0.01677445758664227 0.00969025679649169 0
0.01882630122793958 0.01333829503562364 0
0.01468525851944461 0.01303803036382848 0
0.01665936149011291 0.01670384994243286 0
0.01267453552336033 0.01641217305884586 0
0.01814467703025106 -0.01707060239992116 0
0.01071616250890554 0.01262538111424003 0
0.008769117511073305 0.01604121718529748 0
0.0105048909733008 0.01969145979609765 0
-0.02471266647378104 -0.004048503644146818 0
0.01022351080193753 -0.02418071451665752 0
0.0251585809740925 0.01026126734832454 0
0.003296824400835262 -0.009672911212810956 0
0.008213419008232871 -0.005488031125581523 0
-0.009703326266124013 0.002272459887553194 0
0.009716219584062932 0.002962001471395946 0
-0.009695674290524391 -0.002971257045670373 0
-0.005565097569424443 -0.008202200846219291 0
-0.009151345935688827 -0.02433924366221403 0
-0.01176318133618826 0.02278035433356953 0
0.01129580550672717 0.005791865289063679 0
0.005372231076406468 0.007826386061685047 0
-0.006018569836884237 0.00802040665445217 0
-0.00886413826132626 0.008789138235300906 0
-0.0111835066362884 0.004502487238612514 0
0.005729458255031955 -0.01117979243358786 0
-0.004507986151437307 -0.01138510917847978 0
0.02554161376411467 -0.003519460605696075 0
0.02752723995177818 -5.20697885909604e-05 0
-0.02431458903585171 0.01028057193752132 0
-0.02657509350170644 0.006451510380728745 0
0.006748945491934666 0.01930733669386885 0
0.008237987207047662 0.02298736262787062 0
0.00441640187807737 0.02260361385437736 0
0.005924821289242097 0.02627833016740082 0
0.001830331365623277 0.02596093280157766 0
0.01231673754096751 0.02333543365158652 0
0.0206431450600052 0.01694189360611425 0
0.008168323596982711 -0.008993249202184885 0
0.01838180173081746 0.02028264856038155 0
-0.02665162309050536 -0.0005329511484852685 0
-0.02928629158676088 -0.004078136989505736 0
0.0113767690922971 -0.004740689150153863 0
0.01274569183057996 -0.001738425094985434 0
0.0005377427413962158 -0.01457723479300219 0
-0.007430349014224644 -0.0105641345342128 0
0.008567595532848084 0.009128044042262532 0
-0.01619084917915861 0.02300835758833985 0
-0.01308308094848271 -0.02409600197105275 0
-0.0116476304668224 -0.02761558467799225 0
-0.02645043693581845 -0.007427913605540312 0
0.02275084644618436 0.02075573000908239 0
-0.01345782049485898 0.02678468749756313 0
-0.009337977643591603 0.02632704664942608 0
-0.005605877029343061 0.02918956154403007 0
0.01250358716516827 0.009278139442144274 0
0.006940192507137007 0.01287268313941135 0
0.01311839386205886 0.003139120009163342 0
0.01483573702340772 0.006159089545298519 0
-0.006619572405359736 0.01113692938736258 0
-0.009851104791307129 0.01246926066036 0
-0.01225638147766695 0.009306437118912179 0
0.01481472427654144 -0.02480731685580587 0
0.01183670209310397 -0.02778712091064931 0
0.01946201103848353 -0.02335304998926989 0
0.02751972660406653 0.00680861933542728 0
0.02938014644825602 0.01058749854434864 0
-0.007262022923404823 -0.01379520538898668 0
-0.01130081181385494 -0.005795298494423153 0
-0.01319016767069143 0.002408225138462106 0
0.008330026341376437 -0.02826654012186488 0
-0.02853466075632059 0.01002204750848219 0
-0.01313179862274161 -0.003132349063397001 0
0.0001416913874759283 0.02167013013989544 0
0.008337639684598981 -0.01393245807727067 0
0.005234252145636231 0.01580486741069046 0
-0.03062391483880834 0.006647559900726106 0
-0.002349359105045734 0.02562561762129995 0
-0.0007005936381024619 0.02950229390543098 0
-0.01407118443850057 0.005868166697546254 0
-0.00734310057406234 -0.02798127210018479 0
-0.01797515481593144 0.02787480146555475 0
-0.02010005189892356 0.0208363724203884 0
-0.02363120849351102 0.01881105879414478 0
-0.02407350725795514 0.01493440328430476 0
0.004057736578658122 -0.01429756168292758 0
-0.003092638916286034 -0.01443468669562079 0
0.01446631968501067 0.02002995770248293 0
0.01586325445612734 -0.001135717823884832 0
0.02685716212601789 0.0141495840626088 0
-0.02458279543842597 0.002874842489958593 0
0.002527625409219937 -0.02437926406312539 0
0.0002471897924754075 -0.02712362018661126 0
0.02544846312689968 0.003290053741553486 0
-0.00801031956536641 0.02224743132932921 0
-0.005141619233855439 -0.02410159056704259 0
-0.02257712238114069 -0.00737537469842397 0
0.02282988467383119 0.01357524938547274 0
0.02005641495428808 -0.0139097836261131 0
0.02421384765708131 -0.01393461227554138 0
0.02587582596339223 -0.01020097994591284 0
0.02780200968764266 -0.01346588682184037 0
0.02249579300683425 -0.01745295932687177 0
0.02397870224760172 -0.02186875474627321 0
0.02367381962166644 -0.006903411420961816 0
0.009891318941182385 0.02672084663985035 0
0.01383656492436336 0.02722563087721495 0
-0.01872182865149639 -0.01397537748074046 0
-0.02078687862848031 -0.01741820216517472 0
-0.01918996446708448 -0.02092293972571663 0
-0.02337398778793285 -0.02041925926157953 0
-0.01498845122812247 -0.02070671296062059 0
-0.002858484483323774 0.03323038247681363 0
0.006341752322104471 -0.02455887413336121 0
0.03080120067834414 -0.01087405676588052 0
-0.02748005412676974 0.01785679594316791 0
0.006569062090293395 0.03302490530702568 0
-0.02992942054696745 -0.01463917618516336 0
-0.02603579062937905 -0.01439511842675347 0
0.02973676275470859 -0.003343937186803859 0
0.03192198635540128 6.116209477481259e-05 0
-0.01522283214501495 -0.0005051658606533057 0
-0.01489467029368212 -0.0302153766813653 0
0.01102665879198701 -0.03157451134048711 0
-0.001883572246057897 -0.03411673046184104 0
0.002097475807955993 -0.03345771870701111 0
-0.03296551271088336 -0.006467570864689989 0
-0.03359980732043355 -0.00220224773542843 0
0.02228377068622221 -0.02576171746374788 0
-0.02197778675419797 -0.02478516119486722 0
0.02263519944080957 0.02511610633301939 0
-0.02876767789608405 0.002960836271979256 0
0.01614955386797063 0.02365567459062998 0
0.02978803476816771 0.003331183167941349 0
-0.003375034556179939 -0.02763372690950384 0
0.01125809838684991 0.0004863467835421031 0
0.01642889582397244 -0.02046984387718201 0
-0.01140578416646818 -0.0003213478239508964 0
-0.01056593759186831 -0.03143945529577347 0
-0.009145080987472246 -0.008299780640043114 0
-0.02439536550562856 -0.01059038061140727 0
-0.01502317005207644 0.03057815468827168 0
0.003859729703914305 0.02958391906369812 0
0.001919912550120231 0.01554708045002517 0
0.003547645983994608 -0.02866702463934106 0
0.01285987412694643 -0.007440060844118659 0
-0.02508439082275344 0.02245016975912802 0
0.02800489573685946 -0.006858492069201548 0
0.01446733268755037 -0.004353232284305057 0
0.01095954938064814 -0.01090962809612376 0
-0.005935432818098479 0.02507229131161956 0
0.01532730055571668 -0.03005789513725207 0
-0.03241258701834689 0.010636169625473 0
-0.03031566263317338 -0.0002724573664632417 0
-0.01713965067074563 -0.02420755367519211 0
-0.02239657737337861 -0.01400087664927343 0
0.03069553251663389 0.01488909638238281 0
0.000818763729199992 -0.009596445909006169 0
0.02412814595518786 0.0168297021247159 0
0.01521359624433883 0.03076532379667703 0
-0.006812652276626549 0.03341554917964481 0
-0.02800128471549115 -0.01096506032189925 0
-0.02149898375577746 0.0125699476407295 0
0.03387393206318488 -0.003009793133741781 0
-0.0008935421583168864 -0.01203387900793042 0
0.02593227833749144 0.02274199773880073 0
0.00521606839802042 0.01054996489934809 0
0.003566090128038317 0.0186169802076361 0
0.007464694666627881 0.02942697609709982 0
-0.004206029010181114 0.01006067047520918 0
0.03390829098272355 0.003111011274272043 0
0.008298742729315446 -0.01125378195229179 0
-0.000812534929375134 -0.0305196233944771 0
-0.01716931215541639 0.01914177418357037 0
0.001793852680017653 -0.01202349288948534 0
-0.01202405160667096 -0.00839343187664787 0
-0.01022277426727905 -0.01120712809083645 0
-0.01091772596440301 0.006790852083190676 0
0.03291422876563969 0.01117287513700646 0
0.01031558704102145 -0.007514331683632539 0
-0.02437983471978168 -0.01725573055270995 0
-0.006651006839537925 0.0137713376059614 0
0.01986271744410282 -0.01979735612003969 0
0.03080118433185118 -0.01514152088482364 0
-0.026925206356372 0.01287302771668666 0
-0.02600099661442359 -0.02279752602110203 0
0.0194929559907916 0.02353855737638234 0
0.01389112625301579 0.0007090747514592314 0
-0.01503586202964575 -0.02678457936513867 0
-0.0341382383756236 0.006847333826073914 0
-0.0297741796665156 -0.00750125824942312 0
2 9 0 25
900
901
902
903
904
905
906
907
908
909
910
911
912
913
914
915
916
917
918
919
920
921
922
923
924
0.002675484927899786 -0.004004146161019481 0
-0.002911312145126818 0.004373066688418413 0
0.004096416445408882 0.002831983321674605 0
-0.004004146161019481 -0.002675484927899785 0
-0.0004958238583640351 -0.004470619477790351 0
0.0009809131451305468 0.005011113106944854 0
-0.004723212438799293 0.0009395053678386155 0
0.004750204741049769 -0.001070216477922096 0
0.005571408945858368 0.001108222143060892 0
0.002437763237999224 0.0004945731148634323 0
0.001546456009237277 0.002973910308853223 0
-0.0005485346992480399 0.001249554549222285 0
-0.0003097786574213566 -0.001503594775288708 0
-0.002758227349602798 -0.0005213691080345049 0
0.001913914952677894 -0.001881098072964709 0
-0.0010993554339588 0.00548103422718448 0
-0.004723212438799293 0.003155949653960401 0
-0.002983920501230147 -0.004524527380742277 0
0.003155949653960402 0.004723212438799292 0
-0.00557140894585837 -0.001108222143060893 0
0.001261576672640197 -0.005721591594829652 0
0.004429084952639769 -0.003061553724758343 0
-0.002790923104850907 0.00186483519873678 0
-0.002110379305527564 -0.002739119133951125 0
-0.0008037927048027899 0.003492252346560005 0
$EndNodes
$Elements
20 1764 1 2053
0 1 15 1
1 1 
0 2 15 1
2 2 
0 3 15 1
3 3 
0 4 15 1
4 4 
0 5 15 1
5 5 
0 6 15 1
6 6 
0 7 15 1
7 7 
0 8 15 1
8 8 
0 9 15 1
9 9 
0 10 15 1
10 10 
0 11 15 1
11 11 
0 12 15 1
12 12 
0 13 15 1
13 13 
0 14 15 1
14 14 
0 15 15 1
15 15 
0 16 15 1
16 16 
2 6 2 240
306 88 163 87 
307 113 183 112 
308 122 123 191 
309 99 172 98 
310 207 142 143 
311 73 151 72 
312 68 147 67 
313 159 82 83 
314 93 167 92 
315 109 180 108 
316 128 195 127 
317 156 78 79 
318 103 175 102 
319 199 132 133 
320 155 77 78 
321 117 118 187 
322 118 119 188 
323 204 138 139 
324 108 179 107 
325 137 138 203 
326 98 171 97 
327 69 148 68 
328 134 200 133 
329 104 176 103 
330 94 168 93 
331 160 83 84 
332 123 124 192 
333 208 143 144 
334 74 152 73 
335 89 164 88 
336 129 196 128 
337 184 113 114 
338 181 110 256 
339 173 100 258 
340 177 105 269 
341 149 70 261 
342 153 75 271 
343 169 95 266 
344 165 90 272 
345 131 198 248 
346 126 194 259 
347 66 146 244 
348 111 182 243 
349 76 154 264 
350 96 170 262 
351 116 186 252 
352 101 174 250 
353 106 178 253 
354 91 166 249 
355 71 150 257 
356 81 158 247 
357 141 206 246 
358 136 202 245 
359 121 190 251 
360 86 162 242 
361 185 115 273 
362 209 145 268 
363 197 130 260 
364 161 85 265 
365 193 125 270 
366 205 140 254 
367 201 135 267 
368 189 120 255 
369 157 80 263 
370 21 5 242 
371 26 10 243 
372 17 1 244 
373 31 15 245 
374 32 16 246 
375 20 4 247 
376 28 12 251 
377 22 6 249 
378 24 8 250 
379 25 9 253 
380 27 11 252 
381 16 32 254 
382 30 14 248 
383 12 28 255 
384 18 2 257 
385 29 13 259 
386 23 7 262 
387 5 21 265 
388 4 20 263 
389 19 3 264 
390 14 30 260 
391 15 31 267 
392 1 17 268 
393 13 29 270 
394 11 27 273 
395 2 18 261 
396 8 24 258 
397 10 26 256 
398 7 23 266 
399 9 25 269 
400 6 22 272 
401 3 19 271 
402 1 66 244 
403 145 1 268 
404 70 2 261 
405 2 71 257 
406 75 3 271 
407 3 76 264 
408 80 4 263 
409 4 81 247 
410 85 5 265 
411 5 86 242 
412 90 6 272 
413 6 91 249 
414 95 7 266 
415 7 96 262 
416 100 8 258 
417 8 101 250 
418 105 9 269 
419 9 106 253 
420 110 10 256 
421 10 111 243 
422 115 11 273 
423 11 116 252 
424 120 12 255 
425 12 121 251 
426 125 13 270 
427 13 126 259 
428 130 14 260 
429 14 131 248 
430 135 15 267 
431 15 136 245 
432 140 16 254 
433 16 141 246 
434 146 17 244 
435 17 209 268 
436 18 149 261 
437 150 18 257 
438 19 153 271 
439 154 19 264 
440 20 157 263 
441 158 20 247 
442 21 161 265 
443 162 21 242 
444 22 165 272 
445 166 22 249 
446 23 169 266 
447 170 23 262 
448 24 173 258 
449 174 24 250 
450 25 177 269 
451 178 25 253 
452 26 181 256 
453 182 26 243 
454 27 185 273 
455 186 27 252 
456 28 189 255 
457 190 28 251 
458 29 193 270 
459 194 29 259 
460 30 197 260 
461 198 30 248 
462 31 201 267 
463 202 31 245 
464 32 205 254 
465 206 32 246 
466 148 147 68 
467 152 151 73 
468 156 155 78 
469 160 159 83 
470 164 163 88 
471 168 167 93 
472 172 171 98 
473 176 175 103 
474 180 179 108 
475 184 183 113 
476 196 195 128 
477 200 199 133 
478 208 207 143 
479 67 146 66 
480 147 146 67 
481 70 149 69 
482 149 148 69 
483 72 150 71 
484 151 150 72 
485 75 153 74 
486 153 152 74 
487 154 76 77 
488 155 154 77 
489 157 79 80 
490 157 156 79 
491 158 81 82 
492 159 158 82 
493 161 84 85 
494 161 160 84 
495 162 86 87 
496 163 162 87 
497 90 165 89 
498 165 164 89 
499 92 166 91 
500 167 166 92 
501 95 169 94 
502 169 168 94 
503 97 170 96 
504 171 170 97 
505 100 173 99 
506 173 172 99 
507 102 174 101 
508 175 174 102 
509 105 177 104 
510 177 176 104 
511 107 178 106 
512 179 178 107 
513 110 181 109 
514 181 180 109 
515 112 182 111 
516 183 182 112 
517 185 114 115 
518 185 184 114 
519 116 117 186 
520 186 117 187 
521 187 118 188 
522 119 120 189 
523 188 119 189 
524 121 122 190 
525 190 122 191 
526 191 123 192 
527 193 124 125 
528 124 193 192 
529 194 126 127 
530 195 194 127 
531 130 197 129 
532 197 196 129 
533 198 131 132 
534 199 198 132 
535 135 201 134 
536 201 200 134 
537 137 202 136 
538 202 137 203 
539 203 138 204 
540 205 139 140 
541 205 204 139 
542 206 141 142 
543 207 206 142 
544 209 144 145 
545 209 208 144 
2 7 2 814
546 508 411 558 
547 387 385 455 
548 404 402 454 
549 415 413 456 
550 346 343 448 
551 325 322 451 
552 367 364 445 
553 426 524 610 
554 438 288 440 
555 461 306 479 
556 463 321 480 
557 465 308 481 
558 524 432 610 
559 213 289 422 
560 223 286 397 
561 408 404 454 
562 391 387 455 
563 419 415 456 
564 346 448 449 
565 325 451 452 
566 367 445 446 
567 535 395 559 
568 401 535 559 
569 370 373 457 
570 328 331 458 
571 349 352 459 
572 498 528 556 
573 496 529 555 
574 500 530 557 
575 488 303 563 
576 316 151 504 
577 422 289 423 
578 397 286 398 
579 283 444 466 
580 336 295 337 
581 357 296 358 
582 378 298 379 
583 370 457 484 
584 328 458 483 
585 349 459 482 
586 522 431 593 
587 310 508 558 
588 293 522 593 
589 34 433 502 
590 440 288 554 
591 317 470 489 
592 320 472 490 
593 315 474 491 
594 400 475 581 
595 503 316 504 
596 417 452 585 
597 389 449 586 
598 406 446 587 
599 449 389 570 
600 446 406 571 
601 452 417 572 
602 433 34 591 
603 444 283 553 
604 544 400 581 
605 303 488 590 
606 443 471 588 
607 39 384 512 
608 44 363 513 
609 48 342 514 
610 473 420 487 
611 385 41 455 
612 402 36 454 
613 413 45 456 
614 322 46 451 
615 343 42 448 
616 364 37 445 
617 163 164 521 
618 199 200 520 
619 183 184 519 
620 420 488 563 
621 460 461 479 
622 462 463 480 
623 464 465 481 
624 151 152 504 
625 179 180 516 
626 159 160 515 
627 195 196 517 
628 432 524 608 
629 288 438 501 
630 426 522 524 
631 510 351 527 
632 509 330 526 
633 511 372 525 
634 315 491 575 
635 317 489 576 
636 320 490 577 
637 384 39 612 
638 363 44 613 
639 342 48 614 
640 336 334 548 
641 357 355 550 
642 378 376 549 
643 528 290 556 
644 529 305 555 
645 530 302 557 
646 337 295 489 
647 358 296 490 
648 379 298 491 
649 321 463 538 
650 306 461 540 
651 308 465 539 
652 398 286 573 
653 347 344 460 
654 368 365 462 
655 326 323 464 
656 478 318 605 
657 476 313 603 
658 477 309 604 
659 318 478 562 
660 313 476 560 
661 309 477 561 
662 532 467 564 
663 536 468 565 
664 531 469 563 
665 548 334 603 
666 550 355 604 
667 549 376 605 
668 40 223 397 
669 35 213 422 
670 295 336 566 
671 298 378 568 
672 296 357 567 
673 420 419 487 
674 428 424 502 
675 175 176 506 
676 155 156 508 
677 398 573 595 
678 275 345 482 
679 274 324 483 
680 277 366 484 
681 465 302 539 
682 461 290 540 
683 463 305 538 
684 569 443 588 
685 411 412 558 
686 290 461 556 
687 305 463 555 
688 302 465 557 
689 303 531 563 
690 299 532 564 
691 294 536 565 
692 420 473 488 
693 304 510 527 
694 292 509 526 
695 301 511 525 
696 347 460 479 
697 368 462 480 
698 326 464 481 
699 467 311 497 
700 468 319 495 
701 469 307 499 
702 311 179 516 
703 319 159 515 
704 307 195 517 
705 308 199 520 
706 306 183 519 
707 321 163 521 
708 344 346 460 
709 365 367 462 
710 323 325 464 
711 424 289 502 
712 396 40 397 
713 421 35 422 
714 314 175 506 
715 310 155 508 
716 445 278 587 
717 448 281 586 
718 451 279 585 
719 346 449 450 
720 325 452 453 
721 367 446 447 
722 345 349 482 
723 324 328 483 
724 366 370 484 
725 423 289 424 
726 397 398 399 
727 401 400 544 
728 318 549 605 
729 313 548 603 
730 309 550 604 
731 521 164 525 
732 520 200 526 
733 519 184 527 
734 449 448 586 
735 446 445 587 
736 452 451 585 
737 218 37 364 
738 236 46 322 
739 228 42 343 
740 226 41 385 
741 234 45 413 
742 216 36 402 
743 224 40 396 
744 214 35 421 
745 408 454 578 
746 391 455 579 
747 433 428 502 
748 421 432 485 
749 225 276 455 
750 215 282 454 
751 233 284 456 
752 229 275 482 
753 237 274 483 
754 219 277 484 
755 280 238 458 
756 285 230 459 
757 287 220 457 
758 217 278 445 
759 227 281 448 
760 235 279 451 
761 241 283 466 
762 458 47 483 
763 459 43 482 
764 457 38 484 
765 516 180 528 
766 515 160 529 
767 517 196 530 
768 212 34 502 
769 457 373 582 
770 458 331 583 
771 459 352 584 
772 498 556 570 
773 496 555 571 
774 500 557 572 
775 471 443 609 
776 316 503 552 
777 419 456 596 
778 286 222 512 
779 284 232 513 
780 283 240 514 
781 574 487 596 
782 147 148 547 
783 311 467 532 
784 319 468 536 
785 307 469 531 
786 475 400 595 
787 412 410 485 
788 395 393 486 
789 496 515 529 
790 498 516 528 
791 500 517 530 
792 284 574 596 
793 384 382 512 
794 342 340 514 
795 363 361 513 
796 351 519 527 
797 330 520 526 
798 372 521 525 
799 442 443 569 
800 421 422 432 
801 288 210 554 
802 33 466 554 
803 346 450 460 
804 325 453 464 
805 367 447 462 
806 423 424 425 
807 399 398 400 
808 292 476 509 
809 304 477 510 
810 301 478 511 
811 431 504 593 
812 401 544 592 
813 312 518 533 
814 438 435 501 
815 466 444 599 
816 339 337 489 
817 360 358 490 
818 381 379 491 
819 354 356 493 
820 375 377 492 
821 333 335 494 
822 470 339 489 
823 472 360 490 
824 474 381 491 
825 359 361 363 
826 380 382 384 
827 338 340 342 
828 430 428 433 
829 439 438 440 
830 380 381 382 
831 359 360 361 
832 338 339 340 
833 335 338 494 
834 377 380 492 
835 356 359 493 
836 185 27 304 
837 181 26 290 
838 209 17 300 
839 153 19 293 
840 177 25 299 
841 197 30 302 
842 201 31 292 
843 193 29 303 
844 165 22 301 
845 161 21 305 
846 157 20 294 
847 173 24 297 
848 205 32 295 
849 189 28 296 
850 169 23 298 
851 149 18 291 
852 437 435 438 
853 356 358 359 
854 335 337 338 
855 377 379 380 
856 194 195 307 
857 178 179 311 
858 146 147 312 
859 198 199 308 
860 182 183 306 
861 202 203 313 
862 174 175 314 
863 206 207 317 
864 158 159 319 
865 190 191 320 
866 186 187 309 
867 162 163 321 
868 150 151 316 
869 170 171 315 
870 154 155 310 
871 166 167 318 
872 423 425 426 
873 34 211 591 
874 443 441 444 
875 425 424 427 
876 362 473 487 
877 338 342 494 
878 380 384 492 
879 359 363 493 
880 399 400 401 
881 460 450 461 
882 464 453 465 
883 462 447 463 
884 437 438 439 
885 427 424 428 
886 359 358 360 
887 338 337 339 
888 380 379 381 
889 382 381 383 
890 340 339 341 
891 361 360 362 
892 439 440 441 
893 366 369 370 
894 324 327 328 
895 345 348 349 
896 349 350 352 
897 328 329 331 
898 370 371 373 
899 429 428 430 
900 352 353 354 
901 331 332 333 
902 373 374 375 
903 407 404 408 
904 390 387 391 
905 418 415 419 
906 409 408 410 
907 392 391 393 
908 434 430 435 
909 375 376 377 
910 354 355 356 
911 333 334 335 
912 411 410 412 
913 394 393 395 
914 436 435 437 
915 356 357 358 
916 377 378 379 
917 335 336 337 
918 427 428 429 
919 442 441 443 
920 362 472 473 
921 383 474 475 
922 341 470 471 
923 349 348 350 
924 328 327 329 
925 370 369 371 
926 352 350 353 
927 331 329 332 
928 373 371 374 
929 429 430 434 
930 418 419 420 
931 407 408 409 
932 390 391 392 
933 225 224 276 
934 229 228 275 
935 217 216 278 
936 237 236 274 
937 227 226 281 
938 219 218 277 
939 231 230 285 
940 233 232 284 
941 235 234 279 
942 223 222 286 
943 241 240 283 
944 215 214 282 
945 213 212 289 
946 239 238 280 
947 211 210 288 
948 221 220 287 
949 36 215 454 
950 41 225 455 
951 45 233 456 
952 435 430 501 
953 44 231 613 
954 48 239 614 
955 39 221 612 
956 38 219 484 
957 47 237 483 
958 43 229 482 
959 238 47 458 
960 230 43 459 
961 220 38 457 
962 46 235 451 
963 42 227 448 
964 37 217 445 
965 354 353 355 
966 333 332 334 
967 375 374 376 
968 33 241 466 
969 312 147 547 
970 409 410 411 
971 392 393 394 
972 377 376 378 
973 356 355 357 
974 335 334 336 
975 434 435 436 
976 341 339 470 
977 362 360 472 
978 383 381 474 
979 439 441 442 
980 281 226 385 
981 277 218 364 
982 278 216 402 
983 275 228 343 
984 274 236 322 
985 279 234 413 
986 426 425 431 
987 276 224 396 
988 282 214 421 
989 274 323 324 
990 275 344 345 
991 277 365 366 
992 414 416 417 
993 403 405 406 
994 386 388 389 
995 324 326 327 
996 345 347 348 
997 366 368 369 
998 351 347 479 
999 330 326 481 
1000 372 368 480 
1001 386 385 387 
1002 344 343 346 
1003 403 402 404 
1004 365 364 367 
1005 323 322 325 
1006 414 413 415 
1007 405 404 407 
1008 388 387 390 
1009 416 415 418 
1010 353 350 477 
1011 374 371 478 
1012 332 329 476 
1013 345 344 347 
1014 324 323 326 
1015 366 365 368 
1016 275 343 344 
1017 278 402 403 
1018 281 385 386 
1019 274 322 323 
1020 277 364 365 
1021 279 413 414 
1022 327 326 330 
1023 348 347 351 
1024 369 368 372 
1025 414 415 416 
1026 403 404 405 
1027 386 387 388 
1028 405 407 468 
1029 388 390 467 
1030 416 418 469 
1031 276 396 486 
1032 282 421 485 
1033 406 495 496 
1034 389 497 498 
1035 417 499 500 
1036 430 433 501 
1037 406 405 495 
1038 389 388 497 
1039 417 416 499 
1040 495 319 515 
1041 497 311 516 
1042 499 307 517 
1043 405 468 495 
1044 388 467 497 
1045 416 469 499 
1046 522 523 524 
1047 289 212 502 
1048 479 306 519 
1049 481 308 520 
1050 480 321 521 
1051 357 550 567 
1052 336 548 566 
1053 378 549 568 
1054 425 427 503 
1055 431 425 503 
1056 327 330 509 
1057 369 372 511 
1058 348 351 510 
1059 442 569 611 
1060 476 329 509 
1061 477 350 510 
1062 478 371 511 
1063 431 503 504 
1064 285 459 584 
1065 280 458 583 
1066 287 457 582 
1067 395 535 589 
1068 505 394 506 
1069 507 411 508 
1070 455 276 579 
1071 454 282 578 
1072 537 316 552 
1073 437 439 518 
1074 286 512 573 
1075 284 513 574 
1076 485 410 578 
1077 486 393 579 
1078 392 394 505 
1079 409 411 507 
1080 222 39 512 
1081 232 44 513 
1082 240 48 514 
1083 329 327 509 
1084 350 348 510 
1085 371 369 511 
1086 148 546 547 
1087 554 466 599 
1088 522 293 523 
1089 477 304 561 
1090 476 292 560 
1091 478 301 562 
1092 282 485 578 
1093 276 486 579 
1094 533 518 611 
1095 534 314 535 
1096 389 498 570 
1097 417 500 572 
1098 406 496 571 
1099 439 442 518 
1100 165 301 525 
1101 201 292 526 
1102 185 304 527 
1103 496 495 515 
1104 498 497 516 
1105 500 499 517 
1106 164 165 525 
1107 200 201 526 
1108 184 185 527 
1109 503 427 552 
1110 506 176 600 
1111 508 156 601 
1112 354 493 584 
1113 375 492 582 
1114 333 494 583 
1115 426 431 522 
1116 400 398 595 
1117 181 290 528 
1118 161 305 529 
1119 197 302 530 
1120 492 287 582 
1121 493 285 584 
1122 494 280 583 
1123 351 479 519 
1124 330 481 520 
1125 372 480 521 
1126 362 487 574 
1127 180 181 528 
1128 160 161 529 
1129 196 197 530 
1130 537 552 580 
1131 467 390 564 
1132 468 407 565 
1133 469 418 563 
1134 422 423 610 
1135 283 514 607 
1136 523 310 558 
1137 399 401 559 
1138 198 308 539 
1139 182 306 540 
1140 162 321 538 
1141 303 29 531 
1142 300 17 533 
1143 299 25 532 
1144 297 24 534 
1145 294 20 536 
1146 291 18 537 
1147 173 297 543 
1148 149 291 546 
1149 209 300 541 
1150 194 307 531 
1151 178 311 532 
1152 146 312 533 
1153 174 314 534 
1154 158 319 536 
1155 150 316 537 
1156 313 203 548 
1157 309 187 550 
1158 318 167 549 
1159 315 171 545 
1160 317 207 542 
1161 305 21 538 
1162 302 30 539 
1163 290 26 540 
1164 29 194 531 
1165 17 146 533 
1166 25 178 532 
1167 24 174 534 
1168 18 150 537 
1169 20 158 536 
1170 485 432 608 
1171 172 173 543 
1172 148 149 546 
1173 208 209 541 
1174 30 198 539 
1175 26 182 540 
1176 21 162 538 
1177 167 168 549 
1178 203 204 548 
1179 187 188 550 
1180 171 172 545 
1181 207 208 542 
1182 310 523 602 
1183 287 492 612 
1184 285 493 613 
1185 280 494 614 
1186 414 417 585 
1187 386 389 586 
1188 403 406 587 
1189 492 384 612 
1190 493 363 613 
1191 494 342 614 
1192 456 284 596 
1193 191 192 551 
1194 444 441 599 
1195 392 505 564 
1196 409 507 565 
1197 505 299 564 
1198 507 294 565 
1199 472 320 594 
1200 320 191 551 
1201 412 524 558 
1202 427 429 552 
1203 353 477 604 
1204 332 476 603 
1205 374 478 605 
1206 543 297 544 
1207 304 27 561 
1208 301 22 562 
1209 292 31 560 
1210 470 317 597 
1211 202 313 560 
1212 186 309 561 
1213 166 318 562 
1214 205 295 566 
1215 189 296 567 
1216 169 298 568 
1217 546 436 547 
1218 474 315 598 
1219 489 295 576 
1220 490 296 577 
1221 491 298 575 
1222 298 23 575 
1223 295 32 576 
1224 296 28 577 
1225 170 315 575 
1226 206 317 576 
1227 190 320 577 
1228 436 437 606 
1229 488 473 594 
1230 341 471 609 
1231 172 543 545 
1232 208 541 542 
1233 193 303 590 
1234 152 153 593 
1235 395 486 559 
1236 177 299 600 
1237 157 294 601 
1238 293 19 602 
1239 154 310 602 
1240 394 395 589 
1241 210 33 554 
1242 450 449 570 
1243 447 446 571 
1244 453 452 572 
1245 463 447 555 
1246 461 450 556 
1247 465 453 557 
1248 429 434 580 
1249 504 152 593 
1250 523 293 602 
1251 524 523 558 
1252 27 186 561 
1253 31 202 560 
1254 22 166 562 
1255 505 506 600 
1256 507 508 601 
1257 547 436 606 
1258 299 505 600 
1259 294 507 601 
1260 432 422 610 
1261 418 420 563 
1262 390 392 564 
1263 407 409 565 
1264 204 205 566 
1265 188 189 567 
1266 168 169 568 
1267 548 204 566 
1268 549 168 568 
1269 550 188 567 
1270 382 383 573 
1271 361 362 574 
1272 340 341 607 
1273 512 382 573 
1274 513 361 574 
1275 23 170 575 
1276 32 206 576 
1277 28 190 577 
1278 544 297 592 
1279 551 192 590 
1280 314 506 589 
1281 443 444 609 
1282 486 396 615 
1283 396 397 615 
1284 506 394 589 
1285 488 551 590 
1286 288 501 591 
1287 397 399 615 
1288 501 433 591 
1289 553 341 609 
1290 410 408 578 
1291 393 391 579 
1292 518 442 611 
1293 556 450 570 
1294 555 447 571 
1295 557 453 572 
1296 487 419 596 
1297 373 375 582 
1298 331 333 583 
1299 352 354 584 
1300 524 412 608 
1301 412 485 608 
1302 580 434 616 
1303 573 383 595 
1304 552 429 580 
1305 279 414 585 
1306 281 386 586 
1307 278 403 587 
1308 535 401 592 
1309 551 488 594 
1310 534 535 592 
1311 192 193 590 
1312 541 300 569 
1313 211 288 591 
1314 569 300 611 
1315 475 474 598 
1316 543 544 581 
1317 535 314 589 
1318 471 470 597 
1319 153 293 593 
1320 545 543 581 
1321 473 472 594 
1322 383 475 595 
1323 291 580 616 
1324 291 537 580 
1325 440 554 599 
1326 341 553 607 
1327 437 518 606 
1328 297 534 592 
1329 441 440 599 
1330 176 177 600 
1331 156 157 601 
1332 19 154 602 
1333 434 436 616 
1334 559 486 615 
1335 542 541 588 
1336 334 332 603 
1337 355 353 604 
1338 376 374 605 
1339 423 426 610 
1340 320 551 594 
1341 231 285 613 
1342 221 287 612 
1343 239 280 614 
1344 317 542 597 
1345 553 283 607 
1346 315 545 598 
1347 518 312 606 
1348 436 546 616 
1349 514 340 607 
1350 541 569 588 
1351 588 471 597 
1352 312 547 606 
1353 581 475 598 
1354 300 533 611 
1355 546 291 616 
1356 545 581 598 
1357 444 553 609 
1358 542 588 597 
1359 399 559 615 
2 8 2 630
1360 822 800 853 
1361 709 711 764 
1362 773 812 891 
1363 756 632 791 
1364 47 238 823 
1365 709 764 767 
1366 788 733 886 
1367 755 715 765 
1368 763 786 787 
1369 632 756 790 
1370 770 788 886 
1371 626 808 811 
1372 812 773 837 
1373 782 650 876 
1374 843 638 881 
1375 652 656 769 
1376 771 772 860 
1377 715 755 764 
1378 663 778 788 
1379 778 733 788 
1380 635 771 860 
1381 670 777 781 
1382 793 824 893 
1383 789 638 843 
1384 742 782 876 
1385 649 652 769 
1386 807 714 811 
1387 705 709 767 
1388 808 626 810 
1389 711 715 764 
1390 808 807 811 
1391 786 763 859 
1392 724 64 844 
1393 726 622 848 
1394 644 765 784 
1395 47 823 892 
1396 667 670 781 
1397 624 761 762 
1398 704 705 767 
1399 725 56 846 
1400 776 680 795 
1401 779 822 853 
1402 824 634 893 
1403 730 755 875 
1404 834 853 881 
1405 853 801 881 
1406 783 734 794 
1407 49 64 724 
1408 797 752 857 
1409 238 636 823 
1410 57 56 725 
1411 765 716 784 
1412 218 219 790 
1413 770 658 788 
1414 686 783 794 
1415 633 36 821 
1416 766 704 767 
1417 800 801 853 
1418 641 617 642 
1419 812 811 891 
1420 818 838 863 
1421 699 797 857 
1422 653 647 782 
1423 755 765 875 
1424 723 620 733 
1425 618 722 751 
1426 620 731 732 
1427 730 621 755 
1428 704 766 896 
1429 52 617 641 
1430 647 650 782 
1431 769 656 770 
1432 623 726 735 
1433 793 792 824 
1434 722 619 747 
1435 55 620 723 
1436 617 51 730 
1437 50 621 730 
1438 618 63 722 
1439 62 619 722 
1440 620 54 731 
1441 58 622 726 
1442 623 59 726 
1443 735 776 795 
1444 656 658 770 
1445 624 762 763 
1446 61 60 866 
1447 676 680 776 
1448 771 635 773 
1449 792 791 855 
1450 715 716 765 
1451 791 632 855 
1452 640 814 815 
1453 219 632 790 
1454 619 734 747 
1455 621 729 755 
1456 734 721 883 
1457 763 787 821 
1458 64 618 844 
1459 774 629 775 
1460 838 627 863 
1461 794 734 883 
1462 674 676 776 
1463 56 723 846 
1464 755 729 764 
1465 754 726 848 
1466 721 61 866 
1467 830 781 846 
1468 617 730 875 
1469 787 633 821 
1470 789 758 847 
1471 638 833 881 
1472 761 624 850 
1473 858 854 888 
1474 638 789 847 
1475 747 858 888 
1476 53 641 878 
1477 731 53 878 
1478 623 735 873 
1479 818 819 838 
1480 797 704 896 
1481 778 830 846 
1482 835 750 836 
1483 823 810 892 
1484 653 782 786 
1485 649 769 890 
1486 640 815 868 
1487 779 628 832 
1488 682 684 753 
1489 735 795 873 
1490 765 644 875 
1491 660 663 788 
1492 36 216 821 
1493 48 829 872 
1494 218 790 850 
1495 829 48 879 
1496 667 781 830 
1497 711 713 715 
1498 660 662 663 
1499 764 729 767 
1500 693 694 695 
1501 686 688 783 
1502 637 760 867 
1503 667 668 670 
1504 688 692 693 
1505 701 703 704 
1506 680 681 682 
1507 230 231 638 
1508 234 235 635 
1509 210 211 637 
1510 238 239 636 
1511 221 39 634 
1512 215 36 633 
1513 760 637 874 
1514 219 38 632 
1515 225 41 631 
1516 680 682 795 
1517 676 678 680 
1518 228 229 627 
1519 236 237 626 
1520 232 233 628 
1521 240 241 629 
1522 212 213 630 
1523 664 666 667 
1524 223 40 625 
1525 217 37 624 
1526 715 713 716 
1527 688 693 783 
1528 656 657 658 
1529 35 214 640 
1530 695 696 697 
1531 684 686 794 
1532 763 762 859 
1533 772 779 832 
1534 226 227 639 
1535 682 683 684 
1536 652 655 656 
1537 663 662 664 
1538 669 791 792 
1539 705 708 709 
1540 747 734 880 
1541 629 774 842 
1542 699 701 797 
1543 670 671 672 
1544 783 693 858 
1545 709 710 711 
1546 704 703 705 
1547 742 744 782 
1548 716 740 784 
1549 664 667 830 
1550 697 698 699 
1551 693 692 694 
1552 684 685 686 
1553 642 617 644 
1554 672 673 674 
1555 626 811 812 
1556 658 659 660 
1557 680 678 681 
1558 667 666 668 
1559 618 751 752 
1560 783 858 880 
1561 641 642 643 
1562 768 643 890 
1563 674 776 885 
1564 669 792 793 
1565 711 712 713 
1566 656 655 657 
1567 658 660 788 
1568 695 694 696 
1569 753 684 794 
1570 732 731 768 
1571 723 733 778 
1572 674 675 676 
1573 682 681 683 
1574 735 726 754 
1575 778 663 830 
1576 699 700 701 
1577 716 717 740 
1578 670 668 671 
1579 697 696 698 
1580 660 661 662 
1581 686 687 688 
1582 658 657 659 
1583 709 708 710 
1584 782 744 786 
1585 684 683 685 
1586 646 648 649 
1587 682 753 795 
1588 761 728 762 
1589 236 626 812 
1590 727 789 804 
1591 644 784 852 
1592 664 665 666 
1593 711 710 712 
1594 832 45 860 
1595 740 741 742 
1596 672 671 673 
1597 688 691 692 
1598 701 702 703 
1599 676 677 678 
1600 776 754 885 
1601 826 639 827 
1602 775 629 887 
1603 674 673 675 
1604 793 738 871 
1605 705 707 708 
1606 772 719 779 
1607 742 743 744 
1608 727 758 789 
1609 701 704 797 
1610 718 750 759 
1611 718 759 805 
1612 649 651 652 
1613 699 698 700 
1614 686 685 687 
1615 660 659 661 
1616 716 713 717 
1617 823 636 856 
1618 52 51 617 
1619 64 63 618 
1620 62 61 619 
1621 55 54 620 
1622 50 49 621 
1623 58 57 622 
1624 60 59 623 
1625 664 662 665 
1626 652 654 655 
1627 53 52 641 
1628 762 728 803 
1629 705 703 707 
1630 676 675 677 
1631 701 700 702 
1632 740 717 741 
1633 56 55 723 
1634 772 832 860 
1635 773 635 837 
1636 688 687 691 
1637 51 50 730 
1638 643 768 878 
1639 63 62 722 
1640 732 769 770 
1641 54 53 731 
1642 59 58 726 
1643 647 645 650 
1644 712 746 748 
1645 836 750 862 
1646 694 692 714 
1647 649 648 651 
1648 720 707 774 
1649 666 665 718 
1650 678 677 727 
1651 742 741 743 
1652 683 681 689 
1653 718 665 749 
1654 657 655 669 
1655 727 677 757 
1656 786 744 787 
1657 712 710 746 
1658 706 808 809 
1659 220 824 855 
1660 741 717 745 
1661 698 696 706 
1662 779 719 822 
1663 708 707 720 
1664 785 780 861 
1665 713 712 796 
1666 661 738 739 
1667 652 651 654 
1668 46 236 812 
1669 638 231 833 
1670 717 713 796 
1671 739 780 785 
1672 702 700 736 
1673 771 773 845 
1674 225 631 835 
1675 671 668 690 
1676 661 659 738 
1677 665 662 799 
1678 212 630 839 
1679 232 628 834 
1680 215 633 825 
1681 824 792 855 
1682 675 673 679 
1683 662 661 799 
1684 703 702 802 
1685 748 746 760 
1686 691 719 771 
1687 691 687 719 
1688 625 40 836 
1689 654 651 728 
1690 718 749 750 
1691 228 627 838 
1692 631 41 826 
1693 702 736 737 
1694 619 61 721 
1695 727 757 758 
1696 780 634 861 
1697 621 49 724 
1698 777 670 884 
1699 643 642 645 
1700 769 768 890 
1701 771 719 772 
1702 679 817 818 
1703 720 774 775 
1704 720 775 798 
1705 643 645 646 
1706 739 738 780 
1707 738 793 893 
1708 646 647 648 
1709 756 728 761 
1710 622 57 725 
1711 809 808 810 
1712 834 628 853 
1713 818 817 819 
1714 756 761 790 
1715 732 768 769 
1716 636 828 856 
1717 654 728 756 
1718 735 754 776 
1719 640 214 825 
1720 635 235 837 
1721 221 634 824 
1722 785 625 840 
1723 720 798 806 
1724 749 665 799 
1725 226 639 826 
1726 648 647 653 
1727 707 703 802 
1728 758 831 847 
1729 745 717 796 
1730 646 645 647 
1731 663 664 830 
1732 740 742 876 
1733 831 43 847 
1734 798 775 865 
1735 712 748 796 
1736 729 724 766 
1737 628 233 832 
1738 627 229 831 
1739 774 707 802 
1740 642 644 852 
1741 777 725 781 
1742 811 714 891 
1743 619 721 734 
1744 702 737 802 
1745 678 727 804 
1746 624 37 850 
1747 628 779 853 
1748 685 683 800 
1749 661 739 799 
1750 681 678 804 
1751 621 724 729 
1752 729 766 767 
1753 668 666 805 
1754 666 718 805 
1755 819 639 894 
1756 710 708 806 
1757 622 725 777 
1758 810 626 892 
1759 708 720 806 
1760 696 694 807 
1761 634 39 861 
1762 706 809 813 
1763 737 828 829 
1764 679 818 820 
1765 231 44 833 
1766 766 724 844 
1767 224 225 835 
1768 34 212 839 
1769 44 232 834 
1770 40 224 836 
1771 214 215 825 
1772 42 228 838 
1773 625 785 898 
1774 689 681 804 
1775 645 642 852 
1776 210 637 865 
1777 41 226 826 
1778 683 689 800 
1779 695 854 858 
1780 700 698 813 
1781 673 671 816 
1782 790 761 850 
1783 694 714 807 
1784 220 221 824 
1785 791 669 882 
1786 800 689 801 
1787 706 807 808 
1788 643 646 890 
1789 749 799 840 
1790 690 668 805 
1791 781 725 846 
1792 651 648 803 
1793 630 213 868 
1794 746 710 806 
1795 809 810 823 
1796 233 45 832 
1797 679 816 817 
1798 229 43 831 
1799 637 211 874 
1800 644 617 875 
1801 757 677 820 
1802 741 745 814 
1803 677 675 820 
1804 706 696 807 
1805 698 706 813 
1806 714 692 845 
1807 648 653 803 
1808 736 700 813 
1809 814 745 815 
1810 687 685 822 
1811 633 787 851 
1812 825 633 851 
1813 799 739 840 
1814 629 241 887 
1815 626 237 892 
1816 743 741 814 
1817 865 775 887 
1818 35 640 868 
1819 728 651 803 
1820 223 625 898 
1821 679 673 816 
1822 737 736 828 
1823 852 784 876 
1824 804 789 843 
1825 675 679 820 
1826 671 690 816 
1827 787 744 851 
1828 785 861 898 
1829 719 687 822 
1830 691 771 845 
1831 43 230 847 
1832 697 699 857 
1833 230 638 847 
1834 639 227 894 
1835 756 791 882 
1836 848 884 885 
1837 695 697 854 
1838 38 220 855 
1839 235 46 837 
1840 745 796 841 
1841 802 737 842 
1842 774 802 842 
1843 796 748 841 
1844 750 835 899 
1845 45 234 860 
1846 685 800 822 
1847 734 783 880 
1848 693 695 858 
1849 839 760 874 
1850 751 854 857 
1851 739 785 840 
1852 618 752 844 
1853 239 48 872 
1854 48 240 879 
1855 870 759 899 
1856 637 798 865 
1857 632 38 855 
1858 692 691 845 
1859 669 793 871 
1860 624 763 869 
1861 833 44 834 
1862 224 835 836 
1863 689 804 843 
1864 813 809 856 
1865 723 778 846 
1866 736 813 856 
1867 833 834 881 
1868 631 870 899 
1869 217 624 869 
1870 630 815 841 
1871 826 827 870 
1872 37 218 850 
1873 737 829 842 
1874 669 655 882 
1875 657 669 871 
1876 815 630 868 
1877 760 746 867 
1878 815 745 841 
1879 801 689 843 
1880 814 640 877 
1881 234 635 860 
1882 639 819 889 
1883 738 659 871 
1884 653 786 859 
1885 46 812 837 
1886 654 756 882 
1887 650 645 852 
1888 838 819 894 
1889 650 852 876 
1890 744 743 851 
1891 634 780 893 
1892 805 759 849 
1893 809 823 856 
1894 622 777 848 
1895 825 851 877 
1896 829 828 872 
1897 760 839 895 
1898 670 672 884 
1899 216 217 869 
1900 752 751 857 
1901 39 222 861 
1902 636 239 872 
1903 750 749 862 
1904 762 803 859 
1905 753 794 883 
1906 732 770 886 
1907 854 697 857 
1908 240 629 879 
1909 748 760 895 
1910 672 674 885 
1911 33 210 865 
1912 629 842 879 
1913 34 839 874 
1914 754 848 885 
1915 780 738 893 
1916 213 35 868 
1917 795 753 873 
1918 690 805 849 
1919 631 826 870 
1920 806 798 867 
1921 828 736 856 
1922 714 845 891 
1923 42 838 894 
1924 620 732 886 
1925 828 636 872 
1926 733 620 886 
1927 211 34 874 
1928 646 649 890 
1929 758 757 897 
1930 751 722 888 
1931 752 797 896 
1932 842 829 879 
1933 817 816 864 
1934 827 639 889 
1935 722 747 888 
1936 803 653 859 
1937 690 849 864 
1938 630 841 895 
1939 241 33 887 
1940 237 47 892 
1941 222 223 898 
1942 768 731 878 
1943 798 637 867 
1944 227 42 894 
1945 641 643 878 
1946 784 740 876 
1947 840 625 862 
1948 60 623 866 
1949 819 817 889 
1950 659 657 871 
1951 839 630 895 
1952 821 216 869 
1953 831 758 897 
1954 625 836 862 
1955 763 821 869 
1956 743 814 877 
1957 884 672 885 
1958 849 827 864 
1959 749 840 862 
1960 820 818 863 
1961 816 690 864 
1962 746 806 867 
1963 851 743 877 
1964 861 222 898 
1965 757 820 863 
1966 655 654 882 
1967 835 631 899 
1968 33 865 887 
1969 640 825 877 
1970 845 773 891 
1971 817 864 889 
1972 759 750 899 
1973 766 844 896 
1974 849 759 870 
1975 864 827 889 
1976 827 849 870 
1977 854 751 888 
1978 627 831 897 
1979 863 627 897 
1980 801 843 881 
1981 858 747 880 
1982 844 752 896 
1983 841 748 895 
1984 866 623 873 
1985 848 777 884 
1986 866 873 883 
1987 757 863 897 
1988 721 866 883 
1989 873 753 883 
2 9 2 64
1990 904 900 914 
1991 912 904 914 
1992 900 904 920 
1993 907 908 909 
1994 908 902 909 
1995 53 54 901 
1996 59 60 904 
1997 63 64 907 
1998 49 50 902 
1999 51 52 905 
2000 55 56 906 
2001 57 58 903 
2002 61 62 900 
2003 904 912 923 
2004 909 911 912 
2005 907 909 914 
2006 907 914 921 
2007 903 913 919 
2008 913 906 919 
2009 909 902 910 
2010 914 900 921 
2011 912 911 913 
2012 909 910 911 
2013 64 49 908 
2014 901 54 916 
2015 903 58 917 
2016 60 61 920 
2017 902 50 918 
2018 63 907 921 
2019 49 902 908 
2020 50 51 918 
2021 52 53 915 
2022 54 55 916 
2023 55 906 916 
2024 56 57 919 
2025 58 59 917 
2026 59 904 917 
2027 51 905 918 
2028 53 901 915 
2029 907 64 908 
2030 906 56 919 
2031 57 903 919 
2032 904 60 920 
2033 62 63 921 
2034 905 52 915 
2035 61 900 920 
2036 900 62 921 
2037 909 912 914 
2038 911 910 924 
2039 913 903 923 
2040 912 913 923 
2041 910 902 918 
2042 905 910 918 
2043 901 922 924 
2044 922 911 924 
2045 910 905 924 
2046 906 913 922 
2047 913 911 922 
2048 916 906 922 
2049 901 916 922 
2050 903 917 923 
2051 917 904 923 
2052 915 901 924 
2053 905 915 924 
$EndElements
